<svg width="41" height="40" viewBox="0 0 41 40" fill="none" xmlns="http://www.w3.org/2000/svg">
<path d="M30.1796 5.95065V5.45065H29.6796V5.95065H30.1796ZM33.6137 33.0881C33.6137 33.3642 33.8376 33.5881 34.1137 33.5881C34.3899 33.5881 34.6137 33.3642 34.6137 33.0881H33.6137ZM5.79378 2.61182H26.8459V1.61182H5.79378V2.61182ZM2.96045 34.5552V5.44515H1.96045V34.5552H2.96045ZM34.0993 37.3885H5.79378V38.3885H34.0993V37.3885ZM29.6792 5.44515V33.8389H30.6792V5.44515H29.6792ZM1.96045 34.5552C1.96045 36.6723 3.67669 38.3885 5.79378 38.3885V37.3885C4.22897 37.3885 2.96045 36.12 2.96045 34.5552H1.96045ZM26.8459 2.61182C28.4107 2.61182 29.6792 3.88034 29.6792 5.44515H30.6792C30.6792 3.32806 28.9629 1.61182 26.8459 1.61182V2.61182ZM5.79378 1.61182C3.67669 1.61182 1.96045 3.32805 1.96045 5.44515H2.96045C2.96045 3.88034 4.22898 2.61182 5.79378 2.61182V1.61182ZM30.1796 6.45065H30.7804V5.45065H30.1796V6.45065ZM30.6796 33.9544V5.95065H29.6796V33.9544H30.6796ZM33.6137 9.28399V33.0881H34.6137V9.28399H33.6137ZM34.1137 37.3885C32.2171 37.3885 30.6796 35.851 30.6796 33.9544H29.6796C29.6796 36.4033 31.6648 38.3885 34.1137 38.3885V37.3885ZM30.7804 6.45065C32.3452 6.45065 33.6137 7.71918 33.6137 9.28399H34.6137C34.6137 7.16689 32.8975 5.45065 30.7804 5.45065V6.45065ZM34.113 9.36727H34.7139V8.36727H34.113V9.36727ZM37.5472 12.2006V33.9544H38.5472V12.2006H37.5472ZM37.5472 33.9544C37.5472 35.8511 36.0103 37.3885 34.1137 37.3885V38.3885C36.5628 38.3885 38.5472 36.4032 38.5472 33.9544H37.5472ZM34.7139 9.36727C36.2787 9.36727 37.5472 10.6358 37.5472 12.2006H38.5472C38.5472 10.0835 36.831 8.36727 34.7139 8.36727V9.36727ZM8.98207 9.36727H14.4532V8.36727H8.98207V9.36727ZM15.6198 10.5339V16.005H16.6198V10.5339H15.6198ZM14.4532 17.1717H8.98207V18.1717H14.4532V17.1717ZM7.8154 16.005V10.5339H6.8154V16.005H7.8154ZM8.98207 17.1717C8.33774 17.1717 7.8154 16.6494 7.8154 16.005H6.8154C6.8154 17.2016 7.78546 18.1717 8.98207 18.1717V17.1717ZM15.6198 16.005C15.6198 16.6494 15.0975 17.1717 14.4532 17.1717V18.1717C15.6498 18.1717 16.6198 17.2016 16.6198 16.005H15.6198ZM14.4532 9.36727C15.0975 9.36727 15.6198 9.8896 15.6198 10.5339H16.6198C16.6198 9.33731 15.6498 8.36727 14.4532 8.36727V9.36727ZM8.98207 8.36727C7.78545 8.36727 6.8154 9.33732 6.8154 10.5339H7.8154C7.8154 9.8896 8.33774 9.36727 8.98207 9.36727V8.36727Z" fill="#E4E777"/>
<path d="M19.5364 9.39209H26.3847" stroke="#E4E777" stroke-linecap="round"/>
<path d="M19.5364 16.5641H26.3847" stroke="#E4E777" stroke-linecap="round"/>
<path d="M7.12921 23.7369L26.3849 23.7369" stroke="#E4E777" stroke-linecap="round"/>
<path d="M7.12921 30.9082L26.3849 30.9082" stroke="#E4E777" stroke-linecap="round"/>
</svg>
