<svg width="18" height="18" viewBox="0 0 18 18" fill="none" xmlns="http://www.w3.org/2000/svg">
<path fill-rule="evenodd" clip-rule="evenodd" d="M13.0846 15.9772C13.0846 16.4684 13.2213 16.9278 13.4587 17.3193H1.51676C0.941467 17.3193 0.475098 16.8529 0.475098 16.2776V1.72257C0.475098 1.14728 0.941467 0.680908 1.51676 0.680908H12.0428C12.6181 0.680908 13.0845 1.14728 13.0845 1.72257V15.9195H13.0846V15.9772ZM14.3346 15.9772V2.65189C14.751 2.7883 15.0517 3.18003 15.0517 3.64199V15.544C15.0517 15.8892 15.3316 16.169 15.6767 16.169C16.0219 16.169 16.3017 15.8892 16.3017 15.544V4.11031C16.7179 4.24683 17.0185 4.63847 17.0185 5.1003V15.9772C17.0185 16.7185 16.4178 17.3193 15.6767 17.3193C14.9355 17.3193 14.3346 16.7184 14.3346 15.9772ZM3.11091 2.80863C2.30549 2.80863 1.65258 3.46155 1.65258 4.26697V7.00251C1.65258 7.80793 2.30549 8.46085 3.11091 8.46085H5.84646C6.65187 8.46085 7.30479 7.80793 7.30479 7.00251V4.26697C7.30479 3.46155 6.65187 2.80863 5.84646 2.80863H3.11091ZM2.90258 4.26697C2.90258 4.15191 2.99585 4.05863 3.11091 4.05863H5.84646C5.96152 4.05863 6.05479 4.15191 6.05479 4.26697V7.00251C6.05479 7.11757 5.96152 7.21085 5.84646 7.21085H3.11091C2.99585 7.21085 2.90258 7.11757 2.90258 7.00251V4.26697ZM8.65533 3.07104C8.31016 3.07104 8.03033 3.35087 8.03033 3.69604C8.03033 4.04122 8.31016 4.32104 8.65533 4.32104H11.2929C11.6381 4.32104 11.9179 4.04122 11.9179 3.69604C11.9179 3.35087 11.6381 3.07104 11.2929 3.07104H8.65533ZM8.65533 6.65706C8.31016 6.65706 8.03033 6.93689 8.03033 7.28206C8.03033 7.62724 8.31016 7.90706 8.65533 7.90706H11.2929C11.6381 7.90706 11.9179 7.62724 11.9179 7.28206C11.9179 6.93689 11.6381 6.65706 11.2929 6.65706H8.65533ZM2.18449 11.4935L11.2929 11.4935C11.6381 11.4935 11.9179 11.2137 11.9179 10.8685C11.9179 10.5233 11.6381 10.2435 11.2929 10.2435L2.18449 10.2435C1.83931 10.2435 1.55949 10.5233 1.55949 10.8685C1.55949 11.2137 1.83931 11.4935 2.18449 11.4935ZM2.18449 15.0791L11.2929 15.0791C11.6381 15.0791 11.9179 14.7993 11.9179 14.4541C11.9179 14.1089 11.6381 13.8291 11.2929 13.8291L2.18449 13.8291C1.83931 13.8291 1.55949 14.1089 1.55949 14.4541C1.55949 14.7993 1.83931 15.0791 2.18449 15.0791Z" fill="#F5B060"/>
</svg>
