<svg width="30" height="30" viewBox="0 0 30 30" fill="none" xmlns="http://www.w3.org/2000/svg">
<path id="Vector" d="M15 0C6.72909 0 0 6.72909 0 15C0 23.2709 6.72909 30 15 30C23.2709 30 30 23.2709 30 15C30 6.72909 23.2709 0 15 0ZM15 24.2308C13.4928 24.2308 12.2942 23.5918 12.1334 22.2418C12.1292 22.2015 12.1335 22.1607 12.146 22.1221C12.1586 22.0835 12.1792 22.0481 12.2064 22.018C12.2336 21.9879 12.2669 21.9639 12.304 21.9475C12.3411 21.9312 12.3813 21.9229 12.4219 21.9231H17.5745C17.6155 21.9228 17.6561 21.9312 17.6935 21.9478C17.731 21.9644 17.7645 21.9888 17.7918 22.0194C17.8191 22.05 17.8395 22.086 17.8518 22.1251C17.8641 22.1642 17.8679 22.2055 17.863 22.2462C17.6791 23.5709 16.4913 24.2308 15 24.2308ZM22.0673 20.7692H7.93269C7.07885 20.7692 6.63461 19.6875 7.12572 19.1106C8.30336 17.7159 9.13558 17.1296 9.13558 13.2837C9.13558 9.75937 10.9918 8.50889 12.525 7.8988C12.6305 7.85483 12.7256 7.78924 12.8043 7.70627C12.8829 7.6233 12.9433 7.52479 12.9815 7.41707C13.2476 6.53365 14.0005 5.76923 15 5.76923C15.9995 5.76923 16.751 6.53365 17.0192 7.41779C17.0577 7.52549 17.1182 7.62397 17.197 7.70693C17.2757 7.78988 17.3709 7.85548 17.4764 7.89952C19.006 8.50817 20.8659 9.76082 20.8659 13.2844C20.8659 17.1303 21.6974 17.7166 22.875 19.1113C23.3611 19.6875 22.9161 20.7692 22.0673 20.7692Z" fill="white"/>
</svg>
