<svg width="20" height="20" viewBox="0 0 20 20" fill="none" xmlns="http://www.w3.org/2000/svg">
<path d="M6.24219 12.478L4.36719 12.478C3.86991 12.478 3.39299 12.3198 3.04136 12.0383C2.68973 11.7567 2.49219 11.3748 2.49219 10.9766L2.49219 3.16947C2.49219 2.77128 2.68973 2.3894 3.04136 2.10783C3.393 1.82627 3.86991 1.66809 4.36719 1.66809L15.6172 1.66809C16.1145 1.66809 16.5914 1.82627 16.943 2.10784C17.2946 2.3894 17.4922 2.77128 17.4922 3.16947L17.4922 10.9766C17.4922 11.3748 17.2946 11.7567 16.943 12.0383C16.5914 12.3198 16.1145 12.478 15.6172 12.478L13.7422 12.478" stroke="white" stroke-width="1.75" stroke-linecap="round" stroke-linejoin="round"/>
<path d="M6.24219 15.3389L9.99219 18.8936L13.7422 15.3389" stroke="white" stroke-width="1.75" stroke-linecap="round" stroke-linejoin="round"/>
<path d="M9.99219 7.82031L9.99219 18.1821" stroke="white" stroke-width="1.75" stroke-linecap="round" stroke-linejoin="round"/>
</svg>
