<svg width="9" height="6" viewBox="0 0 9 6" fill="none" xmlns="http://www.w3.org/2000/svg">
<path d="M5.1688 5.19968L8.1688 2.19969C8.3571 2.01138 8.46289 1.75599 8.46289 1.48969C8.46289 1.22338 8.3571 0.967989 8.1688 0.779685C7.9805 0.591381 7.7251 0.485594 7.4588 0.485594C7.1925 0.485594 6.9371 0.591381 6.7488 0.779685L4.4588 3.07969L2.1688 0.779685C2.07584 0.685957 1.96523 0.611563 1.84338 0.560794C1.72152 0.510025 1.59081 0.483887 1.4588 0.483887C1.32679 0.483887 1.19608 0.510025 1.07422 0.560794C0.952363 0.611563 0.841762 0.685957 0.748799 0.779685C0.65507 0.872648 0.580677 0.983249 0.529908 1.10511C0.479139 1.22697 0.453 1.35767 0.453 1.48969C0.453 1.6217 0.479139 1.7524 0.529908 1.87426C0.580677 1.99612 0.65507 2.10672 0.748799 2.19969L3.7488 5.19968C3.83909 5.29608 3.94759 5.37363 4.06802 5.42786C4.18845 5.48209 4.31844 5.51193 4.45046 5.51565C4.58249 5.51937 4.71394 5.4969 4.83724 5.44953C4.96053 5.40217 5.07322 5.33084 5.1688 5.23969V5.19968Z" fill="white"/>
</svg>
