<svg width="24" height="24" viewBox="0 0 24 24" fill="none" xmlns="http://www.w3.org/2000/svg">
<path d="M8 12.2H15" stroke="white" stroke-width="1.125" stroke-miterlimit="10" stroke-linecap="round" stroke-linejoin="round"/>
<path d="M8 16.2001H12.38" stroke="white" stroke-width="1.125" stroke-miterlimit="10" stroke-linecap="round" stroke-linejoin="round"/>
<path d="M10 5.99988H14C16 5.99988 16 4.99988 16 3.99988C16 1.99988 15 1.99988 14 1.99988H10C9 1.99988 8 1.99988 8 3.99988C8 5.99988 9 5.99988 10 5.99988Z" stroke="white" stroke-width="1.125" stroke-miterlimit="10" stroke-linecap="round" stroke-linejoin="round"/>
<path d="M16 4.0199C19.33 4.1999 21 5.4299 21 9.9999V15.9999C21 19.9999 20 21.9999 15 21.9999H9C4 21.9999 3 19.9999 3 15.9999V9.9999C3 5.4399 4.67 4.1999 8 4.0199" stroke="white" stroke-width="1.125" stroke-miterlimit="10" stroke-linecap="round" stroke-linejoin="round"/>
</svg>
