<svg width="16" height="16" viewBox="0 0 16 16" fill="none" xmlns="http://www.w3.org/2000/svg">
<mask id="path-1-inside-1_3064_19471" fill="white">
<path fill-rule="evenodd" clip-rule="evenodd" d="M7.50163 1.3335C3.81973 1.3335 0.834961 4.31826 0.834961 8.00016C0.834961 9.12001 1.11107 10.1754 1.59893 11.1019C1.69326 11.281 1.71309 11.4917 1.64121 11.681L0.984205 13.411C0.752222 14.0219 1.38462 14.6103 2.04113 14.3944L3.7918 13.8188C3.97559 13.7584 4.17568 13.7825 4.34604 13.8742C5.28542 14.3799 6.36002 14.6668 7.50164 14.6668H8.49829C12.1802 14.6668 15.165 11.6821 15.165 8.00016C15.165 4.31826 12.1802 1.3335 8.49829 1.3335H7.50163Z"/>
</mask>
<path d="M0.984205 13.411L0.0493501 13.056H0.0493501L0.984205 13.411ZM2.04113 14.3944L1.72879 13.4444H1.72879L2.04113 14.3944ZM4.34604 13.8742L4.82006 12.9937L4.34604 13.8742ZM1.59893 11.1019L2.48376 10.636L1.59893 11.1019ZM1.83496 8.00016C1.83496 4.87055 4.37201 2.3335 7.50163 2.3335V0.333496C3.26745 0.333496 -0.165039 3.76598 -0.165039 8.00016H1.83496ZM2.48376 10.636C2.06972 9.84965 1.83496 8.95379 1.83496 8.00016H-0.165039C-0.165039 9.28623 0.152423 10.5011 0.714103 11.5678L2.48376 10.636ZM1.91906 13.766L2.57607 12.036L0.706357 11.326L0.0493501 13.056L1.91906 13.766ZM1.72879 13.4444C1.76449 13.4327 1.8191 13.4419 1.86067 13.4806C1.88183 13.5003 1.9097 13.5365 1.92504 13.5937C1.94193 13.6567 1.93642 13.7203 1.91906 13.766L0.0493501 13.056C-0.229277 13.7896 0.0288176 14.508 0.498291 14.9448C0.962186 15.3765 1.66125 15.572 2.35346 15.3444L1.72879 13.4444ZM3.47947 12.8689L1.72879 13.4444L2.35346 15.3444L4.10413 14.7688L3.47947 12.8689ZM7.50164 13.6668C6.52952 13.6668 5.61735 13.4229 4.82006 12.9937L3.87202 14.7547C4.95349 15.3369 6.19052 15.6668 7.50164 15.6668V13.6668ZM8.49829 13.6668H7.50164V15.6668H8.49829V13.6668ZM14.165 8.00016C14.165 11.1298 11.6279 13.6668 8.49829 13.6668V15.6668C12.7325 15.6668 16.165 12.2343 16.165 8.00016H14.165ZM8.49829 2.3335C11.6279 2.3335 14.165 4.87055 14.165 8.00016H16.165C16.165 3.76598 12.7325 0.333496 8.49829 0.333496V2.3335ZM7.50163 2.3335H8.49829V0.333496H7.50163V2.3335ZM4.10413 14.7688C4.0047 14.8015 3.92131 14.7812 3.87202 14.7547L4.82006 12.9937C4.43005 12.7837 3.94648 12.7153 3.47947 12.8689L4.10413 14.7688ZM0.714103 11.5678C0.687019 11.5163 0.667427 11.4285 0.706357 11.326L2.57607 12.036C2.75875 11.555 2.69949 11.0457 2.48376 10.636L0.714103 11.5678Z" fill="white" mask="url(#path-1-inside-1_3064_19471)"/>
<circle cx="4.70003" cy="8.03304" r="0.833333" fill="white"/>
<circle cx="8.03353" cy="8.03304" r="0.833333" fill="white"/>
<circle cx="11.3665" cy="8.03304" r="0.833333" fill="white"/>
</svg>
