<svg width="31" height="30" viewBox="0 0 31 30" fill="none" xmlns="http://www.w3.org/2000/svg">
<mask id="path-2-inside-1_229_52732" fill="white">
<path fill-rule="evenodd" clip-rule="evenodd" d="M14.3588 4.375C8.91392 4.375 4.5 8.78892 4.5 14.2338C4.5 15.89 4.9084 17.4508 5.63 18.821C5.7695 19.086 5.79884 19.3976 5.69254 19.6775L4.72127 22.235C4.37821 23.1384 5.31341 24.0085 6.28427 23.6893L8.8724 22.8384C9.1442 22.749 9.44011 22.7846 9.69203 22.9202C11.0813 23.6681 12.6705 24.0925 14.3588 24.0925H15.8327C21.2775 24.0925 25.6914 19.6786 25.6914 14.2338C25.6914 8.78892 21.2775 4.375 15.8326 4.375H14.3588Z"/>
</mask>
<path d="M4.72127 22.235L3.3388 21.71H3.3388L4.72127 22.235ZM6.28427 23.6893L6.74615 25.0941L6.74615 25.0941L6.28427 23.6893ZM8.8724 22.8384L9.33428 24.2432L8.8724 22.8384ZM9.69203 22.9202L10.393 21.6181L9.69203 22.9202ZM5.63 18.821L6.93846 18.132L5.63 18.821ZM5.97881 14.2338C5.97881 9.60565 9.73065 5.85381 14.3588 5.85381V2.89619C8.09719 2.89619 3.02119 7.97219 3.02119 14.2338H5.97881ZM6.93846 18.132C6.32606 16.9691 5.97881 15.6442 5.97881 14.2338H3.02119C3.02119 16.1358 3.49075 17.9325 4.32153 19.5101L6.93846 18.132ZM6.10375 22.76L7.07502 20.2025L4.31007 19.1525L3.3388 21.71L6.10375 22.76ZM5.82238 22.2845C5.87518 22.2671 5.95593 22.2808 6.0174 22.338C6.0487 22.3671 6.08991 22.4207 6.11259 22.5052C6.13758 22.5984 6.12942 22.6925 6.10375 22.76L3.3388 21.71C2.92676 22.795 3.30843 23.8573 4.0027 24.5033C4.68872 25.1416 5.7225 25.4307 6.74615 25.0941L5.82238 22.2845ZM8.41051 21.4335L5.82238 22.2845L6.74615 25.0941L9.33428 24.2432L8.41051 21.4335ZM14.3588 22.6137C12.9211 22.6137 11.5721 22.2529 10.393 21.6181L8.99102 24.2223C10.5904 25.0834 12.4198 25.5713 14.3588 25.5713V22.6137ZM15.8327 22.6137H14.3588V25.5713H15.8327V22.6137ZM24.2126 14.2338C24.2126 18.8619 20.4608 22.6137 15.8327 22.6137V25.5713C22.0942 25.5713 27.1702 20.4953 27.1702 14.2338H24.2126ZM15.8326 5.85381C20.4608 5.85381 24.2126 9.60565 24.2126 14.2338H27.1702C27.1702 7.97219 22.0942 2.89619 15.8326 2.89619V5.85381ZM14.3588 5.85381H15.8326V2.89619H14.3588V5.85381ZM9.33428 24.2432C9.18724 24.2916 9.06392 24.2616 8.99102 24.2223L10.393 21.6181C9.81629 21.3076 9.10116 21.2065 8.41051 21.4335L9.33428 24.2432ZM4.32153 19.5101C4.28147 19.434 4.25249 19.3041 4.31007 19.1525L7.07502 20.2025C7.34519 19.4911 7.25754 18.7379 6.93846 18.132L4.32153 19.5101Z" fill="#FF4FCE" mask="url(#path-2-inside-1_229_52732)"/>
<circle cx="10.2167" cy="14.2822" r="1.23235" fill="#FF4FCE"/>
<circle cx="15.1464" cy="14.2822" r="1.23235" fill="#FF4FCE"/>
<circle cx="20.0761" cy="14.2822" r="1.23235" fill="#FF4FCE"/>
</svg>
