<svg width="39" height="33" viewBox="0 0 39 33" fill="none" xmlns="http://www.w3.org/2000/svg">
<g filter="url(#filter0_d_94_43632)">
<path fill-rule="evenodd" clip-rule="evenodd" d="M19.6064 25.3896C19.512 25.391 19.4174 25.3917 19.3226 25.3917C10.8601 25.3917 4 19.7076 4 12.6958C4 5.68412 10.8601 0 19.3226 0C27.785 0 34.6451 5.68412 34.6451 12.6958C34.6451 14.4691 34.2064 16.1575 33.4139 17.6905C32.3506 19.8578 30.7095 21.792 28.9294 23.4606C26.2171 26.0029 23.0789 27.9221 20.8442 29.0037C20.253 29.2898 19.6064 28.8418 19.6064 28.2179V25.3896ZM14.0691 13.3525C14.0691 14.5614 13.0891 15.5415 11.8802 15.5415C10.6713 15.5415 9.69124 14.5614 9.69124 13.3525C9.69124 12.1436 10.6713 11.1636 11.8802 11.1636C13.0891 11.1636 14.0691 12.1436 14.0691 13.3525ZM19.3226 15.5415C20.5315 15.5415 21.5115 14.5614 21.5115 13.3525C21.5115 12.1436 20.5315 11.1636 19.3226 11.1636C18.1137 11.1636 17.1336 12.1436 17.1336 13.3525C17.1336 14.5614 18.1137 15.5415 19.3226 15.5415ZM28.9539 13.3525C28.9539 14.5614 27.9739 15.5415 26.765 15.5415C25.556 15.5415 24.576 14.5614 24.576 13.3525C24.576 12.1436 25.556 11.1636 26.765 11.1636C27.9739 11.1636 28.9539 12.1436 28.9539 13.3525Z" fill="white"/>
<path fill-rule="evenodd" clip-rule="evenodd" d="M19.3226 25.3917C27.785 25.3917 34.6451 19.7076 34.6451 12.6958C34.6451 5.68412 27.785 0 19.3226 0C10.8601 0 4 5.68412 4 12.6958C4 19.7076 10.8601 25.3917 19.3226 25.3917ZM11.8802 15.5415C13.0891 15.5415 14.0691 14.5614 14.0691 13.3525C14.0691 12.1436 13.0891 11.1636 11.8802 11.1636C10.6713 11.1636 9.69124 12.1436 9.69124 13.3525C9.69124 14.5614 10.6713 15.5415 11.8802 15.5415ZM21.5115 13.3525C21.5115 14.5614 20.5315 15.5415 19.3226 15.5415C18.1137 15.5415 17.1336 14.5614 17.1336 13.3525C17.1336 12.1436 18.1137 11.1636 19.3226 11.1636C20.5315 11.1636 21.5115 12.1436 21.5115 13.3525ZM26.765 15.5415C27.9739 15.5415 28.9539 14.5614 28.9539 13.3525C28.9539 12.1436 27.9739 11.1636 26.765 11.1636C25.556 11.1636 24.576 12.1436 24.576 13.3525C24.576 14.5614 25.556 15.5415 26.765 15.5415Z" fill="white"/>
</g>
<defs>
<filter id="filter0_d_94_43632" x="0.497698" y="-3.21336" width="37.6491" height="36.0966" filterUnits="userSpaceOnUse" color-interpolation-filters="sRGB">
<feFlood flood-opacity="0" result="BackgroundImageFix"/>
<feColorMatrix in="SourceAlpha" type="matrix" values="0 0 0 0 0 0 0 0 0 0 0 0 0 0 0 0 0 0 127 0" result="hardAlpha"/>
<feOffset dy="0.28894"/>
<feGaussianBlur stdDeviation="1.75115"/>
<feColorMatrix type="matrix" values="0 0 0 0 0 0 0 0 0 0 0 0 0 0 0 0 0 0 0.1 0"/>
<feBlend mode="normal" in2="BackgroundImageFix" result="effect1_dropShadow_94_43632"/>
<feBlend mode="normal" in="SourceGraphic" in2="effect1_dropShadow_94_43632" result="shape"/>
</filter>
</defs>
</svg>
