<svg width="40" height="40" viewBox="0 0 40 40" fill="none" xmlns="http://www.w3.org/2000/svg">
<mask id="path-1-inside-1_32_25883" fill="white">
<path fill-rule="evenodd" clip-rule="evenodd" d="M18.7536 3.33496C9.54883 3.33496 2.08691 10.7969 2.08691 20.0016C2.08691 22.8013 2.77723 25.4398 3.99695 27.7561C4.23277 28.2039 4.28235 28.7308 4.10266 29.2039L2.46069 33.5275C1.88073 35.0546 3.46172 36.5257 5.103 35.986L9.47785 34.5477C9.93738 34.3966 10.4376 34.4568 10.8636 34.6861C13.2123 35.9507 15.8991 36.6683 18.7536 36.6683H21.2453C30.45 36.6683 37.9119 29.2064 37.9119 20.0016C37.9119 10.7969 30.45 3.33496 21.2452 3.33496H18.7536Z"/>
</mask>
<path d="M2.46069 33.5275L4.3304 34.2376L2.46069 33.5275ZM5.103 35.986L5.72766 37.886L5.72766 37.886L5.103 35.986ZM9.47785 34.5477L8.85318 32.6477L9.47785 34.5477ZM3.99695 27.7561L2.2273 28.688L3.99695 27.7561ZM4.10266 29.2039L5.97237 29.914L4.10266 29.2039ZM4.08691 20.0016C4.08691 11.9015 10.6534 5.33496 18.7536 5.33496V1.33496C8.44426 1.33496 0.0869141 9.69231 0.0869141 20.0016H4.08691ZM5.76659 26.8243C4.69453 24.7883 4.08691 22.4689 4.08691 20.0016H0.0869141C0.0869141 23.1338 0.859938 26.0913 2.2273 28.688L5.76659 26.8243ZM4.3304 34.2376L5.97237 29.914L2.23295 28.4939L0.590981 32.8174L4.3304 34.2376ZM4.47833 34.0861C4.42218 34.1046 4.38836 34.1007 4.36844 34.0961C4.34189 34.0899 4.32158 34.0772 4.31126 34.0676C4.30079 34.0578 4.31762 34.0683 4.32983 34.1138C4.3361 34.1372 4.33934 34.1642 4.33801 34.1915C4.33737 34.2046 4.33576 34.2157 4.33396 34.2243C4.33307 34.2285 4.33221 34.2318 4.33153 34.2341C4.33119 34.2352 4.33091 34.2361 4.33071 34.2367C4.33051 34.2373 4.3304 34.2376 4.3304 34.2376L0.590981 32.8174C-0.0242705 34.4375 0.541975 36.0241 1.5865 36.996C2.61988 37.9575 4.17912 38.3951 5.72766 37.886L4.47833 34.0861ZM8.85318 32.6477L4.47833 34.0861L5.72766 37.886L10.1025 36.4476L8.85318 32.6477ZM18.7536 34.6683C16.2382 34.6683 13.8762 34.0367 11.8117 32.9251L9.9154 36.447C12.5483 37.8647 15.5601 38.6683 18.7536 38.6683V34.6683ZM21.2453 34.6683H18.7536V38.6683H21.2453V34.6683ZM35.9119 20.0016C35.9119 28.1018 29.3454 34.6683 21.2453 34.6683V38.6683C31.5546 38.6683 39.9119 30.3109 39.9119 20.0016H35.9119ZM21.2452 5.33496C29.3454 5.33496 35.9119 11.9015 35.9119 20.0016H39.9119C39.9119 9.69231 31.5546 1.33496 21.2452 1.33496V5.33496ZM18.7536 5.33496H21.2452V1.33496H18.7536V5.33496ZM10.1025 36.4476C9.99555 36.4828 9.92881 36.4543 9.9154 36.447L11.8117 32.9251C10.9465 32.4592 9.87921 32.3104 8.85318 32.6477L10.1025 36.4476ZM2.2273 28.688C2.2203 28.6747 2.19103 28.6043 2.23295 28.4939L5.97237 29.914C6.37368 28.8573 6.24524 27.7332 5.76659 26.8243L2.2273 28.688Z" fill="#F5B060" mask="url(#path-1-inside-1_32_25883)"/>
<circle cx="11.7513" cy="20.0814" r="2.08333" fill="#F5B060"/>
<circle cx="20.0838" cy="20.0814" r="2.08333" fill="#F5B060"/>
<circle cx="28.4188" cy="20.0814" r="2.08333" fill="#F5B060"/>
</svg>
