<svg width="18" height="18" viewBox="0 0 18 18" fill="none" xmlns="http://www.w3.org/2000/svg">
<path d="M7.59996 9.80001C7.94353 10.2593 8.38185 10.6394 8.8852 10.9144C9.38856 11.1894 9.94517 11.3529 10.5173 11.3939C11.0894 11.4348 11.6636 11.3523 12.201 11.1518C12.7384 10.9514 13.2265 10.6377 13.632 10.232L16.032 7.83201C16.7606 7.0776 17.1638 6.06719 17.1547 5.0184C17.1455 3.96962 16.7249 2.96637 15.9832 2.22473C15.2416 1.4831 14.2384 1.06243 13.1896 1.05331C12.1408 1.0442 11.1304 1.44738 10.376 2.17601L8.99996 3.54401M10.8 8.20001C10.4564 7.7407 10.0181 7.36066 9.51472 7.08566C9.01137 6.81065 8.45476 6.64711 7.88264 6.60614C7.31053 6.56517 6.73629 6.64771 6.19889 6.84818C5.66148 7.04865 5.17347 7.36235 4.76796 7.76801L2.36796 10.168C1.63933 10.9224 1.23615 11.9328 1.24527 12.9816C1.25438 14.0304 1.67506 15.0336 2.41669 15.7753C3.15832 16.5169 4.16157 16.9376 5.21036 16.9467C6.25915 16.9558 7.26955 16.5526 8.02396 15.824L9.39196 14.456" stroke="white" stroke-width="1.4" stroke-linecap="round" stroke-linejoin="round"/>
</svg>
