<svg width="57" height="49" viewBox="0 0 57 49" fill="none" xmlns="http://www.w3.org/2000/svg">
<g clip-path="url(#clip0_2818_10874)">
<path d="M34.2301 10.8036L34.7301 9.93762L33.8641 9.43762L33.3641 10.3036L34.2301 10.8036ZM14.1787 58.3895C13.9025 58.8678 14.0664 59.4794 14.5447 59.7555C15.023 60.0316 15.6346 59.8678 15.9107 59.3895L14.1787 58.3895ZM-2.51867 -17.6276L31.9032 2.24581L32.9032 0.513762L-1.51867 -19.3597L-2.51867 -17.6276ZM-37.2299 31.9072L-9.74962 -15.6901L-11.4817 -16.6901L-38.962 30.9072L-37.2299 31.9072ZM10.9894 65.859L-35.2924 39.1381L-36.2924 40.8702L9.98945 67.591L10.9894 65.859ZM33.8407 9.47677L7.03657 55.9029L8.76862 56.9029L35.5727 10.4768L33.8407 9.47677ZM-38.962 30.9072C-40.976 34.3956 -39.7808 38.8561 -36.2924 40.8702L-35.2924 39.1381C-37.8242 37.6764 -38.6917 34.439 -37.2299 31.9072L-38.962 30.9072ZM31.9032 2.24581C34.435 3.70755 35.3024 6.94496 33.8407 9.47677L35.5727 10.4768C37.5868 6.98838 36.3916 2.52779 32.9032 0.513762L31.9032 2.24581ZM-1.51867 -19.3597C-5.00706 -21.3737 -9.46764 -20.1785 -11.4817 -16.6901L-9.74962 -15.6901C-8.28788 -18.2219 -5.05047 -19.0894 -2.51867 -17.6276L-1.51867 -19.3597ZM33.7301 11.6697L34.7126 12.2369L35.7126 10.5048L34.7301 9.93762L33.7301 11.6697ZM8.66025 57.092L35.0961 11.3036L33.3641 10.3036L6.9282 56.092L8.66025 57.092ZM36.6501 19.4678L14.1787 58.3895L15.9107 59.3895L38.3821 20.4678L36.6501 19.4678ZM11.013 65.8726C7.93862 64.0976 6.88525 60.1663 8.66025 57.092L6.9282 56.092C4.60091 60.1229 5.98203 65.2773 10.013 67.6046L11.013 65.8726ZM34.7126 12.2369C37.2444 13.6986 38.1118 16.936 36.6501 19.4678L38.3821 20.4678C40.3962 16.9795 39.2009 12.5189 35.7126 10.5048L34.7126 12.2369ZM37.4083 20.1518L38.3908 20.719L39.3908 18.987L38.4083 18.4198L37.4083 20.1518ZM40.3283 27.95L19.7924 63.5191L21.5245 64.5191L42.0603 28.95L40.3283 27.95ZM19.7924 63.5191C18.0173 66.5937 14.0872 67.6474 11.013 65.8726L10.013 67.6046C14.0442 69.932 19.1973 68.5499 21.5245 64.5191L19.7924 63.5191ZM38.3908 20.719C40.9226 22.1808 41.79 25.4182 40.3283 27.95L42.0603 28.95C44.0744 25.4616 42.8791 21.001 39.3908 18.987L38.3908 20.719ZM-3.68279 -3.57215L5.26288 1.59264L6.26288 -0.139411L-2.68279 -5.3042L-3.68279 -3.57215ZM6.04864 4.52511L0.883849 13.4708L2.6159 14.4708L7.78069 5.52511L6.04864 4.52511ZM-2.04862 14.2565L-10.9943 9.09175L-11.9943 10.8238L-3.04862 15.9886L-2.04862 14.2565ZM-11.7801 6.15928L-6.61526 -2.7864L-8.34731 -3.7864L-13.5121 5.15928L-11.7801 6.15928ZM-10.9943 9.09175C-12.0211 8.49895 -12.3729 7.18604 -11.7801 6.15928L-13.5121 5.15928C-14.6572 7.14262 -13.9776 9.67872 -11.9943 10.8238L-10.9943 9.09175ZM0.883849 13.4708C0.29105 14.4975 -1.02186 14.8493 -2.04862 14.2565L-3.04862 15.9886C-1.06527 17.1337 1.47082 16.4541 2.6159 14.4708L0.883849 13.4708ZM5.26288 1.59264C6.28964 2.18544 6.64144 3.49835 6.04864 4.52511L7.78069 5.52511C8.92577 3.54176 8.24622 1.00567 6.26288 -0.139411L5.26288 1.59264ZM-2.68279 -5.3042C-4.66614 -6.44929 -7.20223 -5.76974 -8.34731 -3.7864L-6.61526 -2.7864C-6.02246 -3.81315 -4.70955 -4.16495 -3.68279 -3.57215L-2.68279 -5.3042Z" fill="white"/>
<path d="M13.5809 6.38184L24.7783 12.8467" stroke="white" stroke-width="2" stroke-linecap="round"/>
<path d="M6.80804 18.1113L18.0055 24.5762" stroke="white" stroke-width="2" stroke-linecap="round"/>
<path d="M-20.2463 18.1267L11.2383 36.3043" stroke="white" stroke-width="2" stroke-linecap="round"/>
<path d="M-27.0191 29.8501L4.46549 48.0277" stroke="white" stroke-width="2" stroke-linecap="round"/>
</g>
<defs>
<clipPath id="clip0_2818_10874">
<rect width="75.5211" height="75.5211" fill="white" transform="translate(-8.67969 -26.9443) rotate(30)"/>
</clipPath>
</defs>
</svg>
