<svg width="48" height="48" viewBox="0 0 48 48" fill="none" xmlns="http://www.w3.org/2000/svg">
<path d="M14.9766 29.9473L10.4766 29.9473C9.28309 29.9473 8.1385 29.5676 7.29458 28.8919C6.45067 28.2161 5.97656 27.2996 5.97656 26.344L5.97657 7.60673C5.97657 6.65107 6.45067 5.73456 7.29459 5.0588C8.1385 4.38305 9.28309 4.00342 10.4766 4.00342L37.4766 4.00342C38.67 4.00342 39.8146 4.38305 40.6585 5.05881C41.5025 5.73456 41.9766 6.65107 41.9766 7.60673L41.9766 26.344C41.9766 27.2996 41.5025 28.2161 40.6585 28.8919C39.8146 29.5676 38.67 29.9473 37.4766 29.9473L32.9766 29.9473" stroke="white" stroke-width="0.75" stroke-linecap="round" stroke-linejoin="round"/>
<path d="M14.9844 36.813L23.9844 45.3444L32.9844 36.813" stroke="white" stroke-width="0.75" stroke-linecap="round" stroke-linejoin="round"/>
<path d="M23.9844 18.769L23.9844 43.6373" stroke="white" stroke-width="0.75" stroke-linecap="round" stroke-linejoin="round"/>
</svg>
