<svg width="32" height="34" viewBox="0 0 32 34" fill="none" xmlns="http://www.w3.org/2000/svg">
<path d="M27.0491 20.1112V28.723C27.0491 30.744 25.508 32.3843 23.6092 32.3843H7.19384C5.295 32.3843 3.75391 30.744 3.75391 28.723V15.2267V8.67577V5.37879C3.75391 3.35778 5.295 1.71753 7.19384 1.71753H22.1168" stroke="white" stroke-width="1.6" stroke-miterlimit="10" stroke-linecap="round" stroke-linejoin="round"/>
<path d="M27.0493 1.87891L27.0493 12.0744" stroke="white" stroke-width="1.6" stroke-linecap="round" stroke-linejoin="round"/>
<path d="M12.6357 5.66528L12.6357 15.8608" stroke="white" stroke-width="1.6" stroke-linecap="round" stroke-linejoin="round"/>
<path d="M18.4595 5.66528L18.4595 15.8608" stroke="white" stroke-width="1.6" stroke-linecap="round" stroke-linejoin="round"/>
<path d="M21.0835 9.51013L7.47607 9.51013" stroke="white" stroke-width="1.6" stroke-linecap="round" stroke-linejoin="round"/>
<path d="M21.0835 13.1498L7.47607 13.1498" stroke="white" stroke-width="1.6" stroke-linecap="round" stroke-linejoin="round"/>
<path d="M29.6143 9.51013L27.0496 12.0748L24.4849 9.51013" stroke="white" stroke-width="1.6" stroke-linecap="round" stroke-linejoin="round"/>
<path d="M6.27979 28.2078L7.90845 24.313L6.28693 20.4183H7.59414L8.67277 23.113L9.75855 20.4183H11.0729L9.42281 24.313L11.0729 28.2078H9.75855L8.67277 25.5025L7.59414 28.2078H6.27979Z" fill="white"/>
<path d="M11.5303 28.2078V20.4183H12.6304V26.7972H15.2162V28.2078H11.5303Z" fill="white"/>
<path d="M17.6918 28.3129C17.3489 28.3129 17.056 28.2532 16.8132 28.1339C16.575 28.0076 16.375 27.8497 16.2131 27.6602C16.056 27.4637 15.9298 27.2602 15.8345 27.0497C15.7393 26.8322 15.6679 26.6287 15.6202 26.4392C15.5774 26.2427 15.5488 26.0848 15.5345 25.9655C15.525 25.8392 15.5202 25.776 15.5202 25.776H16.6346C16.6346 25.776 16.6441 25.8357 16.6631 25.955C16.687 26.0743 16.7346 26.2146 16.806 26.376C16.8774 26.5304 16.987 26.6673 17.1346 26.7866C17.2822 26.8988 17.4822 26.955 17.7346 26.955C18.0442 26.955 18.2728 26.8602 18.4204 26.6708C18.568 26.4743 18.6418 26.2427 18.6418 25.976C18.6418 25.7374 18.5847 25.548 18.4704 25.4076C18.3609 25.2673 18.1894 25.162 17.9561 25.0918L17.2489 24.8918C16.9632 24.8146 16.6965 24.6918 16.4488 24.5234C16.206 24.355 16.0083 24.1234 15.856 23.8287C15.7036 23.5269 15.6274 23.1409 15.6274 22.6708C15.6274 22.1936 15.7083 21.7795 15.8702 21.4287C16.0322 21.0708 16.2584 20.7971 16.5489 20.6076C16.8441 20.4111 17.1894 20.3129 17.5846 20.3129C17.9561 20.3129 18.2632 20.3936 18.5061 20.555C18.7537 20.7094 18.949 20.9023 19.0919 21.1339C19.2395 21.3585 19.3466 21.5866 19.4133 21.8181C19.4847 22.0497 19.53 22.2427 19.549 22.3971C19.5728 22.5515 19.5847 22.6287 19.5847 22.6287H18.499C18.499 22.6287 18.4894 22.5795 18.4704 22.4813C18.4561 22.383 18.418 22.2708 18.3561 22.1444C18.2942 22.0181 18.1989 21.9058 18.0704 21.8076C17.9466 21.7094 17.7751 21.6602 17.5561 21.6602C17.256 21.6602 17.0394 21.7585 16.906 21.955C16.7727 22.1444 16.706 22.3515 16.706 22.576C16.706 22.8076 16.7727 22.9866 16.906 23.1129C17.0394 23.2392 17.2132 23.3339 17.4275 23.3971L18.1775 23.6181C18.4632 23.6953 18.7252 23.8251 18.9633 24.0076C19.2014 24.1901 19.3895 24.4357 19.5276 24.7444C19.6705 25.0462 19.7419 25.4216 19.7419 25.8708C19.7419 26.3339 19.6633 26.7515 19.5062 27.1234C19.349 27.4883 19.118 27.7795 18.8133 27.9971C18.5085 28.2076 18.1347 28.3129 17.6918 28.3129Z" fill="white"/>
<path d="M19.6917 28.2078L21.3204 24.313L19.6989 20.4183H21.0061L22.0847 23.113L23.1705 20.4183H24.4849L22.8348 24.313L24.4849 28.2078H23.1705L22.0847 25.5025L21.0061 28.2078H19.6917Z" fill="white"/>
<path d="M21.7817 5.66528H11.1357H8.9827C8.15061 5.66528 7.47607 6.25595 7.47607 6.98458V15.5671C7.47607 16.2957 8.15061 16.8864 8.9827 16.8864H21.7817C22.6138 16.8864 23.2883 16.2957 23.2883 15.5671" stroke="white" stroke-width="1.6"/>
</svg>
