<svg width="57" height="48" viewBox="0 0 57 48" fill="none" xmlns="http://www.w3.org/2000/svg">
<g clip-path="url(#clip0_2818_10757)">
<path d="M-3.47875 60.5163L-22.1382 49.7432C-37.6878 40.7656 -40.3166 30.9548 -31.3391 15.4052L-20.566 -3.25428C-11.5885 -18.8039 -1.77761 -21.4327 13.772 -12.4551L32.4315 -1.68205C47.981 7.2955 50.6098 17.1064 41.6323 32.6559L30.8592 51.3154C21.8817 66.865 12.0708 69.4938 -3.47875 60.5163Z" stroke="white" stroke-width="2.36004" stroke-linecap="round" stroke-linejoin="round"/>
<path d="M9.98228 27.647L9.39227 28.669L10.4142 29.259L18.3788 33.8573C18.3766 33.8676 18.374 33.8788 18.3707 33.8908C18.3607 33.928 18.3464 33.9683 18.3278 34.0099L13.9268 38.9169C13.9181 38.9155 13.9097 38.914 13.9016 38.9124C13.9004 38.9121 13.8992 38.9119 13.898 38.9116L7.10544 34.9899L6.08351 34.3999L5.4935 35.4218L-7.02372 57.1023L-14.3096 52.8958L-1.97195 31.5263L-1.38194 30.5044L-2.40386 29.9144L-7.60177 26.9134L-4.29301 21.1824L0.904898 24.1834L1.92682 24.7734L2.51683 23.7515L8.44202 13.4888C11.1685 8.76634 16.8239 7.25099 21.5464 9.9775L29.8542 14.774L25.6477 22.0599L18.2728 17.8021C17.8043 17.5316 17.1972 17.3381 16.543 17.5134C15.8888 17.6887 15.4598 18.1598 15.1893 18.6283L9.98228 27.647Z" fill="white" stroke="white" stroke-width="2.36004" stroke-miterlimit="10" stroke-linecap="round"/>
</g>
<defs>
<clipPath id="clip0_2818_10757">
<rect width="75.5211" height="75.5211" fill="white" transform="translate(-8.67969 -27.5527) rotate(30)"/>
</clipPath>
</defs>
</svg>
