<svg width="20" height="20" viewBox="0 0 20 20" fill="none" xmlns="http://www.w3.org/2000/svg">
<g clip-path="url(#clip0_48_2432)">
<path d="M12.8532 19.5099H7.14722C2.39223 19.5099 0.490234 17.6079 0.490234 12.853V7.14697C0.490234 2.39199 2.39223 0.48999 7.14722 0.48999H12.8532C17.6082 0.48999 19.5102 2.39199 19.5102 7.14697V12.853C19.5102 17.6079 17.6082 19.5099 12.8532 19.5099Z" fill="#4599E6"/>
<path d="M11.9024 7.43273V10.1906H14.375C14.5652 10.1906 14.6603 10.3808 14.6603 10.571L14.2799 12.3779C14.2799 12.473 14.0897 12.5681 13.9946 12.5681H11.9024V19.5104H9.04946V12.6632H7.43276C7.24256 12.6632 7.14746 12.5681 7.14746 12.3779V10.571C7.14746 10.3808 7.24256 10.2857 7.43276 10.2857H9.04946V7.14743C9.04946 5.53073 10.2858 4.29443 11.9024 4.29443H14.4701C14.6603 4.29443 14.7554 4.38953 14.7554 4.57973V6.86213C14.7554 7.05233 14.6603 7.14743 14.4701 7.14743H12.1877C11.9975 7.14743 11.9024 7.24253 11.9024 7.43273Z" fill="white" stroke="white" stroke-width="0.625" stroke-miterlimit="10" stroke-linecap="round"/>
</g>
<defs>
<clipPath id="clip0_48_2432">
<rect width="20" height="20" fill="white" transform="translate(0.000488281)"/>
</clipPath>
</defs>
</svg>
