<svg width="20" height="20" viewBox="0 0 20 20" fill="none" xmlns="http://www.w3.org/2000/svg">
<g clip-path="url(#clip0_222_104519)">
<path d="M12.8552 19.5102H7.14917C2.39418 19.5102 0.492188 17.6082 0.492188 12.8532V7.14722C0.492188 2.39223 2.39418 0.490234 7.14917 0.490234H12.8552C17.6101 0.490234 19.5121 2.39223 19.5121 7.14722V12.8532C19.5121 17.6082 17.6101 19.5102 12.8552 19.5102Z" fill="#3D8BFF"/>
<path d="M11.9034 7.43224V10.1901H14.376C14.5662 10.1901 14.6613 10.3803 14.6613 10.5705L14.2809 12.3774C14.2809 12.4725 14.0907 12.5676 13.9956 12.5676H11.9034V19.5099H9.05043V12.6627H7.43374C7.24354 12.6627 7.14844 12.5676 7.14844 12.3774V10.5705C7.14844 10.3803 7.24354 10.2852 7.43374 10.2852H9.05043V7.14694C9.05043 5.53024 10.2867 4.29395 11.9034 4.29395H14.4711C14.6613 4.29395 14.7564 4.38905 14.7564 4.57924V6.86164C14.7564 7.05184 14.6613 7.14694 14.4711 7.14694H12.1887C11.9985 7.14694 11.9034 7.24204 11.9034 7.43224Z" fill="white" stroke="white" stroke-width="0.625" stroke-miterlimit="10" stroke-linecap="round"/>
</g>
<defs>
<clipPath id="clip0_222_104519">
<rect width="20" height="20" fill="white"/>
</clipPath>
</defs>
</svg>
