<svg width="16" height="16" viewBox="0 0 16 16" fill="none" xmlns="http://www.w3.org/2000/svg">
<path d="M7.89751 2.0012C6.81559 2.02679 5.79426 2.46643 5.02203 3.23865C4.24913 4.01088 3.80949 5.03221 3.78324 6.11346C3.73207 8.2322 5.25228 10.052 7.33265 10.3819V11.5332H6.92735C6.55975 11.5332 6.26015 11.8321 6.26015 12.2004C6.26015 12.5687 6.55908 12.8676 6.92735 12.8676H7.33265V13.3328C7.33265 13.7004 7.63158 14 7.99985 14C8.36812 14 8.66705 13.7011 8.66705 13.3328V12.8676H9.07235C9.43995 12.8676 9.73955 12.5687 9.73955 12.2004C9.73955 11.8321 9.44062 11.5332 9.07235 11.5332H8.66705V10.3819C10.6976 10.0588 12.2178 8.28404 12.2178 6.21714C12.2178 5.07126 11.7661 3.99943 10.9467 3.19893C10.1273 2.39977 9.04272 1.97427 7.89751 2.0012ZM10.942 6.21782C10.942 7.84037 9.62173 9.15995 7.99985 9.15995C6.37797 9.15995 5.05771 7.83969 5.05771 6.21782C5.05771 4.59594 6.3773 3.27568 7.99985 3.27568C9.6224 3.27568 10.942 4.59594 10.942 6.21782Z" fill="white"/>
</svg>
