<svg width="16" height="16" viewBox="0 0 16 16" fill="none" xmlns="http://www.w3.org/2000/svg">
<g clip-path="url(#clip0_7_6529)">
<path d="M7.86344 0.00160577C6.42088 0.0357175 5.0591 0.6219 4.02947 1.65154C2.99893 2.68117 2.41275 4.04295 2.37774 5.48461C2.30952 8.3096 4.33647 10.736 7.11029 11.1759V12.7109H6.56989C6.07976 12.7109 5.68029 13.1095 5.68029 13.6005C5.68029 14.0915 6.07886 14.4901 6.56989 14.4901H7.11029V15.1104C7.11029 15.6005 7.50886 16 7.99989 16C8.49092 16 8.88949 15.6014 8.88949 15.1104V14.4901H9.42989C9.92002 14.4901 10.3195 14.0915 10.3195 13.6005C10.3195 13.1095 9.92092 12.7109 9.42989 12.7109H8.88949V11.1759C11.5969 10.745 13.6238 8.37872 13.6238 5.62286C13.6238 4.09501 13.0215 2.66591 11.929 1.59857C10.8365 0.53303 9.39039 -0.0343013 7.86344 0.00160577ZM11.9227 5.62375C11.9227 7.78716 10.1624 9.5466 7.99989 9.5466C5.83739 9.5466 4.07704 7.78626 4.07704 5.62375C4.07704 3.46125 5.83649 1.70091 7.99989 1.70091C10.1633 1.70091 11.9227 3.46125 11.9227 5.62375Z" fill="white" fill-opacity="0.5"/>
</g>
<defs>
<clipPath id="clip0_7_6529">
<rect width="16" height="16" fill="white"/>
</clipPath>
</defs>
</svg>
