<svg width="51" height="50" viewBox="0 0 51 50" fill="none" xmlns="http://www.w3.org/2000/svg">
<g filter="url(#filter0_d_229_52717)">
<rect x="5.5" y="5" width="40" height="40" rx="9.99991" fill="#161616" shape-rendering="crispEdges"/>
<path d="M13.5 22C13.5 21.4477 13.9477 21 14.5 21H36.5C37.0523 21 37.5 21.4477 37.5 22V32C37.5 33.1046 36.6046 34 35.5 34H15.5C14.3954 34 13.5 33.1046 13.5 32V22Z" stroke="#F5B060" stroke-width="1.75" stroke-linejoin="round"/>
<path d="M16.4142 18.5858L14 21H37L34.5858 18.5858C34.2107 18.2107 33.702 18 33.1716 18H17.8284C17.298 18 16.7893 18.2107 16.4142 18.5858Z" stroke="#F5B060" stroke-width="1.75" stroke-linejoin="round"/>
<path d="M19.7587 15.2953L18.4688 18.0002H32.5234L31.2335 15.2953C30.9016 14.5994 30.1992 14.1562 29.4282 14.1562H21.564C20.793 14.1562 20.0906 14.5994 19.7587 15.2953Z" stroke="#F5B060" stroke-width="1.75" stroke-linejoin="round"/>
<path d="M23.625 27.5H27.3672M25.4961 25.6289L25.4961 29.3711" stroke="#F5B060" stroke-width="1.75" stroke-linecap="round" stroke-linejoin="round"/>
</g>
<defs>
<filter id="filter0_d_229_52717" x="0.500047" y="4.673e-05" width="49.9999" height="49.9999" filterUnits="userSpaceOnUse" color-interpolation-filters="sRGB">
<feFlood flood-opacity="0" result="BackgroundImageFix"/>
<feColorMatrix in="SourceAlpha" type="matrix" values="0 0 0 0 0 0 0 0 0 0 0 0 0 0 0 0 0 0 127 0" result="hardAlpha"/>
<feOffset/>
<feGaussianBlur stdDeviation="2.49998"/>
<feComposite in2="hardAlpha" operator="out"/>
<feColorMatrix type="matrix" values="0 0 0 0 0 0 0 0 0 0 0 0 0 0 0 0 0 0 0.25 0"/>
<feBlend mode="normal" in2="BackgroundImageFix" result="effect1_dropShadow_229_52717"/>
<feBlend mode="normal" in="SourceGraphic" in2="effect1_dropShadow_229_52717" result="shape"/>
</filter>
</defs>
</svg>
