<svg width="40" height="40" viewBox="0 0 40 40" fill="none" xmlns="http://www.w3.org/2000/svg">
<path d="M8 17C8 16.4477 8.44772 16 9 16H31C31.5523 16 32 16.4477 32 17V27C32 28.1046 31.1046 29 30 29H10C8.89543 29 8 28.1046 8 27V17Z" stroke="#F5B060" stroke-width="1.75" stroke-linejoin="round"/>
<path d="M10.9142 13.5858L8.5 16H31.5L29.0858 13.5858C28.7107 13.2107 28.202 13 27.6716 13H12.3284C11.798 13 11.2893 13.2107 10.9142 13.5858Z" stroke="#F5B060" stroke-width="1.75" stroke-linejoin="round"/>
<path d="M14.2587 10.2953L12.9688 13.0002H27.0234L25.7335 10.2953C25.4016 9.59942 24.6992 9.15625 23.9282 9.15625H16.064C15.293 9.15625 14.5906 9.59942 14.2587 10.2953Z" stroke="#F5B060" stroke-width="1.75" stroke-linejoin="round"/>
<path d="M18.125 22.5H21.8672M19.9961 20.6289L19.9961 24.3711" stroke="#F5B060" stroke-width="1.75" stroke-linecap="round" stroke-linejoin="round"/>
</svg>
