<svg width="31" height="30" viewBox="0 0 31 30" fill="none" xmlns="http://www.w3.org/2000/svg">
<path d="M13.4886 16.0051C13.9205 16.5825 14.4716 17.0602 15.1043 17.4059C15.7371 17.7516 16.4368 17.9572 17.156 18.0087C17.8752 18.0602 18.5971 17.9564 19.2726 17.7044C19.9482 17.4524 20.5617 17.0581 21.0714 16.5482L24.0885 13.5312C25.0044 12.5829 25.5113 11.3127 25.4998 9.99433C25.4884 8.67593 24.9595 7.41479 24.0272 6.48251C23.0949 5.55023 21.8337 5.02141 20.5153 5.00996C19.1969 4.9985 17.9267 5.50532 16.9783 6.42126L15.2486 8.14092M17.5114 13.9938C17.0795 13.4164 16.5284 12.9387 15.8957 12.593C15.2629 12.2473 14.5632 12.0417 13.844 11.9902C13.1248 11.9387 12.4029 12.0425 11.7274 12.2945C11.0518 12.5465 10.4383 12.9408 9.92855 13.4508L6.91153 16.4677C5.99557 17.416 5.48873 18.6862 5.50019 20.0046C5.51165 21.323 6.04048 22.5841 6.97278 23.5164C7.90508 24.4487 9.16626 24.9775 10.4847 24.989C11.8031 25.0004 13.0733 24.4936 14.0217 23.5777L15.7414 21.858" stroke="#00B492" stroke-width="1.75" stroke-linecap="round" stroke-linejoin="round"/>
</svg>
