<svg width="35" height="34" viewBox="0 0 35 34" fill="none" xmlns="http://www.w3.org/2000/svg">
<g clip-path="url(#clip0_2989_128163)">
<path d="M26.8414 27.8747C26.8414 23.6662 22.6547 20.2624 17.5001 20.2624C12.3455 20.2624 8.15869 23.6662 8.15869 27.8747M22.9375 11.5627C22.9375 14.5656 20.5031 17 17.5002 17C14.4972 17 12.0628 14.5656 12.0628 11.5627C12.0628 8.55969 14.4972 6.12531 17.5002 6.12531C20.5031 6.12531 22.9375 8.55969 22.9375 11.5627Z" stroke="white" stroke-width="2.125" stroke-linecap="round" stroke-linejoin="round"/>
<path d="M33.0757 24.7853C33.0757 21.4823 30.7299 18.811 27.8417 18.811C27.3072 18.811 26.7913 18.9025 26.3054 19.0725" stroke="white" stroke-width="2.125" stroke-linecap="round" stroke-linejoin="round"/>
<path d="M1.61914 24.7853C1.61914 21.4823 3.96497 18.811 6.85309 18.811C7.3876 18.811 7.90354 18.9025 8.38946 19.0725" stroke="white" stroke-width="2.125" stroke-linecap="round" stroke-linejoin="round"/>
<path d="M28.376 16.3152C26.793 16.3152 25.5098 15.032 25.5098 13.449C25.5098 11.8661 26.793 10.5828 28.376 10.5828C29.959 10.5828 31.2422 11.8661 31.2422 13.449C31.2422 15.032 29.959 16.3152 28.376 16.3152Z" stroke="white" stroke-width="2.125" stroke-linecap="round" stroke-linejoin="round"/>
<path d="M6.3198 16.3152C7.90276 16.3152 9.18599 15.032 9.18599 13.449C9.18599 11.8661 7.90276 10.5828 6.3198 10.5828C4.73685 10.5828 3.45361 11.8661 3.45361 13.449C3.45361 15.032 4.73685 16.3152 6.3198 16.3152Z" stroke="white" stroke-width="2.125" stroke-linecap="round" stroke-linejoin="round"/>
</g>
<defs>
<clipPath id="clip0_2989_128163">
<rect width="34" height="34" fill="white" transform="translate(0.5)"/>
</clipPath>
</defs>
</svg>
