<svg width="33" height="30" viewBox="0 0 33 30" fill="none" xmlns="http://www.w3.org/2000/svg">
<path d="M24.5703 3.02166L26.5252 5.17792L30.1129 1.2207" stroke="#F5B060" stroke-width="1.875" stroke-linecap="round" stroke-linejoin="round"/>
<path d="M25.5538 26.25C25.5538 22.1381 21.5609 18.8125 16.6451 18.8125C11.7292 18.8125 7.73632 22.1381 7.73632 26.25M31.5 23.2314C31.5 20.0043 29.2628 17.3943 26.5085 17.3943C25.9987 17.3943 25.5067 17.4837 25.0432 17.6499M1.5 23.2314C1.5 20.0043 3.73719 17.3943 6.49155 17.3943C7.0013 17.3943 7.49334 17.4837 7.95677 17.6499M21.8307 10.3125C21.8307 13.2465 19.509 15.625 16.6452 15.625C13.7813 15.625 11.4596 13.2465 11.4596 10.3125C11.4596 7.37849 13.7813 5 16.6452 5C19.509 5 21.8307 7.37849 21.8307 10.3125ZM24.2842 12.1558C24.2842 13.7024 25.508 14.9562 27.0176 14.9562C28.5273 14.9562 29.7511 13.7024 29.7511 12.1558C29.7511 10.6092 28.5273 9.35546 27.0176 9.35546C25.508 9.35546 24.2842 10.6092 24.2842 12.1558ZM8.71582 12.1558C8.71582 13.7024 7.49201 14.9562 5.98237 14.9562C4.47273 14.9562 3.24892 13.7024 3.24892 12.1558C3.24892 10.6092 4.47273 9.35546 5.98237 9.35546C7.49201 9.35546 8.71582 10.6092 8.71582 12.1558Z" stroke="#F5B060" stroke-width="1.6875" stroke-linecap="round" stroke-linejoin="round"/>
</svg>
