<svg width="32" height="32" viewBox="0 0 32 32" fill="none" xmlns="http://www.w3.org/2000/svg">
<path d="M26.3868 19.9068C23.6401 22.6401 19.7068 23.4801 16.2534 22.4001L9.97345 28.6668C9.52011 29.1334 8.62678 29.4134 7.98678 29.3201L5.08011 28.9201C4.12011 28.7868 3.22678 27.8801 3.08011 26.9201L2.68011 24.0134C2.58678 23.3734 2.89345 22.4801 3.33345 22.0268L9.60011 15.7601C8.53345 12.2934 9.36011 8.36009 12.1068 5.62676C16.0401 1.69342 22.4268 1.69342 26.3734 5.62676C30.3201 9.56009 30.3201 15.9734 26.3868 19.9068Z" stroke="white" stroke-width="1.5" stroke-miterlimit="10" stroke-linecap="round" stroke-linejoin="round"/>
<path d="M9.18677 23.3201L12.2534 26.3867" stroke="white" stroke-width="1.5" stroke-miterlimit="10" stroke-linecap="round" stroke-linejoin="round"/>
<path d="M19.3333 14.6667C20.4378 14.6667 21.3333 13.7713 21.3333 12.6667C21.3333 11.5622 20.4378 10.6667 19.3333 10.6667C18.2287 10.6667 17.3333 11.5622 17.3333 12.6667C17.3333 13.7713 18.2287 14.6667 19.3333 14.6667Z" stroke="white" stroke-width="1.5" stroke-linecap="round" stroke-linejoin="round"/>
</svg>
