<svg width="32" height="32" viewBox="0 0 32 32" fill="none" xmlns="http://www.w3.org/2000/svg">
<path d="M20.0401 14.3599L27.5868 9.30664C28.3468 8.79997 28.5468 7.75997 28.0401 7.0133L25.6134 3.39994C25.1068 2.63994 24.0668 2.43994 23.3201 2.94661L15.7734 7.99996L20.0401 14.3599Z" stroke="white" stroke-width="1.5" stroke-linecap="round" stroke-linejoin="round"/>
<path d="M16.2318 8.6389L9.86157 12.9054L13.2748 18.0016L19.645 13.7351L16.2318 8.6389Z" stroke="white" stroke-width="1.5" stroke-linecap="round" stroke-linejoin="round"/>
<path d="M7.77339 21.2L13.0401 17.68L10.0534 13.2267L4.78672 16.7467C4.17338 17.16 4.01339 17.9867 4.42672 18.6L5.93338 20.84C6.33338 21.44 7.16006 21.6 7.77339 21.2Z" stroke="white" stroke-width="1.5" stroke-linecap="round" stroke-linejoin="round"/>
<path d="M16.0668 16.2667L10.0801 29.3334" stroke="white" stroke-width="1.5" stroke-linecap="round" stroke-linejoin="round"/>
<path d="M16 16.2667L21.92 29.3334" stroke="white" stroke-width="1.5" stroke-linecap="round" stroke-linejoin="round"/>
</svg>
