<svg width="32" height="32" viewBox="0 0 32 32" fill="none" xmlns="http://www.w3.org/2000/svg">
<path d="M8.00049 8.33337V11" stroke="white" stroke-width="1.5" stroke-linecap="round" stroke-linejoin="round"/>
<path d="M29.3339 16V12C29.3339 5.33329 26.6672 2.66663 20.0006 2.66663H12.0006C5.3339 2.66663 2.66724 5.33329 2.66724 12V20C2.66724 26.6666 5.3339 29.3333 12.0006 29.3333H16.0006" stroke="white" stroke-width="1.5" stroke-linecap="round" stroke-linejoin="round"/>
<path d="M13.3337 8.33337V11" stroke="white" stroke-width="1.5" stroke-linecap="round" stroke-linejoin="round"/>
<path d="M8.00049 21.3334V24" stroke="white" stroke-width="1.5" stroke-linecap="round" stroke-linejoin="round"/>
<path d="M13.3337 21.3334V24" stroke="white" stroke-width="1.5" stroke-linecap="round" stroke-linejoin="round"/>
<path d="M18.6672 9.66663H24.0006" stroke="white" stroke-width="1.5" stroke-linecap="round" stroke-linejoin="round"/>
<path d="M2.66724 16H29.3339" stroke="white" stroke-width="1.5" stroke-linecap="round" stroke-linejoin="round"/>
<path d="M28.7472 27.1067C28.0006 28.4 26.6006 29.2667 25.0006 29.2667C22.6139 29.2667 21.1472 26.8667 21.1472 26.8667M21.2406 22.7867C21.9872 21.48 23.3872 20.6134 25.0006 20.6134C27.8939 20.6134 29.3339 23.0134 29.3339 23.0134M29.3339 20.3334V23H26.6672M23.8139 26.8534H21.1472V29.3334" stroke="white" stroke-width="1.5" stroke-linecap="round" stroke-linejoin="round"/>
</svg>
