<svg width="33" height="32" viewBox="0 0 33 32" fill="none" xmlns="http://www.w3.org/2000/svg">
<path d="M23.1729 10.8188C24.7055 10.8188 25.9479 9.57639 25.9479 8.0438C25.9479 6.51121 24.7055 5.2688 23.1729 5.2688C21.6404 5.2688 20.3979 6.51121 20.3979 8.0438C20.3979 9.57639 21.6404 10.8188 23.1729 10.8188Z" stroke="#00D1FF" stroke-width="0.8" stroke-linecap="round" stroke-linejoin="round"/>
<path d="M28.723 15.4437C27.3791 13.7443 25.3911 12.6687 23.173 12.6687C20.955 12.6687 18.967 13.7443 17.623 15.4437" stroke="#00D1FF" stroke-width="0.8" stroke-linejoin="round"/>
<path d="M7.04992 20.7671C8.12274 20.7671 8.99242 19.8974 8.99242 18.8246C8.99242 17.7518 8.12274 16.8821 7.04992 16.8821C5.97711 16.8821 5.10742 17.7518 5.10742 18.8246C5.10742 19.8974 5.97711 20.7671 7.04992 20.7671Z" stroke="#00D1FF" stroke-width="0.8" stroke-linecap="round" stroke-linejoin="round"/>
<path d="M10.935 24.005C9.99427 22.8154 8.60271 22.0625 7.05004 22.0625C5.49737 22.0625 4.10581 22.8154 3.16504 24.005" stroke="#00D1FF" stroke-width="0.8" stroke-linejoin="round"/>
<path d="M22.9995 0.400024C18.3603 0.400023 14.5995 4.16083 14.5995 8.80002C14.5995 13.4392 18.3603 17.2 22.9995 17.2C27.6387 17.2 31.3995 13.4392 31.3995 8.80002C31.3995 4.16083 27.6387 0.400024 22.9995 0.400024ZM6.99951 13.7625C3.6858 13.7625 0.999513 16.4488 0.999513 19.7625C0.999512 23.0762 3.6858 25.7625 6.99951 25.7625C10.3132 25.7625 12.9995 23.0762 12.9995 19.7625C12.9995 16.4488 10.3132 13.7625 6.99951 13.7625ZM24.5995 22.5625C22.1695 22.5625 20.1995 24.5325 20.1995 26.9625C20.1995 29.3926 22.1695 31.3625 24.5995 31.3625C27.0296 31.3625 28.9995 29.3926 28.9995 26.9625C28.9995 24.5325 27.0296 22.5625 24.5995 22.5625Z" stroke="#00D1FF" stroke-width="0.8" stroke-linejoin="round"/>
<path d="M24.8919 28.0434C25.6582 28.0434 26.2794 27.4222 26.2794 26.6559C26.2794 25.8896 25.6582 25.2684 24.8919 25.2684C24.1256 25.2684 23.5044 25.8896 23.5044 26.6559C23.5044 27.4222 24.1256 28.0434 24.8919 28.0434Z" stroke="#00D1FF" stroke-width="0.8" stroke-linecap="round" stroke-linejoin="round"/>
<path d="M27.6667 30.356C26.9947 29.5063 26.0007 28.9685 24.8917 28.9685C23.7827 28.9685 22.7887 29.5063 22.1167 30.356" stroke="#00D1FF" stroke-width="0.8" stroke-linejoin="round"/>
</svg>
