<svg width="33" height="32" viewBox="0 0 33 32" fill="none" xmlns="http://www.w3.org/2000/svg">
<path d="M7.39786 29.5617C11.7328 30.5719 16.0659 27.8767 17.0762 23.5417C18.0864 19.2068 15.3912 14.8737 11.0563 13.8634C6.72133 12.8532 2.3882 15.5484 1.37796 19.8833C0.367715 24.2183 3.06292 28.5514 7.39786 29.5617ZM23.3821 18.3438C26.8931 19.162 30.4026 16.9791 31.2208 13.4681C32.039 9.95716 29.8561 6.44765 26.3451 5.62943C22.8341 4.8112 19.3246 6.99412 18.5064 10.5051C17.6882 14.0161 19.8711 17.5256 23.3821 18.3438ZM23.5844 30.9745C26.2715 31.6007 28.9574 29.93 29.5836 27.243C30.2098 24.556 28.5391 21.8701 25.8521 21.2439C23.1651 20.6177 20.4792 22.2883 19.853 24.9753C19.2268 27.6624 20.8974 30.3483 23.5844 30.9745ZM11.7439 10.9128C14.4309 11.539 17.1168 9.86836 17.743 7.18133C18.3692 4.49431 16.6986 1.80841 14.0116 1.1822C11.3246 0.556003 8.63866 2.22663 8.01245 4.91366C7.38625 7.60068 9.05688 10.2866 11.7439 10.9128Z" stroke="#FF4FCE" stroke-width="0.8" stroke-linejoin="round"/>
<path d="M26.5618 15.0082C27.403 14.9962 28.223 14.5607 28.4979 13.803C28.7625 13.0751 29.0005 12.3453 29.2326 11.6172L29.2331 11.6157C29.336 11.2883 29.2318 10.9747 29.0172 10.7613C28.8112 10.5563 28.516 10.4498 28.2072 10.4473C27.6528 10.4423 27.0978 10.4428 26.545 10.4434L26.5558 14.6082M26.5618 15.0082C26.5616 15.0082 26.5615 15.0082 26.5614 15.0082L26.5558 14.6082M26.5618 15.0082C26.5619 15.0082 26.5621 15.0082 26.5622 15.0082L26.5558 14.6082M26.5618 15.0082C25.8333 15.02 25.1079 15.0166 24.3851 15.0133C24.2641 15.0127 24.1432 15.0121 24.0224 15.0116L24.0187 15.0116L24.0187 15.0116C23.8355 15.0092 23.6357 14.9655 23.4726 14.8378C23.3857 14.7697 23.3201 14.6861 23.276 14.5928M26.5558 14.6082C25.8317 14.6199 25.1107 14.6166 24.3876 14.6133L24.024 14.6117C23.7665 14.6082 23.6078 14.4888 23.6078 14.2806M23.276 14.5928C23.3206 14.4885 23.3379 14.3799 23.343 14.2817L23.6078 14.2806M23.276 14.5928C23.2307 14.4971 23.2079 14.3912 23.2078 14.2815L23.3448 10.7196C23.3448 10.5455 23.3221 10.2958 23.1302 10.1126C22.9455 9.93632 22.699 9.91517 22.5262 9.91308L22.5262 9.91305H22.5213H22.5191H22.5169H22.5146H22.5124H22.5101H22.5079H22.5056H22.5034H22.5011H22.4989H22.4967H22.4944H22.4922H22.4899H22.4877H22.4854H22.4832H22.4809H22.4787H22.4765H22.4742H22.472H22.4697H22.4675H22.4652H22.463H22.4607H22.4585H22.4562H22.454H22.4518H22.4495H22.4473H22.445H22.4428H22.4405H22.4383H22.436H22.4338H22.4316H22.4293H22.4271H22.4248H22.4226H22.4203H22.4181H22.4158H22.4136H22.4114H22.4091H22.4069H22.4046H22.4024H22.4001H22.3979H22.3956H22.3934H22.3912H22.3889H22.3867H22.3844H22.3822H22.3799H22.3777H22.3754H22.3732H22.3709H22.3687H22.3665H22.3642H22.362H22.3597H22.3575H22.3552H22.353H22.3507H22.3485H22.3463H22.344H22.3418H22.3395H22.3373H22.335H22.3328H22.3305H22.3283H22.3261H22.3238H22.3216H22.3193H22.3171H22.3148H22.3126H22.3103H22.3081H22.3058H22.3036H22.3014H22.2991H22.2969H22.2946H22.2924H22.2901H22.2879H22.2856H22.2834H22.2812H22.2789H22.2767H22.2744H22.2722H22.2699H22.2677H22.2654H22.2632H22.261H22.2587H22.2565H22.2542H22.252H22.2497H22.2475H22.2452H22.243H22.2408H22.2385H22.2363H22.234H22.2318H22.2295H22.2273H22.225H22.2228H22.2205H22.2183H22.2161H22.2138H22.2116H22.2093H22.2071H22.2048H22.2026H22.2003H22.1981H22.1959H22.1936H22.1914H22.1891H22.1869H22.1846H22.1824H22.1801H22.1779H22.1757H22.1734H22.1712H22.1689H22.1667H22.1644H22.1622H22.1599H22.1577H22.1554H22.1532H22.151H22.1487H22.1465H22.1442H22.142H22.1397H22.1375H22.1352H22.133H22.1308H22.1285H22.1263H22.124H22.1218H22.1195H22.1173H22.115H22.1128H22.1106H22.1083H22.1061H22.1038H22.1016H22.0993H22.0971H22.0948H22.0926H22.0904H22.0881H22.0859H22.0836H22.0814H22.0791H22.0769H22.0746H22.0724H22.0701H22.0679H22.0657H22.0634H22.0612H22.0589H22.0567H22.0544H22.0522H22.0499H22.0477H22.0455H22.0432H22.041H22.0387H22.0365H22.0342H22.032H22.0297H22.0275H22.0253H22.023H22.0208H22.0185H22.0163H22.014H22.0118H22.0095H22.0073H22.005H22.0028H22.0006H21.9983H21.9961H21.9938H21.9916H21.9893H21.9871H21.9848H21.9826H21.9804H21.9781H21.9759H21.9736H21.9714H21.9691H21.9669H21.9646H21.9624H21.9602H21.9579H21.9557H21.9534H21.9512H21.9489H21.9467H21.9444H21.9422H21.94H21.9377H21.9355H21.9332H21.931H21.9287H21.9265H21.9242H21.922H21.9197H21.9175H21.9153H21.913H21.9108H21.9085H21.9063H21.904H21.9018H21.8995H21.8973H21.8951H21.8928H21.8906H21.8883H21.8861H21.8838H21.8816H21.8793H21.8771H21.8749H21.8726H21.8704H21.8681H21.8659H21.8636H21.8614H21.8591H21.8569H21.8546H21.8524H21.8502H21.8479H21.8457H21.8434H21.8412H21.8389H21.8367H21.8344H21.8322H21.83H21.8277H21.8255H21.8232H21.821H21.8187H21.8165H21.8142H21.812H21.8098H21.8075H21.8053H21.803H21.8008H21.7985H21.7963H21.794H21.7918H21.7896H21.7873H21.7851H21.7828H21.7806H21.7783H21.7761H21.7738H21.7716H21.7693H21.7671H21.7649H21.7626H21.7604H21.7581H21.7559H21.7536H21.7514H21.7491H21.7469H21.7447H21.7424H21.7402H21.7379H21.7357H21.7334H21.7312H21.7289H21.7267H21.7245H21.7222H21.72H21.7177H21.7155H21.7132H21.711H21.7087H21.7065H21.7042H21.702H21.6998H21.6975H21.6953H21.693H21.6908H21.6885H21.6863H21.684H21.6818H21.6796H21.6773H21.6751H21.6728H21.6706H21.6683H21.6661H21.6638H21.6616H21.6594H21.6571H21.6549H21.6526H21.6504H21.6481H21.6459H21.6436H21.6414H21.6392H21.6369H21.6347H21.6324H21.6302H21.6279H21.6257H21.6234H21.6212H21.6189H21.6167H21.6145H21.6122H21.61H21.6077H21.6055H21.6032H21.601H21.5987H21.5965H21.5943H21.592H21.5898H21.5875H21.5853H21.583H21.5808H21.5785H21.5763H21.5741H21.5718H21.5696H21.5673H21.5651H21.5628H21.5606H21.5583H21.5561H21.5538H21.5516H21.5494H21.5471H21.5449H21.5426H21.5404H21.5381H21.5359H21.5336H21.5314H21.5292H21.5269H21.5247H21.5224H21.5202H21.5179H21.5157H21.5134H21.5112H21.509H21.5067H21.5045H21.5022H21.5H21.4977H21.4955H21.4932H21.491H21.4888H21.4865H21.4843H21.482H21.4798H21.4775H21.4753H21.473H21.4708H21.4685H21.4663H21.4641H21.4618H21.4596H21.4573H21.4551H21.4528H21.4506H21.4483H21.4461H21.4439H21.4416H21.4394H21.4371H21.4349H21.4326H21.4304H21.4281H21.4259H21.4237H21.4214H21.4192H21.4169H21.4147H21.4124H21.4102H21.4079H21.4057H21.4034H21.4012H21.399H21.3967H21.3945H21.3922H21.39H21.3877H21.3855H21.3832H21.381H21.3788H21.3765H21.3743H21.372C21.1976 9.91305 20.9531 9.93661 20.7714 10.1199C20.5905 10.3023 20.5687 10.5458 20.5687 10.7157V10.7225V10.7294V10.7362V10.743V10.7499V10.7567V10.7635V10.7703V10.7772V10.784V10.7908V10.7976V10.8045V10.8113V10.8181V10.8249V10.8318V10.8386V10.8454V10.8522V10.8591V10.8659V10.8727V10.8796V10.8864V10.8932V10.9V10.9069V10.9137V10.9205V10.9273V10.9342V10.941V10.9478V10.9546V10.9615V10.9683V10.9751V10.9819V10.9888V10.9956V11.0024V11.0093V11.0161V11.0229V11.0297V11.0366V11.0434V11.0502V11.057V11.0639V11.0707V11.0775V11.0843V11.0912V11.098V11.1048V11.1116V11.1185V11.1253V11.1321V11.139V11.1458V11.1526V11.1594V11.1663V11.1731V11.1799V11.1867V11.1936V11.2004V11.2072V11.214V11.2209V11.2277V11.2345V11.2413V11.2482V11.255V11.2618V11.2687V11.2755V11.2823V11.2891V11.296V11.3028V11.3096V11.3164V11.3233V11.3301V11.3369V11.3437V11.3506V11.3574V11.3642V11.371V11.3779V11.3847V11.3915V11.3984V11.4052V11.412V11.4188V11.4257V11.4325V11.4393V11.4461V11.453V11.4598V11.4666V11.4734V11.4803V11.4871V11.4939V11.5007V11.5076V11.5144V11.5212V11.5281V11.5349V11.5417V11.5485V11.5554V11.5622V11.569V11.5758V11.5827V11.5895V11.5963V11.6031V11.61V11.6168V11.6236V11.6304V11.6373V11.6441V11.6509V11.6578V11.6646V11.6714V11.6782V11.6851V11.6919V11.6987V11.7055V11.7124V11.7192V11.726V11.7328V11.7397V11.7465V11.7533V11.7601V11.767V11.7738V11.7806V11.7875V11.7943V11.8011V11.8079V11.8148V11.8216V11.8284V11.8352V11.8421V11.8489V11.8557V11.8625V11.8694V11.8762V11.883V11.8898V11.8967V11.9035V11.9103V11.9172V11.924V11.9308V11.9376V11.9445V11.9513V11.9581V11.9649V11.9718V11.9786V11.9854V11.9922V11.9991V12.0059V12.0127V12.0196V12.0264V12.0332V12.04V12.0469V12.0537V12.0605V12.0673V12.0742V12.081V12.0878V12.0946V12.1015V12.1083V12.1151V12.1219V12.1288V12.1356V12.1424V12.1493V12.1561V12.1629V12.1697V12.1766V12.1834V12.1902V12.197V12.2039V12.2107V12.2175V12.2243V12.2312V12.238V12.2448V12.2516V12.2585V12.2653V12.2721V12.2789V12.2858V12.2926V12.2994V12.3063V12.3131V12.3199V12.3267V12.3336V12.3404V12.3472V12.354V12.3609V12.3677V12.3745V12.3813V12.3882V12.395V12.4018V12.4087V12.4155V12.4223V12.4291V12.436V12.4428V12.4496V12.4564V12.4633V12.4701V12.4769V12.4837V12.4906V12.4974V12.5042V12.511V12.5179V12.5247V12.5315V12.5384V12.5452V12.552V12.5588V12.5657V12.5725V12.5793V12.5861V12.593V12.5998V12.6066V12.6134V12.6203V12.6271V12.6339V12.6407V12.6476V12.6544V12.6612V12.6681V12.6749V12.6817V12.6885V12.6954V12.7022V12.709V12.7158V12.7227V12.7295V12.7363V12.7431V12.75V12.7568V12.7636V12.7704V12.7773V12.7841V12.7909V12.7977V12.8046V12.8114V12.8182V12.8251V12.8319V12.8387V12.8455V12.8524V12.8592V12.866V12.8728V12.8797V12.8865V12.8933V12.9001V12.907V12.9138V12.9206V12.9275V12.9343V12.9411V12.9479V12.9548V12.9616V12.9684V12.9752V12.9821V12.9889V12.9957V13.0025V13.0094V13.0162V13.023V13.0298V13.0367V13.0435V13.0503V13.0572V13.064V13.0708V13.0776V13.0845V13.0913V13.0981V13.1049V13.1118V13.1186V13.1254V13.1322V13.1391V13.1459V13.1527V13.1595V13.1664V13.1732V13.18V13.1869V13.1937V13.2005V13.2073V13.2142V13.221V13.2278V13.2346V13.2415V13.2483V13.2551V13.2619V13.2688V13.2756V13.2824V13.2892V13.2961V13.3029V13.3097V13.3166V13.3234V13.3302V13.337V13.3439V13.3507V13.3575V13.3643V13.3712V13.378V13.3848V13.3916V13.3985V13.4053V13.4121V13.4189V13.4258V13.4326V13.4394V13.4463V13.4531V13.4599V13.4667V13.4736V13.4804V13.4872V13.494V13.5009V13.5077V13.5145V13.5213V13.5282V13.535V13.5418V13.5486V13.5555V13.5623V13.5691V13.576V13.5828V13.5896V13.5964V13.6033V13.6101V13.6169V13.6237V13.6306V13.6374V13.6442V13.651V13.6579V13.6647V13.6715V13.6783V13.6852V13.692V13.6988V13.7057V13.7125V13.7193V13.7261V13.733V13.7398V13.7466V13.7534V13.7603V13.7671V13.7739V13.7807V13.7876V13.7944V13.8012V13.808V13.8149V13.8217V13.8285V13.8354V13.8422V13.849V13.8558V13.8627V13.8695V13.8763V13.8831V13.89V13.8968V13.9036V13.9104V13.9173V13.9241V13.9309V13.9377V13.9446V13.9514V13.9582V13.9651V13.9719V13.9787V13.9855V13.9924V13.9992V14.006V14.0128V14.0197V14.0265V14.0333V14.0401V14.047V14.0538V14.0606V14.0674V14.0743V14.0811V14.0879V14.0948V14.1016V14.1084V14.1152V14.1221V14.1289V14.1357V14.1425V14.1494V14.1562V14.163V14.1698V14.1767V14.1835V14.1903V14.1971V14.204V14.2108C20.5687 14.3927 20.6015 14.628 20.783 14.8053C20.9607 14.9789 21.1944 15.0111 21.3748 15.0134L21.376 15.0135C21.7618 15.0174 22.1477 15.0174 22.5335 15.0135L22.5294 14.6135V15.0135C22.7141 15.0135 22.9504 14.9822 23.13 14.8068C23.1969 14.7414 23.2436 14.6682 23.276 14.5928ZM23.6078 14.2806H23.3431M23.6078 14.2806C23.6035 13.2466 23.6035 12.2125 23.6035 11.1785V11.1783C23.6035 11.0589 23.6678 10.9736 23.7708 10.8951M23.3431 14.2806L25.3585 9.32518C25.2727 9.6221 25.0925 9.87123 24.8136 10.0828C24.5937 10.2491 24.3772 10.4195 24.1609 10.5896L24.1609 10.5896L24.1609 10.5897C24.031 10.6918 23.9012 10.7939 23.7708 10.8951M23.3431 14.2806C23.3443 14.2566 23.3448 14.2333 23.3448 14.2108V14.2074V14.2039V14.2005V14.1971V14.1936V14.1902V14.1867V14.1833V14.1799V14.1764V14.173V14.1696V14.1661V14.1627V14.1593V14.1558V14.1524V14.1489V14.1455V14.1421V14.1386V14.1352V14.1318V14.1283V14.1249V14.1215V14.118V14.1146V14.1112V14.1077V14.1043V14.1008V14.0974V14.094V14.0905V14.0871V14.0837V14.0802V14.0768V14.0734V14.0699V14.0665V14.063V14.0596V14.0562V14.0527V14.0493V14.0459V14.0424V14.039V14.0356V14.0321V14.0287V14.0253V14.0218V14.0184V14.0149V14.0115V14.0081V14.0046V14.0012V13.9978V13.9943V13.9909V13.9875V13.984V13.9806V13.9772V13.9737V13.9703V13.9668V13.9634V13.96V13.9565V13.9531V13.9497V13.9462V13.9428V13.9394V13.9359V13.9325V13.9291V13.9256V13.9222V13.9188V13.9153V13.9119V13.9084V13.905V13.9016V13.8981V13.8947V13.8913V13.8878V13.8844V13.881V13.8775V13.8741V13.8707V13.8672V13.8638V13.8604V13.8569V13.8535V13.85V13.8466V13.8432V13.8397V13.8363V13.8329V13.8294V13.826V13.8226V13.8191V13.8157V13.8123V13.8088V13.8054V13.802V13.7985V13.7951V13.7917V13.7882V13.7848V13.7813V13.7779V13.7745V13.771V13.7676V13.7642V13.7607V13.7573V13.7539V13.7504V13.747V13.7436V13.7401V13.7367V13.7333V13.7298V13.7264V13.723V13.7195V13.7161V13.7127V13.7092V13.7058V13.7024V13.6989V13.6955V13.6921V13.6886V13.6852V13.6817V13.6783V13.6749V13.6714V13.668V13.6646V13.6611V13.6577V13.6543V13.6508V13.6474V13.644V13.6405V13.6371V13.6337V13.6302V13.6268V13.6234V13.6199V13.6165V13.6131V13.6096V13.6062V13.6028V13.5993V13.5959V13.5925V13.589V13.5856V13.5822V13.5787V13.5753V13.5719V13.5684V13.565V13.5616V13.5581V13.5547V13.5513V13.5478V13.5444V13.541V13.5375V13.5341V13.5307V13.5273V13.5238V13.5204V13.517V13.5135V13.5101V13.5067V13.5032V13.4998V13.4964V13.4929V13.4895V13.4861V13.4826V13.4792V13.4758V13.4723V13.4689V13.4655V13.462V13.4586V13.4552V13.4517V13.4483V13.4449V13.4414V13.438V13.4346V13.4312V13.4277V13.4243V13.4209V13.4174V13.414V13.4106V13.4071V13.4037V13.4003V13.3968V13.3934V13.39V13.3865V13.3831V13.3797V13.3763V13.3728V13.3694V13.366V13.3625V13.3591V13.3557V13.3522V13.3488V13.3454V13.3419V13.3385V13.3351V13.3317V13.3282V13.3248V13.3214V13.3179V13.3145V13.3111V13.3076V13.3042V13.3008V13.2974V13.2939V13.2905V13.2871V13.2836V13.2802V13.2768V13.2733V13.2699V13.2665V13.2631V13.2596V13.2562V13.2528V13.2493V13.2459V13.2425V13.2391V13.2356V13.2322V13.2288V13.2253V13.2219V13.2185V13.215V13.2116V13.2082V13.2048V13.2013V13.1979V13.1945V13.191V13.1876V13.1842V13.1808V13.1773V13.1739V13.1705V13.1671V13.1636V13.1602V13.1568V13.1533V13.1499V13.1465V13.1431V13.1396V13.1362V13.1328V13.1293V13.1259V13.1225V13.1191V13.1156V13.1122V13.1088V13.1054V13.1019V13.0985V13.0951V13.0916V13.0882V13.0848V13.0814V13.0779V13.0745V13.0711V13.0677V13.0642V13.0608V13.0574V13.054V13.0505V13.0471V13.0437V13.0403V13.0368V13.0334V13.03V13.0266V13.0231V13.0197V13.0163V13.0128V13.0094V13.006V13.0026V12.9991V12.9957V12.9923V12.9889V12.9854V12.982V12.9786V12.9752V12.9717V12.9683V12.9649V12.9615V12.9581V12.9546V12.9512V12.9478V12.9444V12.9409V12.9375V12.9341V12.9307V12.9272V12.9238V12.9204V12.917V12.9135V12.9101V12.9067V12.9033V12.8998V12.8964V12.893V12.8896V12.8862V12.8827V12.8793V12.8759V12.8725V12.869V12.8656V12.8622V12.8588V12.8553V12.8519V12.8485V12.8451V12.8417V12.8382V12.8348V12.8314V12.828V12.8245V12.8211V12.8177V12.8143V12.8109V12.8074V12.804V12.8006V12.7972V12.7938V12.7903V12.7869V12.7835V12.7801V12.7766V12.7732V12.7698V12.7664V12.763V12.7595V12.7561V12.7527V12.7493V12.7459V12.7424V12.739V12.7356V12.7322V12.7288V12.7253V12.7219V12.7185V12.7151V12.7117V12.7082V12.7048V12.7014V12.698V12.6946V12.6912V12.6877V12.6843V12.6809V12.6775V12.6741V12.6706V12.6672V12.6638V12.6604V12.657V12.6535V12.6501V12.6467V12.6433V12.6399V12.6365V12.633V12.6296V12.6262V12.6228V12.6194V12.616V12.6125V12.6091V12.6057V12.6023V12.5989V12.5955V12.592V12.5886V12.5852V12.5818V12.5784V12.575V12.5715V12.5681V12.5647V12.5613V12.5579V12.5545V12.551V12.5476V12.5442V12.5408V12.5374V12.534V12.5306V12.5271V12.5237V12.5203V12.5169V12.5135V12.5101V12.5066V12.5032V12.4998V12.4964V12.493V12.4896V12.4862V12.4827V12.4793V12.4759V12.4725V12.4691V12.4657V12.4623V12.4589V12.4554L23.3431 14.2806ZM23.7708 10.8951L23.5283 10.577C23.5279 10.5773 23.5274 10.5777 23.5269 10.5781C23.5265 10.5784 23.5261 10.5787 23.5257 10.579L23.7708 10.8951ZM23.3448 10.758C23.2643 10.8649 23.2035 11.0027 23.2035 11.1783V11.1789C23.2035 11.6042 23.2035 12.0298 23.2038 12.4554C23.2042 13.0404 23.2051 13.6256 23.2075 14.2108L23.3448 10.758ZM24.572 9.76398C24.572 9.76403 24.5719 9.76409 24.5718 9.76415L24.8135 10.0828L24.5722 9.76383C24.5722 9.76388 24.5721 9.76393 24.572 9.76398Z" stroke="#FF4FCE" stroke-width="0.8"/>
<path d="M25.3415 28.26C25.9586 27.8573 26.5879 27.3705 27.0316 26.7269C27.2595 26.3964 27.3682 26.1096 27.4126 25.8556C27.4303 25.7642 27.4395 25.6702 27.4395 25.5745C27.4395 24.7175 26.7174 24.0539 25.8659 24.0539C25.5134 24.0539 25.1857 24.1663 24.9214 24.3582C24.6571 24.1663 24.3293 24.0539 23.9768 24.0539C23.1253 24.0539 22.4032 24.7175 22.4032 25.5745C22.4032 25.6702 22.4124 25.7642 22.4301 25.8556C22.4745 26.1096 22.5833 26.3964 22.8111 26.7269C23.2548 27.3705 23.8841 27.8573 24.5012 28.26C24.7547 28.4254 25.0881 28.4254 25.3415 28.26Z" stroke="#FF4FCE" stroke-width="0.8"/>
<mask id="path-4-outside-1_38_8829" maskUnits="userSpaceOnUse" x="9.35689" y="2.35564" width="7.55536" height="7.55536" fill="black">
<rect fill="white" x="9.35689" y="2.35564" width="7.55536" height="7.55536"/>
<path d="M13.9312 4.32018C13.8789 4.26512 13.8138 4.23679 13.7371 4.2587C13.6558 4.28238 13.6232 4.34168 13.6217 4.42036C13.6164 4.57543 13.602 4.73194 13.6014 4.88735C13.6 4.96179 13.5827 4.98817 13.4935 4.98571C12.2176 4.93847 11.1251 5.69304 10.8088 6.83199C10.7368 7.09064 10.7194 7.35553 10.7333 7.63557C10.7546 7.62226 10.7662 7.61888 10.7712 7.61074C11.4746 6.8971 12.3723 6.61766 13.4129 6.65141C13.4953 6.65337 13.5147 6.67826 13.5088 6.75235C13.4959 6.92601 13.4921 7.09823 13.4814 7.27205C13.4753 7.35039 13.502 7.41416 13.5758 7.45167C13.654 7.49165 13.7216 7.46905 13.7836 7.41836C14.3132 6.98338 14.8449 6.55069 15.3745 6.11571C15.4771 6.03187 15.483 5.95565 15.3915 5.8593C14.9077 5.34791 14.4194 4.83404 13.9312 4.32018Z"/>
</mask>
<path d="M13.9312 4.32018L13.3512 4.87123L13.3512 4.87123L13.9312 4.32018ZM13.7371 4.2587L13.5173 3.48948L13.5134 3.49061L13.7371 4.2587ZM13.6217 4.42036L14.4213 4.44723L14.4215 4.43577L13.6217 4.42036ZM13.6014 4.88735L14.4013 4.90144L14.4013 4.89068L13.6014 4.88735ZM13.4935 4.98571L13.4639 5.78519L13.4714 5.7854L13.4935 4.98571ZM10.8088 6.83199L11.5795 7.04673L11.5797 7.04602L10.8088 6.83199ZM10.7333 7.63557L9.93429 7.67535C9.9484 7.95878 10.1116 8.21353 10.3632 8.34482C10.6148 8.4761 10.9171 8.46427 11.1577 8.31372L10.7333 7.63557ZM10.7712 7.61074L10.2014 7.04915C10.1583 7.09283 10.1205 7.14131 10.0885 7.19365L10.7712 7.61074ZM13.4129 6.65141L13.387 7.45103L13.394 7.45119L13.4129 6.65141ZM13.5088 6.75235L12.7113 6.68912L12.7111 6.69271L13.5088 6.75235ZM13.4814 7.27205L14.2791 7.33397L14.2799 7.3212L13.4814 7.27205ZM13.5758 7.45167L13.9398 6.73927L13.9384 6.73854L13.5758 7.45167ZM13.7836 7.41836L14.2899 8.03773L14.2914 8.03656L13.7836 7.41836ZM15.3745 6.11571L14.8682 5.49634L14.8667 5.49751L15.3745 6.11571ZM15.3915 5.8593L14.8103 6.40909L14.8115 6.41036L15.3915 5.8593ZM14.5111 3.76913C14.3147 3.56241 13.9567 3.36394 13.5173 3.48949L13.957 5.0279C13.8404 5.06121 13.7075 5.06021 13.5812 5.01645C13.4644 4.97595 13.3898 4.91184 13.3512 4.87123L14.5111 3.76913ZM13.5134 3.49061C13.3186 3.54735 13.1222 3.66875 12.985 3.87343C12.8561 4.06574 12.8245 4.26431 12.8218 4.40495L14.4215 4.43577C14.4203 4.49773 14.4059 4.62731 14.314 4.76438C14.2138 4.91382 14.0744 4.99372 13.9608 5.02679L13.5134 3.49061ZM12.8221 4.39349C12.8196 4.46817 12.802 4.73057 12.8014 4.88403L14.4013 4.89068C14.402 4.7333 14.4133 4.6827 14.4212 4.44723L12.8221 4.39349ZM12.8015 4.87327C12.8015 4.87104 12.8016 4.8161 12.82 4.74183C12.8407 4.65842 12.8914 4.52258 13.0157 4.39874C13.1405 4.27435 13.2781 4.22315 13.3672 4.20251C13.4474 4.18392 13.5061 4.18575 13.5156 4.18601L13.4714 5.7854C13.5312 5.78705 13.8726 5.80364 14.1451 5.532C14.4117 5.26636 14.4008 4.92814 14.4012 4.90143L12.8015 4.87327ZM13.5231 4.18625C11.9164 4.12677 10.4635 5.08549 10.038 6.61796L11.5797 7.04602C11.7866 6.3006 12.5188 5.75017 13.4639 5.78516L13.5231 4.18625ZM10.0382 6.61725C9.93654 6.98202 9.91748 7.33763 9.93429 7.67535L11.5323 7.59579C11.5212 7.37343 11.537 7.19925 11.5795 7.04673L10.0382 6.61725ZM11.1577 8.31372C11.1521 8.31722 11.1086 8.34244 11.1547 8.31614C11.1667 8.30926 11.211 8.2841 11.2611 8.24469C11.3167 8.20086 11.3908 8.13104 11.4538 8.02782L10.0885 7.19365C10.1491 7.09451 10.2198 7.02817 10.2712 6.98767C10.317 6.95161 10.3561 6.92965 10.362 6.9263C10.3668 6.92354 10.3704 6.9216 10.3685 6.92265C10.3681 6.92287 10.3631 6.92558 10.3582 6.92834C10.3466 6.93477 10.3294 6.9446 10.3089 6.95741L11.1577 8.31372ZM11.3409 8.17233C11.8539 7.65186 12.5164 7.42276 13.387 7.45099L13.4389 5.85184C12.2282 5.81257 11.0952 6.14234 10.2014 7.04915L11.3409 8.17233ZM13.394 7.45119C13.3831 7.45093 13.3244 7.44963 13.2457 7.42738C13.1596 7.403 13.024 7.34601 12.9042 7.21536C12.7832 7.08329 12.7372 6.94024 12.7204 6.84611C12.7053 6.76196 12.7105 6.69999 12.7113 6.68912L14.3063 6.81559C14.3101 6.76786 14.3478 6.42241 14.0838 6.1343C13.8255 5.85256 13.486 5.85292 13.4319 5.85164L13.394 7.45119ZM12.7111 6.69271C12.6992 6.85147 12.6897 7.11298 12.6829 7.2229L14.2799 7.3212C14.2945 7.08347 14.2925 7.00054 14.3066 6.81199L12.7111 6.69271ZM12.6838 7.21014C12.6727 7.35353 12.6871 7.54186 12.7824 7.73351C12.8821 7.93388 13.0401 8.07676 13.2133 8.1648L13.9384 6.73854C14.0378 6.78907 14.1455 6.88131 14.2149 7.02084C14.28 7.15164 14.2841 7.26891 14.279 7.33396L12.6838 7.21014ZM13.2118 8.16408C13.4009 8.26068 13.621 8.29849 13.845 8.25301C14.0503 8.21132 14.1995 8.11168 14.2899 8.03772L13.2772 6.79899C13.3057 6.77573 13.3901 6.71273 13.5266 6.68502C13.6817 6.65352 13.829 6.68264 13.9398 6.73927L13.2118 8.16408ZM14.2914 8.03656C14.5553 7.81975 14.8199 7.60342 15.0854 7.3864C15.3506 7.16958 15.6167 6.95208 15.8823 6.73391L14.8667 5.49751C14.6028 5.71432 14.3382 5.93065 14.0727 6.14767C13.8075 6.36449 13.5414 6.58199 13.2758 6.80016L14.2914 8.03656ZM15.8808 6.73508C15.9937 6.64282 16.2282 6.41874 16.2539 6.0473C16.2798 5.67251 16.075 5.4172 15.9714 5.30825L14.8115 6.41036C14.7996 6.39775 14.6376 6.22873 14.6577 5.9371C14.6776 5.64881 14.8579 5.50476 14.8682 5.49635L15.8808 6.73508ZM15.9726 5.30952C15.4881 4.79738 14.9993 4.28288 14.5111 3.76913L13.3512 4.87123C13.8396 5.3852 14.3272 5.89843 14.8103 6.40909L15.9726 5.30952Z" fill="#FF4FCE" mask="url(#path-4-outside-1_38_8829)"/>
<path d="M9.20518 23.0633C10.7378 23.0633 11.9802 21.8209 11.9802 20.2883C11.9802 18.7557 10.7378 17.5133 9.20518 17.5133C7.67259 17.5133 6.43018 18.7557 6.43018 20.2883C6.43018 21.8209 7.67259 23.0633 9.20518 23.0633Z" stroke="#FF4FCE" stroke-width="0.8" stroke-linecap="round" stroke-linejoin="round"/>
<path d="M14.7553 27.6883C13.4113 25.9889 11.4234 24.9133 9.20527 24.9133C6.98718 24.9133 4.99923 25.9889 3.65527 27.6883" stroke="#FF4FCE" stroke-width="0.8" stroke-linejoin="round"/>
</svg>
