<svg width="31" height="30" viewBox="0 0 31 30" fill="none" xmlns="http://www.w3.org/2000/svg">
<path d="M19.3674 12.9615C19.591 12.9613 19.8147 12.9611 20.0384 12.9608C21.4581 12.9592 22.8814 12.9576 24.3037 12.9706C24.9972 12.9761 25.6353 13.2163 26.0681 13.6492C26.5135 14.0947 26.7213 14.7342 26.512 15.4036L26.5112 15.4059C25.927 17.2483 25.3295 19.0897 24.6658 20.9249L19.3674 12.9615ZM19.3674 12.9615C19.8112 12.3525 20.1636 11.7216 20.4318 11.0484L20.4319 11.0484L20.4341 11.0426C20.8663 9.92486 20.8051 8.79412 20.1187 7.72768L20.1187 7.72766L20.1157 7.72299C19.7616 7.18379 19.1719 6.88423 18.4419 6.95873C18.0916 6.99448 17.7759 7.11024 17.5192 7.31918C17.2625 7.52811 17.103 7.79921 17.0142 8.08299C16.961 8.25319 16.9013 8.43558 16.84 8.62284C16.739 8.93133 16.6336 9.25307 16.5458 9.55546L16.5454 9.55698C16.3704 10.1653 16.0028 10.691 15.3888 11.1592C14.8317 11.5829 14.2769 12.0216 13.7279 12.4556C13.4024 12.713 13.0789 12.9688 12.7583 13.2188C12.4285 13.472 12.1002 13.8457 12.1002 14.418V14.4191C12.1002 17.0367 12.1002 19.6558 12.111 22.2752C12.111 22.2755 12.111 22.2759 12.111 22.2763L12.7202 22.2738C12.7202 22.801 13.1202 23.1034 13.7688 23.1121C14.0743 23.1133 14.3795 23.1147 14.6846 23.1161C16.5065 23.1246 18.3228 23.133 20.147 23.1034M19.3674 12.9615L20.1556 23.7126L20.147 23.1034M20.147 23.1034L20.1568 23.7126C20.1566 23.7126 20.1564 23.7126 20.1562 23.7126M20.147 23.1034L20.1562 23.7126M20.1562 23.7126C22.166 23.684 24.0468 22.6403 24.6657 20.9254L20.1562 23.7126ZM10.1525 12.9612V12.9612C10.5889 12.9656 11.0636 13.0116 11.415 13.2883C11.8159 13.6039 11.8907 14.0713 11.8907 14.4692L10.1525 12.9612ZM10.1525 12.9612H10.1464M10.1525 12.9612H10.1464M10.1464 12.9612H10.1404H10.1343H10.1283H10.1223H10.1163H10.1103H10.1043H10.0982H10.0922H10.0862H10.0802H10.0742H10.0682H10.0621H10.0561H10.0501H10.0441H10.0381H10.032H10.026H10.02H10.014H10.008H10.002H9.99594H9.98993H9.98391H9.97789H9.97187H9.96586H9.95984H9.95382H9.9478H9.94179H9.93577H9.92975H9.92373H9.91772H9.9117H9.90568H9.89966H9.89365H9.88763H9.88161H9.87559H9.86958H9.86356H9.85754H9.85152H9.84551H9.83949H9.83347H9.82745H9.82144H9.81542H9.8094H9.80338H9.79737H9.79135H9.78533H9.77931H9.7733H9.76728H9.76126H9.75524H9.74923H9.74321H9.73719H9.73117H9.72516H9.71914H9.71312H9.7071H9.70109H9.69507H9.68905H9.68303H9.67702H9.671H9.66498H9.65896H9.65295H9.64693H9.64091H9.63489H9.62888H9.62286H9.61684H9.61082H9.60481H9.59879H9.59277H9.58675H9.58074H9.57472H9.5687H9.56268H9.55667H9.55065H9.54463H9.53861H9.5326H9.52658H9.52056H9.51454H9.50853H9.50251H9.49649H9.49047H9.48446H9.47844H9.47242H9.4664H9.46039H9.45437H9.44835H9.44233H9.43632H9.4303H9.42428H9.41826H9.41225H9.40623H9.40021H9.39419H9.38817H9.38216H9.37614H9.37012H9.3641H9.35809H9.35207H9.34605H9.34003H9.33402H9.328H9.32198H9.31596H9.30995H9.30393H9.29791H9.29189H9.28588H9.27986H9.27384H9.26782H9.26181H9.25579H9.24977H9.24375H9.23774H9.23172H9.2257H9.21968H9.21367H9.20765H9.20163H9.19561H9.1896H9.18358H9.17756H9.17154H9.16553H9.15951H9.15349H9.14747H9.14146H9.13544H9.12942H9.1234H9.11739H9.11137H9.10535H9.09933H9.09332H9.0873H9.08128H9.07526H9.06925H9.06323H9.05721H9.05119H9.04518H9.03916H9.03314H9.02712H9.02111H9.01509H9.00907H9.00305H8.99704H8.99102H8.985H8.97898H8.97297H8.96695H8.96093H8.95491H8.9489H8.94288H8.93686H8.93084H8.92483H8.91881H8.91279H8.90677H8.90076H8.89474H8.88872H8.8827H8.87669H8.87067H8.86465H8.85863H8.85262H8.8466H8.84058H8.83456H8.82855H8.82253H8.81651H8.81049H8.80448H8.79846H8.79244H8.78642H8.78041H8.77439H8.76837H8.76235H8.75634H8.75032H8.7443H8.73828H8.73227H8.72625H8.72023H8.71421H8.7082H8.70218H8.69616H8.69014H8.68413H8.67811H8.67209H8.66607H8.66006H8.65404H8.64802H8.642H8.63599H8.62997H8.62395H8.61793H8.61192H8.6059H8.59988H8.59386H8.58785H8.58183H8.57581H8.56979H8.56378H8.55776H8.55174H8.54572H8.53971H8.53369H8.52767H8.52165H8.51564H8.50962H8.5036H8.49758H8.49157H8.48555H8.47953H8.47351H8.4675H8.46148H8.45546H8.44944H8.44343H8.43741H8.43139H8.42537H8.41936H8.41334H8.40732H8.4013H8.39529H8.38927H8.38325H8.37723H8.37122H8.3652H8.35918H8.35316H8.34715H8.34113H8.33511H8.32909H8.32308H8.31706H8.31104H8.30502H8.29901H8.29299H8.28697H8.28095H8.27494H8.26892H8.2629H8.25688H8.25087H8.24485H8.23883H8.23281H8.2268H8.22078H8.21476H8.20874H8.20273H8.19671H8.19069H8.18467H8.17866H8.17264H8.16662H8.1606H8.15459H8.14857H8.14255H8.13653H8.13052H8.1245H8.11848H8.11246H8.10645H8.10043H8.09441H8.08839H8.08238H8.07636H8.07034H8.06432H8.05831H8.05229H8.04627H8.04025H8.03423H8.02822H8.0222H8.01618H8.01016H8.00415H7.99813H7.99211H7.98609H7.98008H7.97406H7.96804H7.96202H7.95601H7.94999H7.94397H7.93795H7.93194H7.92592H7.9199H7.91388H7.90787H7.90185H7.89583H7.88981H7.8838H7.87778H7.87176H7.86574H7.85973H7.85371H7.84769H7.84167H7.83566H7.82964H7.82362H7.8176H7.81159H7.80557H7.79955H7.79353H7.78752H7.7815H7.77548H7.76946H7.76345H7.75743H7.75141H7.74539H7.73938H7.73336H7.72734H7.72132H7.71531H7.70929H7.70327H7.69725H7.69124H7.68522H7.6792H7.67318H7.66717H7.66115H7.65513H7.64911H7.6431H7.63708H7.63106H7.62504H7.61903H7.61301H7.60699H7.60097H7.59496H7.58894H7.58292H7.5769H7.57089H7.56487H7.55885H7.55283H7.54682H7.5408H7.53478H7.52876H7.52275H7.51673H7.51071H7.50469H7.49868H7.49266H7.48664H7.48062H7.47461H7.46859H7.46257H7.45655H7.45054H7.44452H7.4385H7.43248H7.42647H7.42045H7.41443H7.40841H7.4024H7.39638H7.39036H7.38434H7.37833H7.37231H7.36629H7.36027H7.35426H7.34824H7.34222H7.3362H7.33019H7.32417H7.31815H7.31213H7.30612H7.3001H7.29408H7.28806H7.28205H7.27603H7.27001H7.26399H7.25798H7.25196H7.24594H7.23992H7.23391H7.22789H7.22187H7.21585H7.20984H7.20382H7.1978H7.19178H7.18577H7.17975H7.17373H7.16771H7.1617H7.15568H7.14966H7.14364H7.13763H7.13161H7.12559H7.11957H7.11356H7.10754H7.10152H7.0955H7.08949H7.08347H7.07745H7.07143H7.06542C6.63933 12.9612 6.17294 13.01 5.82725 13.2975C5.44595 13.6146 5.37515 14.0737 5.37515 14.4606V14.4756V14.4907V14.5058V14.5209V14.536V14.5511V14.5662V14.5813V14.5964V14.6115V14.6265V14.6416V14.6567V14.6718V14.6869V14.702V14.7171V14.7322V14.7473V14.7624V14.7774V14.7925V14.8076V14.8227V14.8378V14.8529V14.868V14.8831V14.8982V14.9133V14.9283V14.9434V14.9585V14.9736V14.9887V15.0038V15.0189V15.034V15.0491V15.0642V15.0792V15.0943V15.1094V15.1245V15.1396V15.1547V15.1698V15.1849V15.2V15.2151V15.2301V15.2452V15.2603V15.2754V15.2905V15.3056V15.3207V15.3358V15.3509V15.366V15.381V15.3961V15.4112V15.4263V15.4414V15.4565V15.4716V15.4867V15.5018V15.5169V15.5319V15.547V15.5621V15.5772V15.5923V15.6074V15.6225V15.6376V15.6527V15.6678V15.6828V15.6979V15.713V15.7281V15.7432V15.7583V15.7734V15.7885V15.8036V15.8187V15.8337V15.8488V15.8639V15.879V15.8941V15.9092V15.9243V15.9394V15.9545V15.9696V15.9846V15.9997V16.0148V16.0299V16.045V16.0601V16.0752V16.0903V16.1054V16.1205V16.1355V16.1506V16.1657V16.1808V16.1959V16.211V16.2261V16.2412V16.2563V16.2714V16.2865V16.3015V16.3166V16.3317V16.3468V16.3619V16.377V16.3921V16.4072V16.4223V16.4374V16.4524V16.4675V16.4826V16.4977V16.5128V16.5279V16.543V16.5581V16.5732V16.5883V16.6033V16.6184V16.6335V16.6486V16.6637V16.6788V16.6939V16.709V16.7241V16.7392V16.7542V16.7693V16.7844V16.7995V16.8146V16.8297V16.8448V16.8599V16.875V16.8901V16.9051V16.9202V16.9353V16.9504V16.9655V16.9806V16.9957V17.0108V17.0259V17.041V17.056V17.0711V17.0862V17.1013V17.1164V17.1315V17.1466V17.1617V17.1768V17.1919V17.2069V17.222V17.2371V17.2522V17.2673V17.2824V17.2975V17.3126V17.3277V17.3428V17.3578V17.3729V17.388V17.4031V17.4182V17.4333V17.4484V17.4635V17.4786V17.4937V17.5087V17.5238V17.5389V17.554V17.5691V17.5842V17.5993V17.6144V17.6295V17.6446V17.6596V17.6747V17.6898V17.7049V17.72V17.7351V17.7502V17.7653V17.7804V17.7955V17.8105V17.8256V17.8407V17.8558V17.8709V17.886V17.9011V17.9162V17.9313V17.9464V17.9614V17.9765V17.9916V18.0067V18.0218V18.0369V18.052V18.0671V18.0822V18.0973V18.1123V18.1274V18.1425V18.1576V18.1727V18.1878V18.2029V18.218V18.2331V18.2482V18.2632V18.2783V18.2934V18.3085V18.3236V18.3387V18.3538V18.3689V18.384V18.3991V18.4141V18.4292V18.4443V18.4594V18.4745V18.4896V18.5047V18.5198V18.5349V18.55V18.565V18.5801V18.5952V18.6103V18.6254V18.6405V18.6556V18.6707V18.6858V18.7009V18.7159V18.731V18.7461V18.7612V18.7763V18.7914V18.8065V18.8216V18.8367V18.8518V18.8668V18.8819V18.897V18.9121V18.9272V18.9423V18.9574V18.9725V18.9876V19.0027V19.0177V19.0328V19.0479V19.063V19.0781V19.0932V19.1083V19.1234V19.1385V19.1536V19.1686V19.1837V19.1988V19.2139V19.229V19.2441V19.2592V19.2743V19.2894V19.3045V19.3195V19.3346V19.3497V19.3648V19.3799V19.395V19.4101V19.4252V19.4403V19.4554V19.4704V19.4855V19.5006V19.5157V19.5308V19.5459V19.561V19.5761V19.5912V19.6063V19.6213V19.6364V19.6515V19.6666V19.6817V19.6968V19.7119V19.727V19.7421V19.7572V19.7722V19.7873V19.8024V19.8175V19.8326V19.8477V19.8628V19.8779V19.893V19.9081V19.9231V19.9382V19.9533V19.9684V19.9835V19.9986V20.0137V20.0288V20.0439V20.059V20.074V20.0891V20.1042V20.1193V20.1344V20.1495V20.1646V20.1797V20.1948V20.2099V20.2249V20.24V20.2551V20.2702V20.2853V20.3004V20.3155V20.3306V20.3457V20.3608V20.3758V20.3909V20.406V20.4211V20.4362V20.4513V20.4664V20.4815V20.4966V20.5117V20.5268V20.5418V20.5569V20.572V20.5871V20.6022V20.6173V20.6324V20.6475V20.6626V20.6777V20.6927V20.7078V20.7229V20.738V20.7531V20.7682V20.7833V20.7984V20.8135V20.8286V20.8436V20.8587V20.8738V20.8889V20.904V20.9191V20.9342V20.9493V20.9644V20.9795V20.9945V21.0096V21.0247V21.0398V21.0549V21.07V21.0851V21.1002V21.1153V21.1304V21.1454V21.1605V21.1756V21.1907V21.2058V21.2209V21.236V21.2511V21.2662V21.2813V21.2963V21.3114V21.3265V21.3416V21.3567V21.3718V21.3869V21.402V21.4171V21.4322V21.4472V21.4623V21.4774V21.4925V21.5076V21.5227V21.5378V21.5529V21.568V21.5831V21.5981V21.6132V21.6283V21.6434V21.6585V21.6736V21.6887V21.7038V21.7189V21.734V21.749V21.7641V21.7792V21.7943V21.8094V21.8245V21.8396V21.8547V21.8698V21.8849V21.8999V21.915V21.9301V21.9452V21.9603V21.9754V21.9905V22.0056V22.0207V22.0358V22.0508V22.0659V22.081V22.0961V22.1112V22.1263V22.1414V22.1565V22.1716V22.1867C5.37515 22.593 5.47242 23.0357 5.85353 23.3427C6.1968 23.6193 6.65121 23.6813 7.08046 23.686L7.08191 23.686M10.1464 12.9612L7.08191 23.686M7.08191 23.686C8.11146 23.6947 9.14101 23.6947 10.1706 23.686M7.08191 23.686L10.1706 23.686M10.1706 23.686C10.6071 23.6858 11.0651 23.6246 11.411 23.346C11.7938 23.0376 11.8907 22.5924 11.8907 22.1867V22.1791V22.1715V22.1639V22.1563V22.1487V22.1411V22.1335V22.1259V22.1183V22.1107V22.1031V22.0955V22.0879V22.0803V22.0727V22.0651V22.0575V22.0499V22.0423V22.0347V22.0271V22.0196V22.012V22.0044V21.9968V21.9892V21.9816V21.974V21.9664V21.9588V21.9512V21.9436V21.936V21.9284V21.9208V21.9132V21.9056V21.898V21.8904V21.8828V21.8752V21.8676V21.86V21.8525V21.8449V21.8373V21.8297V21.8221V21.8145V21.8069V21.7993V21.7917V21.7841V21.7765V21.7689V21.7613V21.7537V21.7461V21.7385V21.7309V21.7233V21.7157V21.7081V21.7005V21.693V21.6854V21.6778V21.6702V21.6626V21.655V21.6474V21.6398V21.6322V21.6246V21.617V21.6094V21.6018V21.5942V21.5866V21.579V21.5714V21.5638V21.5563V21.5487V21.5411V21.5335V21.5259V21.5183V21.5107V21.5031V21.4955V21.4879V21.4803V21.4727V21.4651V21.4575V21.4499V21.4423V21.4347V21.4272V21.4196V21.412V21.4044V21.3968V21.3892V21.3816V21.374V21.3664V21.3588V21.3512V21.3436V21.336V21.3284V21.3208V21.3133V21.3057V21.2981V21.2905V21.2829V21.2753V21.2677V21.2601V21.2525V21.2449V21.2373V21.2297V21.2221V21.2145V21.207V21.1994V21.1918V21.1842V21.1766V21.169V21.1614V21.1538V21.1462V21.1386V21.131V21.1234V21.1158V21.1083V21.1007V21.0931V21.0855V21.0779V21.0703V21.0627V21.0551V21.0475V21.0399V21.0323V21.0247V21.0172V21.0096V21.002V20.9944V20.9868V20.9792V20.9716V20.964V20.9564V20.9488V20.9413V20.9337V20.9261V20.9185V20.9109V20.9033V20.8957V20.8881V20.8805V20.8729V20.8653V20.8578V20.8502V20.8426V20.835V20.8274V20.8198V20.8122V20.8046V20.797V20.7895V20.7819V20.7743V20.7667V20.7591V20.7515V20.7439V20.7363V20.7287V20.7212V20.7136V20.706V20.6984V20.6908V20.6832V20.6756V20.668V20.6604V20.6529V20.6453V20.6377V20.6301V20.6225V20.6149V20.6073V20.5997V20.5922V20.5846V20.577V20.5694V20.5618V20.5542V20.5466V20.5391V20.5315V20.5239V20.5163V20.5087V20.5011V20.4935V20.486V20.4784V20.4708V20.4632V20.4556V20.448V20.4404V20.4329V20.4253V20.4177V20.4101V20.4025V20.3949V20.3873V20.3798V20.3722V20.3646V20.357V20.3494V20.3418V20.3342V20.3267V20.3191V20.3115V20.3039V20.2963V20.2887V20.2812V20.2736V20.266V20.2584V20.2508V20.2432V20.2357V20.2281V20.2205V20.2129V20.2053V20.1978V20.1902V20.1826V20.175V20.1674V20.1598V20.1523V20.1447V20.1371V20.1295V20.1219V20.1144V20.1068V20.0992V20.0916V20.084V20.0764V20.0689V20.0613V20.0537V20.0461V20.0385V20.031V20.0234V20.0158V20.0082V20.0006V19.9931V19.9855V19.9779V19.9703V19.9627V19.9552V19.9476V19.94V19.9324V19.9249V19.9173V19.9097V19.9021V19.8945V19.887V19.8794V19.8718V19.8642V19.8567V19.8491V19.8415V19.8339V19.8263V19.8188V19.8112V19.8036V19.796V19.7885V19.7809V19.7733V19.7657V19.7582V19.7506V19.743V19.7354V19.7279V19.7203V19.7127V19.7051V19.6976V19.69V19.6824V19.6748V19.6673V19.6597V19.6521V19.6445V19.637V19.6294V19.6218V19.6142V19.6067V19.5991V19.5915V19.5839V19.5764V19.5688V19.5612V19.5537V19.5461V19.5385V19.5309V19.5234V19.5158V19.5082V19.5006V19.4931V19.4855V19.4779V19.4704V19.4628V19.4552V19.4477V19.4401V19.4325V19.4249V19.4174V19.4098V19.4022V19.3947V19.3871V19.3795V19.372V19.3644V19.3568V19.3492V19.3417V19.3341V19.3265V19.319V19.3114V19.3038V19.2963V19.2887V19.2811V19.2736V19.266V19.2584V19.2509V19.2433V19.2357V19.2282V19.2206V19.213V19.2055V19.1979V19.1903V19.1828V19.1752V19.1676V19.1601V19.1525V19.1449V19.1374V19.1298V19.1223V19.1147V19.1071V19.0996V19.092V19.0844V19.0769V19.0693V19.0617V19.0542V19.0466V19.0391V19.0315V19.0239V19.0164V19.0088V19.0012V18.9937V18.9861V18.9786V18.971V18.9634V18.9559V18.9483V18.9408V18.9332V18.9256V18.9181V18.9105V18.903V18.8954V18.8878V18.8803V18.8727V18.8652V18.8576V18.85V18.8425V18.8349V18.8274V18.8198V18.8123V18.8047V18.7971V18.7896V18.782V18.7745V18.7669V18.7594V18.7518V18.7443V18.7367V18.7291V18.7216V18.714V18.7065V18.6989V18.6914V18.6838V18.6763V18.6687V18.6611V18.6536V18.646V18.6385V18.6309V18.6234V18.6158V18.6083V18.6007V18.5932V18.5856V18.5781V18.5705V18.563V18.5554V18.5479V18.5403V18.5328V18.5252V18.5177V18.5101V18.5026V18.495V18.4875V18.4799V18.4724V18.4648V18.4573V18.4497V18.4422V18.4346V18.4271V18.4195V18.412V18.4044V18.3969V18.3893V18.3818V18.3742V18.3667V18.3591V18.3516V18.344V18.3365V18.329V18.3214V18.3139V18.3063L10.1706 23.686Z" stroke="#FF4FCE" stroke-width="1.21844"/>
</svg>
