<svg width="16" height="16" viewBox="0 0 16 16" fill="none" xmlns="http://www.w3.org/2000/svg">
<g clip-path="url(#clip0_3122_22589)">
<path d="M15.1635 1.11858C14.9848 0.940767 14.7483 0.841769 14.4965 0.841768L11.1585 0.843691C10.9047 0.843691 10.6654 0.942688 10.4857 1.12338C10.3059 1.30312 10.2079 1.54244 10.2079 1.79618C10.2079 2.05088 10.3079 2.28925 10.4886 2.46898C10.6683 2.64679 10.9057 2.74483 11.1575 2.74483L11.1623 2.74483L12.1946 2.73906L10.4751 4.45854C9.38708 3.67041 8.05206 3.26673 6.70166 3.31959C5.21958 3.37822 3.81343 3.9847 2.74272 5.02946C1.67201 6.07422 1.02997 7.46403 0.936735 8.94322C0.827165 10.6762 1.46536 12.3707 2.68793 13.5942C3.82016 14.7264 5.35702 15.3579 6.95444 15.3579C7.08227 15.3579 7.2101 15.354 7.33889 15.3454C8.81809 15.2512 10.2079 14.6091 11.2536 13.5375C12.2984 12.4658 12.9058 11.0597 12.9635 9.57854C13.0164 8.22813 12.6127 6.89407 11.8236 5.8051L13.5431 4.08562L13.5373 5.11788C13.5363 5.37259 13.6344 5.61191 13.8131 5.7926C13.9919 5.9733 14.2312 6.07326 14.4859 6.07326L14.4879 6.07326C14.7406 6.07326 14.979 5.97522 15.1587 5.79549C15.3385 5.61575 15.4375 5.37739 15.4384 5.12269L15.4403 1.78465C15.4403 1.53283 15.3423 1.29543 15.1645 1.11666L15.1635 1.11858ZM11.146 9.33633C11.146 11.6527 9.26117 13.5365 6.94579 13.5365C4.6304 13.5365 2.7456 11.6517 2.7456 9.33633C2.7456 7.02094 4.6304 5.13615 6.94579 5.13614C9.26117 5.13614 11.146 7.02094 11.146 9.33633Z" fill="white"/>
</g>
<defs>
<clipPath id="clip0_3122_22589">
<rect width="16" height="16" fill="white"/>
</clipPath>
</defs>
</svg>
