<svg width="41" height="40" viewBox="0 0 41 40" fill="none" xmlns="http://www.w3.org/2000/svg">
<path d="M8.50002 35H31.8334C33.6743 35 35.1667 33.5076 35.1667 31.6667V8.33333C35.1667 6.49238 33.6743 5 31.8334 5H8.50002C6.65907 5 5.16669 6.49238 5.16669 8.33333V31.6667C5.16669 33.5076 6.65907 35 8.50002 35ZM8.50002 35L26.8334 16.6667L35.1667 25M16.8334 14.1667C16.8334 15.5474 15.7141 16.6667 14.3334 16.6667C12.9526 16.6667 11.8334 15.5474 11.8334 14.1667C11.8334 12.786 12.9526 11.6667 14.3334 11.6667C15.7141 11.6667 16.8334 12.786 16.8334 14.1667Z" stroke="#00B492" stroke-width="2" stroke-linecap="round" stroke-linejoin="round"/>
</svg>
