<svg width="20" height="20" viewBox="0 0 20 20" fill="none" xmlns="http://www.w3.org/2000/svg">
<path d="M4.9974 5.00033H5.00573M4.9974 15.0003H5.00573M3.33073 1.66699H16.6641C17.5845 1.66699 18.3307 2.41318 18.3307 3.33366V6.66699C18.3307 7.58747 17.5845 8.33366 16.6641 8.33366H3.33073C2.41025 8.33366 1.66406 7.58747 1.66406 6.66699V3.33366C1.66406 2.41318 2.41025 1.66699 3.33073 1.66699ZM3.33073 11.667H16.6641C17.5845 11.667 18.3307 12.4132 18.3307 13.3337V16.667C18.3307 17.5875 17.5845 18.3337 16.6641 18.3337H3.33073C2.41025 18.3337 1.66406 17.5875 1.66406 16.667V13.3337C1.66406 12.4132 2.41025 11.667 3.33073 11.667Z" stroke="white" stroke-width="1.25" stroke-linecap="round" stroke-linejoin="round"/>
</svg>
