<svg width="25" height="24" viewBox="0 0 25 24" fill="none" xmlns="http://www.w3.org/2000/svg">
<path d="M6.92756 19.3551C8.47106 19.3551 9.72231 18.1039 9.72231 16.5604C9.72231 15.0169 8.47106 13.7656 6.92756 13.7656C5.38406 13.7656 4.13281 15.0169 4.13281 16.5604C4.13281 18.1039 5.38406 19.3551 6.92756 19.3551Z" stroke="white" stroke-width="1.52166" stroke-linecap="round" stroke-linejoin="round"/>
<path d="M9.71875 16.5606V4.45008L20.8977 2.58691V14.6975" stroke="white" stroke-width="1.52166" stroke-linecap="round" stroke-linejoin="round"/>
<path d="M18.1072 17.4918C19.6507 17.4918 20.902 16.2406 20.902 14.6971C20.902 13.1536 19.6507 11.9023 18.1072 11.9023C16.5638 11.9023 15.3125 13.1536 15.3125 14.6971C15.3125 16.2406 16.5638 17.4918 18.1072 17.4918Z" stroke="white" stroke-width="1.52166" stroke-linecap="round" stroke-linejoin="round"/>
</svg>
