<svg width="32" height="34" viewBox="0 0 32 34" fill="none" xmlns="http://www.w3.org/2000/svg">
<path d="M27.0491 20.1112V28.723C27.0491 30.744 25.508 32.3843 23.6092 32.3843H7.19384C5.29499 32.3843 3.75391 30.744 3.75391 28.723V5.37879C3.75391 3.35778 5.29499 1.71753 7.19384 1.71753H22.1168" stroke="white" stroke-width="1.6" stroke-miterlimit="10" stroke-linecap="round" stroke-linejoin="round"/>
<path d="M21.8012 5.66528H9.00223C8.17015 5.66528 7.49561 6.25595 7.49561 6.98458V15.5671C7.49561 16.2957 8.17015 16.8864 9.00223 16.8864H21.8012C22.6333 16.8864 23.3078 16.2957 23.3078 15.5671V13.0987" stroke="white" stroke-width="1.6"/>
<path d="M6.57617 29.0668V21.0668H9.34173C9.89182 21.0668 10.3482 21.1965 10.7109 21.456C11.0796 21.7154 11.3547 22.0506 11.536 22.4614C11.7234 22.865 11.8171 23.2866 11.8171 23.7262C11.8171 24.1803 11.7234 24.6127 11.536 25.0235C11.3547 25.4271 11.0796 25.7587 10.7109 26.0181C10.3482 26.2776 9.89182 26.4073 9.34173 26.4073H7.97255V29.0668H6.57617ZM9.34173 22.5262H7.97255V24.9587H9.34173C9.57748 24.9587 9.77394 24.901 9.93111 24.7857C10.0883 24.6632 10.2062 24.5118 10.2847 24.3316C10.3694 24.1443 10.4117 23.9461 10.4117 23.737C10.4117 23.5352 10.3694 23.3406 10.2847 23.1533C10.2062 22.9659 10.0883 22.8145 9.93111 22.6992C9.77394 22.5839 9.57748 22.5262 9.34173 22.5262Z" fill="white"/>
<path d="M12.7303 29.0668V21.0668H15.2692C15.8132 21.0668 16.2908 21.1821 16.7018 21.4127C17.1189 21.6361 17.4635 21.9388 17.7355 22.3208C18.0075 22.7028 18.2131 23.1316 18.3521 23.6073C18.4911 24.083 18.5606 24.5695 18.5606 25.0668C18.5606 25.5641 18.4911 26.0506 18.3521 26.5262C18.2131 27.0019 18.0075 27.4307 17.7355 27.8127C17.4635 28.1947 17.1189 28.501 16.7018 28.7316C16.2908 28.9551 15.8132 29.0668 15.2692 29.0668H12.7303ZM15.2057 22.5262H14.1267V27.5857H15.2057C15.647 27.5857 16.0097 27.4632 16.2938 27.2181C16.584 26.9731 16.7986 26.656 16.9376 26.2668C17.0827 25.8776 17.1552 25.474 17.1552 25.056C17.1552 24.6379 17.0827 24.2379 16.9376 23.856C16.7986 23.4668 16.584 23.1497 16.2938 22.9046C16.0097 22.6524 15.647 22.5262 15.2057 22.5262Z" fill="white"/>
<path d="M19.5397 29.0668V21.0668H24.2276V22.5154H20.9361V24.6127H23.8105V26.0073H20.9361V29.0668H19.5397Z" fill="white"/>
<path d="M27.0493 1.71753L27.0493 11.9131" stroke="white" stroke-width="1.6" stroke-linecap="round" stroke-linejoin="round"/>
<path d="M29.6143 9.34888L27.0496 11.9136L24.4849 9.34888" stroke="white" stroke-width="1.6" stroke-linecap="round" stroke-linejoin="round"/>
</svg>
