<svg width="41" height="42" viewBox="0 0 41 42" fill="none" xmlns="http://www.w3.org/2000/svg">
<path d="M31.5615 11.7757V6.08442C31.5615 3.52902 29.6129 1.45508 27.212 1.45508H6.45624C4.05532 1.45508 2.10675 3.52902 2.10675 6.08442V35.6011C2.10675 38.1565 4.05532 40.2305 6.45624 40.2305H27.212C29.6129 40.2305 31.5615 38.1565 31.5615 35.6011V24.7123" stroke="#916BFF" stroke-width="2" stroke-miterlimit="10" stroke-linecap="round" stroke-linejoin="round"/>
<path d="M16.2278 28.7529H6.93097" stroke="#916BFF" stroke-width="2" stroke-linecap="round" stroke-linejoin="round"/>
<path d="M26.7552 34.6318H6.93097" stroke="#916BFF" stroke-width="2" stroke-linecap="round" stroke-linejoin="round"/>
<path d="M16.4133 22.8174H8.33917C7.2346 22.8174 6.33917 21.922 6.33917 20.8174V7.80664C6.33917 6.70207 7.2346 5.80664 8.33917 5.80664H25.3294C26.434 5.80664 27.3294 6.70207 27.3294 7.80664V10.4938" stroke="#916BFF" stroke-width="2"/>
<path d="M37.7799 9.2359L37.7799 9.2359L37.7786 9.23445C37.3612 8.7775 36.8253 8.4481 36.255 8.32767C35.6837 8.20704 34.991 8.29007 34.4711 8.80201L34.4711 8.80201L34.4682 8.80484L20.2478 22.9207C20.0831 23.0842 19.9804 23.2999 19.9573 23.5309L19.7076 26.0268C19.6785 26.3178 19.7783 26.6071 19.9807 26.8182C20.1831 27.0294 20.4678 27.1414 20.7598 27.1247L23.1633 26.9869C23.4071 26.9729 23.6373 26.8703 23.8106 26.6982L38.031 12.5824C38.5403 12.0769 38.6411 11.3923 38.559 10.8291C38.4756 10.2572 38.1971 9.69446 37.7799 9.2359Z" stroke="#916BFF" stroke-width="2" stroke-miterlimit="10" stroke-linecap="round" stroke-linejoin="round"/>
</svg>
