<svg width="18" height="18" viewBox="0 0 18 18" fill="none" xmlns="http://www.w3.org/2000/svg">
<path d="M1.5 14.625H5.625L9.75 10.5L11.25 12L17.25 6" stroke="#6BEABC" stroke-width="0.75" stroke-linecap="round"/>
<path d="M14.25 6H17.25V9" stroke="#6BEABC" stroke-width="0.75" stroke-linecap="round"/>
<path d="M1.5 14.25C1.5 12.6536 3.01266 11.3625 4.875 11.3625C6.03994 11.3625 7.06806 11.8677 7.67471 12.6368M6.83953 8.0625C6.83953 9.20159 5.96 10.125 4.87504 10.125C3.79008 10.125 2.91054 9.20159 2.91054 8.0625C2.91054 6.92341 3.79008 6 4.87504 6C5.96 6 6.83953 6.92341 6.83953 8.0625Z" stroke="#6BEABC" stroke-width="0.75" stroke-linecap="round" stroke-linejoin="round"/>
<path d="M8.2501 8.52682C8.60206 8.4204 8.98074 8.3625 9.3751 8.3625C10.9872 8.3625 12.3373 9.32999 12.671 10.6255M11.3396 5.0625C11.3396 6.20159 10.4601 7.125 9.37514 7.125C8.29018 7.125 7.41064 6.20159 7.41064 5.0625C7.41064 3.92341 8.29018 3 9.37514 3C10.4601 3 11.3396 3.92341 11.3396 5.0625Z" stroke="#6BEABC" stroke-width="0.75" stroke-linecap="round" stroke-linejoin="round"/>
</svg>
