<svg width="19" height="19" viewBox="0 0 19 19" fill="none" xmlns="http://www.w3.org/2000/svg">
<path d="M1.39941 9.04971C0.902358 9.04971 0.499414 9.45265 0.499414 9.94971C0.499414 10.4468 0.902358 10.8497 1.39941 10.8497V9.04971ZM17.7858 10.5861C18.1373 10.2346 18.1373 9.66478 17.7858 9.31331L12.0582 3.58575C11.7068 3.23427 11.1369 3.23427 10.7855 3.58575C10.434 3.93722 10.434 4.50707 10.7855 4.85854L15.8766 9.94971L10.7855 15.0409C10.434 15.3923 10.434 15.9622 10.7855 16.3137C11.1369 16.6651 11.7068 16.6651 12.0582 16.3137L17.7858 10.5861ZM1.39941 10.8497H17.1494V9.04971H1.39941V10.8497Z" fill="#878787"/>
</svg>
