<svg width="33" height="32" viewBox="0 0 33 32" fill="none" xmlns="http://www.w3.org/2000/svg">
<path d="M29.6568 12.7406H26.9123C26.4712 12.7406 26.1078 12.4977 25.9389 12.0903C25.7699 11.6829 25.8557 11.2537 26.167 10.9419L28.1075 9.00198C28.3927 8.71678 28.5497 8.33706 28.5497 7.93397C28.5497 7.53034 28.3927 7.15116 28.1075 6.86542L25.6341 4.39205C25.0637 3.82165 24.069 3.82056 23.4975 4.39205L21.5576 6.33196C21.2458 6.64323 20.8156 6.73015 20.4092 6.56066C20.0018 6.39171 19.759 6.02829 19.759 5.58718V2.84273C19.759 2.00994 19.0815 1.33252 18.2487 1.33252H14.7503C13.9175 1.33252 13.2401 2.00994 13.2401 2.84273V5.58718C13.2401 6.02829 12.9972 6.39171 12.5898 6.56066C12.1835 6.7307 11.7532 6.64323 11.4414 6.33196L9.50149 4.39205C8.93001 3.82056 7.93533 3.82165 7.36493 4.39205L4.89156 6.86542C4.60636 7.15062 4.44936 7.53034 4.44936 7.93397C4.44936 8.33706 4.60636 8.71624 4.89156 9.00198L6.83201 10.9419C7.14329 11.2537 7.22858 11.6829 7.06017 12.0903C6.89177 12.4977 6.5278 12.7406 6.08669 12.7406H3.34224C2.50945 12.7406 1.83203 13.418 1.83203 14.2508V17.7487C1.83203 18.582 2.50945 19.2594 3.34224 19.2594H6.08669C6.5278 19.2594 6.89123 19.5023 7.06017 19.9097C7.22912 20.3171 7.14329 20.7463 6.83201 21.0581L4.89156 22.998C4.60636 23.2832 4.44936 23.6629 4.44936 24.066C4.44936 24.4697 4.60636 24.8488 4.89156 25.1346L7.36493 27.608C7.93588 28.1789 8.93001 28.18 9.50149 27.608L11.4414 25.6675C11.7532 25.3562 12.1818 25.2704 12.5898 25.4393C12.9972 25.6083 13.2401 25.9717 13.2401 26.4128V29.1573C13.2401 29.9901 13.9175 30.6675 14.7503 30.6675H18.2482C19.081 30.6675 19.7584 29.9901 19.7584 29.1573V26.4128C19.7584 25.9717 20.0012 25.6083 20.4087 25.4393C20.8166 25.2698 21.2453 25.3562 21.5571 25.6675L23.497 27.608C24.0685 28.1794 25.0631 28.1784 25.6335 27.608L28.1069 25.1346C28.3921 24.8494 28.5491 24.4697 28.5491 24.066C28.5491 23.6629 28.3921 23.2838 28.1069 22.998L26.1665 21.0581C25.8552 20.7463 25.7699 20.3171 25.9383 19.9097C26.1067 19.5023 26.4712 19.2594 26.9123 19.2594H29.6568C30.4896 19.2594 31.167 18.582 31.167 17.7492V14.2508C31.167 13.418 30.4896 12.7406 29.6568 12.7406ZM30.0805 17.7492C30.0805 17.9828 29.8904 18.173 29.6568 18.173H26.9123C26.0301 18.173 25.2723 18.6793 24.9349 19.4941C24.597 20.309 24.7747 21.2032 25.3989 21.8268L27.3393 23.7667C27.505 23.9324 27.505 24.2013 27.3393 24.3664L24.866 26.8398C24.7008 27.005 24.4319 27.006 24.2662 26.8398L22.3263 24.8994C21.7021 24.2752 20.8085 24.0986 19.9936 24.4354C19.1788 24.7728 18.6725 25.5306 18.6725 26.4128V29.1573C18.6725 29.3909 18.4823 29.581 18.2487 29.581H14.7503C14.5167 29.581 14.3266 29.3909 14.3266 29.1573V26.4128C14.3266 25.5306 13.8203 24.7728 13.0054 24.4354C12.7321 24.3219 12.4507 24.2665 12.1726 24.2665C11.6218 24.2665 11.0878 24.4838 10.6727 24.8988L8.73281 26.8393C8.56658 27.0055 8.29767 27.0044 8.13307 26.8393L5.6597 24.3659C5.49401 24.2002 5.49401 23.9313 5.6597 23.7662L7.60015 21.8262C8.22379 21.2026 8.40198 20.3084 8.06408 19.4936C7.72673 18.6793 6.96891 18.173 6.08669 18.173H3.34224C3.10865 18.173 2.91851 17.9828 2.91851 17.7492V14.2508C2.91851 14.0172 3.10865 13.827 3.34224 13.827H6.08669C6.96891 13.827 7.72673 13.3207 8.06408 12.5059C8.40198 11.691 8.22434 10.7968 7.60015 10.1732L5.6597 8.2333C5.49401 8.06761 5.49401 7.79871 5.6597 7.63356L8.13307 5.16019C8.29822 4.9945 8.56712 4.9945 8.73281 5.16019L10.6727 7.1001C11.2958 7.72319 12.1894 7.90192 13.0054 7.56403C13.8203 7.22722 14.3266 6.4694 14.3266 5.58718V2.84273C14.3266 2.60913 14.5167 2.419 14.7503 2.419H18.2482C18.4823 2.419 18.6725 2.60913 18.6725 2.84273V5.58718C18.6725 6.4694 19.1788 7.22722 19.9936 7.56457C20.8096 7.90246 21.7027 7.72428 22.3263 7.10064L24.2662 5.16073C24.4324 4.99504 24.7013 4.99504 24.866 5.16073L27.3393 7.6341C27.505 7.79979 27.505 8.0687 27.3393 8.23384L25.3989 10.1738C24.7752 10.7974 24.597 11.6916 24.9349 12.5064C25.2723 13.3213 26.0301 13.8276 26.9123 13.8276H29.6568C29.8904 13.827 30.0805 14.0172 30.0805 14.2508V17.7492Z" fill="white"/>
<path d="M16.5005 11.1108C13.8044 11.1108 11.6113 13.3039 11.6113 16C11.6113 18.6961 13.8044 20.8892 16.5005 20.8892C19.1966 20.8892 21.3896 18.6961 21.3896 16C21.3896 13.3039 19.1966 11.1108 16.5005 11.1108ZM16.5005 19.8027C14.4041 19.8027 12.6978 18.0964 12.6978 16C12.6978 13.9036 14.4041 12.1973 16.5005 12.1973C18.5969 12.1973 20.3032 13.9036 20.3032 16C20.3032 18.0964 18.5969 19.8027 16.5005 19.8027Z" fill="white"/>
</svg>
