<svg width="38" height="32" viewBox="0 0 38 32" fill="none" xmlns="http://www.w3.org/2000/svg">
<g filter="url(#filter0_d_94_43638)">
<path d="M33.5496 12.7699C33.9259 12.4301 33.9358 11.8428 33.5713 11.4904L21.9389 0.247742C21.3832 -0.289382 20.4549 0.104437 20.4549 0.877321V5.5705C16.1068 5.50329 12.8401 6.64052 10.4125 8.38332C7.94691 10.1534 6.37597 12.5269 5.40792 14.8274C4.44078 17.1258 4.06806 19.368 4.00871 20.9053C3.97944 21.6635 4.02465 22.2892 4.13329 22.6715C4.16106 22.7692 4.19857 22.8717 4.25249 22.9624C4.29996 23.0422 4.40037 23.1812 4.58283 23.2392C4.80237 23.3091 4.98871 23.2195 5.09671 23.1267C5.19419 23.043 5.25969 22.9351 5.30502 22.8445L5.31078 22.833L5.31541 22.8221L5.31585 22.8211L5.31696 22.8186L5.3259 22.7992C5.33453 22.7807 5.34858 22.7514 5.36847 22.7124C5.40825 22.6344 5.47133 22.5175 5.56104 22.3701C5.74049 22.0753 6.02616 21.6591 6.4446 21.1884C7.28042 20.2481 8.64862 19.087 10.7673 18.2395C11.9733 17.7571 13.9836 17.5375 15.9545 17.502C17.8353 17.4681 19.5895 17.6026 20.4549 17.7934V22.6242C20.4549 23.3829 21.3541 23.7825 21.9173 23.274L33.5496 12.7699Z" fill="white"/>
<path d="M29.966 11.5203C30.8063 10.5435 29.966 9.15026 29.966 9.15026L28.5161 6.60786L21.9389 0.247742C21.3832 -0.289382 20.4549 0.104437 20.4549 0.877321V5.5705C16.1068 5.50329 12.8401 6.64052 10.4125 8.38332C7.94691 10.1534 6.37597 12.5269 5.40792 14.8274C4.44078 17.1258 4.06806 19.368 4.00871 20.9053C3.97944 21.6635 4.02465 22.2892 4.13329 22.6715C4.16106 22.7692 4.19857 22.8717 4.25249 22.9624C4.29996 23.0422 4.40037 23.1812 4.58283 23.2392C4.80237 23.3091 4.98871 23.2195 5.09671 23.1267C5.19419 23.043 5.25969 22.9351 5.30502 22.8445L5.31078 22.833L5.31541 22.8221L5.31585 22.8211L5.31696 22.8186L5.3259 22.7992C5.33453 22.7807 5.34858 22.7514 5.36847 22.7124C5.40825 22.6344 5.47133 22.5175 5.56104 22.3701C5.74049 22.0753 6.02616 21.6591 6.4446 21.1884C7.28042 20.2481 11.918 16.9574 14.5447 15.6441C16.7337 14.3307 20.4549 13.4551 20.4549 13.4551V18.7086C20.4549 19.4673 21.3541 19.8669 21.9173 19.3584L29.966 11.5203Z" fill="white"/>
</g>
<defs>
<filter id="filter0_d_94_43638" x="0.497698" y="-3.21336" width="36.8425" height="30.5061" filterUnits="userSpaceOnUse" color-interpolation-filters="sRGB">
<feFlood flood-opacity="0" result="BackgroundImageFix"/>
<feColorMatrix in="SourceAlpha" type="matrix" values="0 0 0 0 0 0 0 0 0 0 0 0 0 0 0 0 0 0 127 0" result="hardAlpha"/>
<feOffset dy="0.28894"/>
<feGaussianBlur stdDeviation="1.75115"/>
<feColorMatrix type="matrix" values="0 0 0 0 0 0 0 0 0 0 0 0 0 0 0 0 0 0 0.1 0"/>
<feBlend mode="normal" in2="BackgroundImageFix" result="effect1_dropShadow_94_43638"/>
<feBlend mode="normal" in="SourceGraphic" in2="effect1_dropShadow_94_43638" result="shape"/>
</filter>
</defs>
</svg>
