<svg width="16" height="16" viewBox="0 0 16 16" fill="none" xmlns="http://www.w3.org/2000/svg">
<path d="M9.01731 2.56852L9.0173 2.56852L8.945 3.4527L8.44505 3.45973C8.44507 3.4607 8.44508 3.46168 8.44509 3.46266C8.44682 3.58892 8.44576 3.73173 8.44465 3.88104C8.44345 4.04261 8.44219 4.21178 8.44435 4.37582C5.34657 4.60423 2.79914 6.77617 2.15656 9.77593C2.00376 10.4865 1.99452 11.1923 2.06199 11.9103C2.07896 12.091 2.19247 12.2483 2.35857 12.3213C2.52467 12.3943 2.7173 12.3716 2.86188 12.262C2.8689 12.2567 2.86989 12.256 2.87313 12.254C2.87666 12.2517 2.88285 12.2477 2.90238 12.2341C2.90305 12.2336 2.90388 12.2331 2.90488 12.2324C2.92195 12.2207 2.98574 12.177 3.04355 12.099C4.4376 10.4326 6.25673 9.63008 8.44072 9.47376C8.4397 9.62686 8.44017 9.78286 8.44063 9.93563C8.44118 10.1169 8.44172 10.2937 8.43973 10.4557C8.43594 10.6122 8.46124 10.7896 8.55204 10.9575C8.6475 11.134 8.79647 11.2646 8.97794 11.345L9.18048 10.8879L8.97697 11.3446C9.1731 11.432 9.3809 11.4486 9.58085 11.3896C9.76687 11.3348 9.90903 11.2255 10.0112 11.1259L10.012 11.1251C10.6054 10.5441 11.2001 9.96429 11.7953 9.38404L11.7962 9.38319C12.3914 8.80292 12.9871 8.22219 13.5816 7.6401C13.7327 7.49269 13.9022 7.27146 13.908 6.97464C13.9139 6.67158 13.7472 6.44474 13.5927 6.29388C12.404 5.12989 11.2047 3.96074 10.0059 2.79205L9.6631 3.14366L10.0059 2.79205C9.77932 2.57119 9.42487 2.41201 9.01731 2.56852Z" stroke="white" stroke-linejoin="round"/>
</svg>
