<svg width="31" height="30" viewBox="0 0 31 30" fill="none" xmlns="http://www.w3.org/2000/svg">
<path d="M17.5621 20.6524L17.206 21.4516C17.555 21.6072 17.9239 21.6365 18.2787 21.5318C18.6091 21.4344 18.8624 21.2401 19.0456 21.0616L19.047 21.0602C20.1224 20.0071 21.2003 18.9562 22.2791 17.9046C23.3575 16.8533 24.4367 15.8012 25.5137 14.7466C25.7851 14.4818 26.0851 14.0884 26.0954 13.5629C26.1059 13.0262 25.8107 12.623 25.5334 12.3522C23.3801 10.2437 21.2076 8.12572 19.0359 6.0086C18.6315 5.6144 18.0016 5.33229 17.2775 5.61037L17.2775 5.61036L17.2733 5.61199C16.9355 5.74374 16.6525 5.97142 16.4706 6.29353C16.2984 6.59848 16.2538 6.92213 16.2607 7.20087C16.2638 7.43112 16.2619 7.69051 16.2599 7.96129C16.2576 8.26295 16.2553 8.57877 16.2597 8.88421C10.6481 9.28561 6.03119 13.2149 4.86812 18.6446C4.59216 19.9279 4.57534 21.2032 4.69735 22.5018C4.72706 22.8179 4.9257 23.0931 5.21638 23.2209C5.50706 23.3487 5.84415 23.309 6.09718 23.1172C6.11043 23.1071 6.11263 23.1057 6.11916 23.1015C6.126 23.097 6.13758 23.0896 6.17154 23.0659C6.17274 23.0651 6.17423 23.0641 6.17599 23.0629C6.20653 23.0419 6.31908 22.9648 6.42076 22.8273C8.9595 19.7922 12.2747 18.3356 16.253 18.0577C16.2508 18.3453 16.2517 18.6388 16.2526 18.9262C16.2536 19.2547 16.2546 19.5753 16.251 19.87C16.2442 20.1499 16.2894 20.4656 16.4507 20.7639C16.6202 21.0771 16.8847 21.3093 17.2077 21.4524L17.5621 20.6524ZM17.5621 20.6524C17.2422 20.5106 17.1161 20.2365 17.1258 19.8868L17.5912 6.4272C17.9112 6.30433 18.1924 6.4083 18.4251 6.63515C20.5969 8.75239 22.7688 10.8696 24.9212 12.9774C25.3284 13.3744 25.3187 13.7147 24.9018 14.1211C23.8256 15.175 22.7469 16.2266 21.6682 17.2782C20.5896 18.3297 19.511 19.3812 18.4348 20.435C18.1827 20.6808 17.9015 20.8036 17.5621 20.6524Z" stroke="#FF4FCE" stroke-width="1.75" stroke-linejoin="round"/>
</svg>
