<svg width="19" height="20" viewBox="0 0 19 20" fill="none" xmlns="http://www.w3.org/2000/svg">
<path d="M0.526001 16.3861C0.526001 15.5025 1.24235 14.7861 2.126 14.7861H2.51561C3.39926 14.7861 4.11561 15.5025 4.11561 16.3861V17.9723C4.11561 18.8559 3.39926 19.5723 2.51561 19.5723H2.126C1.24235 19.5723 0.526001 18.8559 0.526001 17.9723V16.3861Z" fill="#161616"/>
<path d="M5.31214 11.6C5.31214 10.7163 6.02849 10 6.91214 10H7.30175C8.1854 10 8.90175 10.7163 8.90175 11.6V17.9723C8.90175 18.8559 8.1854 19.5723 7.30175 19.5723H6.91214C6.02849 19.5723 5.31214 18.8559 5.31214 17.9723V11.6Z" fill="#161616"/>
<path d="M10.0983 6.81386C10.0983 5.93021 10.8146 5.21386 11.6983 5.21386H12.0879C12.9715 5.21386 13.6879 5.9302 13.6879 6.81386V17.9723C13.6879 18.8559 12.9715 19.5723 12.0879 19.5723H11.6983C10.8146 19.5723 10.0983 18.8559 10.0983 17.9723V6.81386Z" fill="#161616"/>
<path d="M14.8844 2.02772C14.8844 1.14406 15.6008 0.427719 16.4844 0.427719H16.874C17.7577 0.427719 18.474 1.14406 18.474 2.02772V17.9723C18.474 18.8559 17.7577 19.5723 16.874 19.5723H16.4844C15.6008 19.5723 14.8844 18.8559 14.8844 17.9723V2.02772Z" fill="#161616"/>
</svg>
