<svg width="1198" height="40" viewBox="0 0 1198 40" fill="none" xmlns="http://www.w3.org/2000/svg">
<path fill-rule="evenodd" clip-rule="evenodd" d="M172.272 0.371847C171.5 0.623586 171.397 1.73719 171.397 9.879C171.397 14.951 171.245 19.23 171.06 19.3878C170.623 19.7589 168.833 19.7589 168.396 19.3878C168.21 19.23 168.058 16.0225 168.058 12.26C168.058 7.18115 167.886 5.36311 167.391 5.20151C166.448 4.89427 164.9 4.93127 164.501 5.27079C164.315 5.42858 164.163 8.61686 164.163 12.3561C164.163 19.1508 163.98 19.8561 162.215 19.8561C160.504 19.8561 160.267 19.1419 160.267 13.9885C160.267 11.147 160.115 8.69322 159.929 8.53543C159.527 8.19336 157.736 8.15528 157.1 8.47521C156.853 8.59999 156.525 11.1493 156.372 14.1406C156.109 19.2808 156.036 19.583 155.047 19.645C154.472 19.6809 153.787 19.6004 153.525 19.4658C153.264 19.3314 153.046 17.6568 153.041 15.7448C153.037 13.8327 152.881 12.1392 152.695 11.9814C152.509 11.8236 151.933 11.6945 151.415 11.6945C149.331 11.6945 149.137 12.0286 149.137 15.6153C149.137 17.5324 148.985 19.23 148.799 19.3878C148.286 19.8234 146.423 19.7402 146.086 19.2666C145.927 19.0421 145.735 18.0919 145.658 17.1548C145.548 15.7951 145.333 15.4126 144.593 15.2609C143.921 15.1233 143.422 15.1365 142.784 15.3092C142.09 15.4971 141.903 15.9246 141.903 17.3244C141.903 18.3014 141.751 19.23 141.565 19.3878C140.998 19.8695 139.183 19.7317 138.776 19.176C137.896 17.9755 135.574 17.8529 134.66 18.9585C134.326 19.3628 133.655 19.7433 133.167 19.8042C131.584 20.0021 130.772 19.3388 130.772 17.8485C130.772 16.8307 130.547 16.3936 129.938 16.2287C128.29 15.7831 127.433 16.3219 127.433 17.8044C127.433 19.2164 126.826 19.8561 125.486 19.8561C123.945 19.8561 123.538 19.1424 123.538 16.4442C123.538 14.2563 123.377 13.6905 122.703 13.5082C122.037 13.3281 121.7 13.3281 121.034 13.5082C120.36 13.6905 120.199 14.2563 120.199 16.4442C120.199 19.1424 119.792 19.8561 118.251 19.8561C116.596 19.8561 116.303 19.1391 116.303 15.0839C116.303 11.5913 116.178 10.9795 115.422 10.775C114.783 10.6021 114.285 10.5891 113.613 10.7269C112.805 10.8929 112.647 11.4721 112.382 15.2506C112.215 17.634 112.028 19.6045 111.965 19.6294C111.902 19.6542 111.35 19.6747 110.738 19.6747C110.126 19.6747 109.572 19.6542 109.506 19.6294C109.441 19.6045 109.252 17.022 109.089 13.8905C108.824 8.84049 108.686 8.17541 107.863 8.00655C107.191 7.86835 106.694 7.88159 106.055 8.05444C105.286 8.26247 105.173 8.99375 105.173 13.7677C105.173 18.0885 105.014 19.3136 104.419 19.5788C103.386 20.0391 101.893 19.8158 101.477 19.139C100.785 18.0099 98.4317 18.0099 97.7389 19.139C97.3232 19.8158 95.83 20.0391 94.7972 19.5788C94.2796 19.3481 94.0431 18.6636 94.0431 17.3951C94.0431 15.9743 93.8506 15.4954 93.2084 15.3219C92.5422 15.1418 92.205 15.1418 91.5388 15.3219C90.8994 15.4949 90.7041 15.9694 90.7041 17.351C90.7041 19.1858 90.1826 19.8561 88.7563 19.8561C87.1781 19.8561 86.8085 19.1404 86.8085 16.0814C86.8085 13.5829 86.6538 12.9666 85.981 12.7847C85.5258 12.6616 84.7745 12.6081 84.3115 12.6661C83.6053 12.7544 83.4695 13.2715 83.4695 15.8721C83.4695 19.0867 83.1239 19.6747 81.2346 19.6747C79.9413 19.6747 79.6307 19.3174 79.4371 17.6078C79.3313 16.6731 79.0614 16.3094 78.3686 16.1674C76.5572 15.7967 75.6784 16.3227 75.6784 17.7778C75.6784 18.5054 75.5265 19.23 75.3406 19.3878C74.7046 19.9279 73.1007 19.7046 72.1902 18.9492C70.9743 17.9405 69.2736 17.9448 68.4361 18.9585C67.6486 19.9121 66.564 20.032 64.5149 19.3923L62.8788 18.8814L61.2427 19.3923C59.2943 20.0006 57.9882 19.9119 57.5135 19.139C56.8207 18.0099 54.4678 18.0099 53.7749 19.139C53.5913 19.4384 53.0236 19.7355 52.5144 19.7991C51.0002 19.9885 50.0792 19.3539 50.0792 18.1206C50.0792 17.3182 49.8282 16.9308 49.1977 16.7601C47.6228 16.3343 46.4797 16.7784 46.3177 17.8797C46.1063 19.3123 45.7523 19.6747 44.5631 19.6747C43.0677 19.6747 42.8446 19.3419 42.8446 17.1087C42.8446 15.0973 42.3515 14.415 40.8968 14.415C39.4421 14.415 38.9491 15.0973 38.9491 17.1087C38.9491 18.2045 38.7971 19.23 38.6113 19.3878C38.1744 19.7589 36.3847 19.7589 35.9478 19.3878C35.7619 19.23 35.61 17.5317 35.61 15.6137C35.61 12.8607 35.4414 12.0525 34.8081 11.7745C34.1659 11.4928 33.8047 11.4625 32.9995 11.6232C32.0951 11.8035 31.9643 12.2101 31.7145 15.6133C31.5614 17.6974 31.2337 19.5048 30.986 19.6294C30.3193 19.9653 29.0505 19.9045 28.3949 19.5053C28.0421 19.2904 27.8189 17.4022 27.8189 14.6305C27.8189 10.8305 27.6854 10.0705 26.9842 9.88082C26.318 9.70072 25.9808 9.70072 25.3147 9.88082C24.6135 10.0705 24.4799 10.8305 24.4799 14.6305C24.4799 19.1399 24.2128 19.8561 22.5321 19.8561C21.0541 19.8561 20.5844 19.1627 20.5844 16.981C20.5844 14.5665 20.3773 14.2337 18.8748 14.2337C17.1602 14.2337 16.6888 14.8344 16.6888 17.018C16.6888 19.3434 16.4746 19.6747 14.9703 19.6747C13.8045 19.6747 13.4377 19.3183 13.2168 17.9702C12.933 16.2349 9.45425 16.3921 9.45425 18.1405C9.45425 19.3165 9.07026 19.6747 7.80978 19.6747C7.19595 19.6747 6.5198 19.4088 5.96607 18.9492C4.69335 17.8933 2.25251 17.9913 2.20743 19.1001C2.20076 19.2665 1.70547 19.6067 1.10667 19.8561C-0.275138 20.4318 -0.275138 20.6851 1.10667 21.2575C1.71882 21.5113 2.21968 21.9017 2.21968 22.1254C2.21968 22.6075 3.55251 23.0203 4.66107 22.8817C5.09292 22.8276 5.7418 22.4921 6.10242 22.1359C6.54873 21.6952 7.09634 21.4884 7.81757 21.4884C9.00181 21.4884 9.36521 21.8388 9.58725 23.1929C9.87107 24.9282 13.3498 24.771 13.3498 23.0226C13.3498 21.8412 13.7338 21.4884 15.0193 21.4884C16.4824 21.4884 16.6888 21.8335 16.6888 24.2782C16.6888 26.5493 17.0155 26.9295 18.9666 26.9295C20.3707 26.9295 20.5844 26.5662 20.5844 24.1821C20.5844 22.0004 21.0541 21.307 22.5321 21.307C24.2128 21.307 24.4799 22.0233 24.4799 26.5326C24.4799 30.3327 24.6135 31.0926 25.3147 31.2823C25.9808 31.4624 26.318 31.4624 26.9842 31.2823C27.6854 31.0926 27.8189 30.3327 27.8189 26.5326C27.8189 22.0233 28.0861 21.307 29.7667 21.307C31.385 21.307 31.7145 22.024 31.7145 25.5424C31.7145 27.4861 31.8664 29.2053 32.0523 29.3631C32.5214 29.7614 34.339 29.7224 35.034 29.2992C35.3729 29.0927 35.61 27.5318 35.61 25.5054C35.61 23.6115 35.7619 21.9331 35.9478 21.7753C36.3847 21.4043 38.1744 21.4043 38.6113 21.7753C38.7971 21.9331 38.9491 22.9466 38.9491 24.0276C38.9491 26.2938 39.1583 26.5667 40.8968 26.5667C42.6353 26.5667 42.8446 26.2938 42.8446 24.0276C42.8446 21.8365 43.0733 21.4884 44.5141 21.4884C45.7969 21.4884 46.1836 21.8412 46.1836 23.0103C46.1836 24.1576 47.2744 24.7643 48.7942 24.4623C49.5627 24.3098 49.8666 23.9572 50.0792 22.9745C50.2322 22.2663 50.6535 21.5905 51.0158 21.4728C52.0269 21.1442 53.4037 21.4193 53.7749 22.0242C54.4438 23.114 57.0244 23.1556 57.42 22.0829C57.6899 21.3498 59.2187 21.1454 60.803 21.6304C62.4425 22.1326 63.304 22.1361 64.9017 21.6467C66.5762 21.1342 67.6981 21.3112 68.4361 22.2046C69.2736 23.2183 70.9743 23.2227 72.1902 22.2139C72.7668 21.7358 73.4118 21.4884 74.0829 21.4884C75.3033 21.4884 75.6245 21.872 75.8153 23.5553C75.9712 24.9322 76.9667 25.4138 78.6925 24.9471C79.3653 24.765 79.574 24.3575 79.574 23.2256C79.574 21.4413 80.5362 20.9211 82.5952 21.592C83.3226 21.8292 83.4695 22.4041 83.4695 25.0158C83.4695 27.6785 83.6053 28.1914 84.3644 28.3967C85.1251 28.6024 85.3761 28.5868 86.0339 28.2935C86.621 28.0318 86.8085 27.2295 86.8085 24.9785C86.8085 22.0222 87.1881 21.307 88.7563 21.307C90.1826 21.307 90.7041 21.9774 90.7041 23.8121C90.7041 25.1938 90.8994 25.6682 91.5388 25.8413C92.205 26.0214 92.5422 26.0214 93.2084 25.8413C93.8478 25.6682 94.0431 25.1938 94.0431 23.8121C94.0431 22.8202 94.3025 21.8508 94.6191 21.6578C95.564 21.0827 96.7973 21.2555 97.9387 22.1232C99.3728 23.2134 100.628 23.1626 101.496 21.9794C101.968 21.335 103.42 21.1387 104.419 21.5844C105.014 21.8495 105.173 23.0747 105.173 27.3954C105.173 32.1694 105.286 32.9007 106.055 33.1087C106.694 33.2815 107.191 33.2948 107.863 33.1566C108.686 32.9877 108.824 32.3226 109.089 27.2726C109.252 24.1411 109.441 21.5586 109.506 21.5338C109.947 21.366 111.793 21.5399 112.07 21.7753C112.256 21.9331 112.408 23.8819 112.408 26.1059C112.408 29.5742 112.533 30.1836 113.289 30.3882C113.928 30.561 114.426 30.5743 115.098 30.436C115.907 30.2699 116.06 29.6979 116.303 25.9319C116.547 22.166 116.7 21.594 117.509 21.4278C118.18 21.29 118.676 21.3023 119.304 21.4721C120.024 21.6669 120.168 22.1874 120.149 24.5267C120.132 26.8101 120.287 27.3988 120.97 27.6212C121.663 27.847 121.966 27.8544 122.675 27.6626C123.388 27.4698 123.538 26.9315 123.538 24.5717C123.538 22.1858 123.683 21.6749 124.419 21.4757C125.058 21.303 125.556 21.2898 126.228 21.4275C126.952 21.5758 127.19 21.9569 127.315 23.1686C127.489 24.8461 128.284 25.3817 129.938 24.9344C130.557 24.767 130.772 24.321 130.772 23.2114C130.772 22.0666 130.98 21.6582 131.654 21.4757C132.842 21.1545 134.335 21.4663 134.562 22.0829C134.944 23.1202 137.635 23.1858 138.437 22.1774C138.943 21.541 140.589 21.2751 141.41 21.6973C141.672 21.8317 141.889 22.7021 141.894 23.6315C141.903 25.3606 142.445 26.0226 143.85 26.0226C145.248 26.0226 145.798 25.3637 145.798 23.6917C145.798 22.7954 145.95 21.9331 146.136 21.7753C146.573 21.4043 148.363 21.4043 148.799 21.7753C148.985 21.9331 149.137 23.6307 149.137 25.5478C149.137 29.1345 149.331 29.4686 151.415 29.4686C151.933 29.4686 152.509 29.3395 152.695 29.1817C152.881 29.0239 153.033 27.3256 153.033 25.4076C153.033 21.7617 153.421 21.1079 155.433 21.3596C156.22 21.4579 156.344 22.1265 156.488 27.0027C156.658 32.8161 156.848 33.2487 159.031 32.8002C159.897 32.6221 160.003 32.0841 160.137 27.1972C160.236 23.5778 160.488 21.711 160.901 21.549C161.742 21.2185 163.413 21.2441 163.825 21.594C164.011 21.7518 164.163 24.9689 164.163 28.7432C164.163 32.5174 164.315 35.7345 164.501 35.8923C164.9 36.2319 166.448 36.2689 167.391 35.9616C167.886 35.8 168.058 33.982 168.058 28.9031C168.058 25.1406 168.21 21.9331 168.396 21.7753C168.582 21.6175 169.181 21.4884 169.728 21.4884C170.274 21.4884 170.874 21.6175 171.06 21.7753C171.245 21.9331 171.397 26.1704 171.397 31.1916C171.397 36.2128 171.549 40.4501 171.735 40.6079C172.173 40.9799 174.517 40.9799 174.955 40.6079C175.141 40.4501 175.293 36.2128 175.293 31.1916C175.293 26.1704 175.445 21.9331 175.631 21.7753C176.084 21.3901 177.863 21.4101 178.334 21.8058C178.542 21.9803 178.685 25.4985 178.653 29.6239C178.61 35.0608 178.771 37.1942 179.237 37.3774C180.103 37.7173 181.772 37.6979 182.19 37.3433C182.376 37.1855 182.531 33.6557 182.536 29.4991C182.541 25.3427 182.758 21.8317 183.02 21.6973C183.282 21.5628 183.967 21.4822 184.542 21.5183C185.534 21.5804 185.604 21.8965 185.885 27.5666C186.049 30.8572 186.237 33.5699 186.303 33.5948C186.767 33.77 189.151 33.5855 189.424 33.3532C189.61 33.1954 189.762 30.5784 189.762 27.5374C189.762 22.0196 189.985 21.307 191.71 21.307C193.328 21.307 193.658 22.0238 193.658 25.5351C193.658 28.4484 193.803 29.1008 194.492 29.2873C196.427 29.8105 196.806 29.2666 197.169 25.4471C197.442 22.5659 197.692 21.728 198.342 21.5165C199.02 21.2954 199.321 21.2891 200.03 21.4808C200.711 21.6652 200.892 22.1248 200.892 23.6723C200.892 25.8679 201.119 26.204 202.602 26.204C204.288 26.204 204.788 25.6107 204.788 23.6082C204.788 22.2099 204.991 21.6593 205.564 21.5044C206.51 21.2485 208.127 21.6903 208.127 22.2046C208.127 22.3847 208.524 22.6396 209.008 22.7707C210.219 23.0982 211.573 22.7937 212.154 22.063C212.461 21.6765 212.951 21.4884 213.648 21.4884C215.091 21.4884 215.361 21.8281 215.361 23.6434C215.361 25.2614 215.812 25.6599 217.639 25.6599C218.993 25.6599 219.257 25.2941 219.257 23.4142C219.257 22.3557 219.502 21.6625 219.925 21.5247C220.867 21.2174 222.415 21.2544 222.815 21.594C223.001 21.7518 223.152 23.7822 223.152 26.1059C223.152 29.6404 223.289 30.368 223.987 30.5568C224.653 30.7369 224.991 30.7369 225.657 30.5568C226.356 30.3677 226.491 29.6311 226.491 26.0226C226.491 22.3129 226.614 21.681 227.373 21.4757C228.012 21.303 228.509 21.2898 229.182 21.4277C229.963 21.588 230.13 22.0146 230.244 24.1377C230.405 27.1391 230.59 27.4736 232.081 27.4736C233.759 27.4736 234.116 26.9144 234.222 24.1215C234.275 22.725 234.567 21.5045 234.872 21.4052C235.724 21.1275 237.3 21.539 237.622 22.1232C237.984 22.7821 239.439 23.0944 240.636 22.7707C241.12 22.6396 241.517 22.3856 241.517 22.2064C241.517 21.3798 243.734 20.9274 244.518 21.594C244.704 21.7518 244.856 23.6126 244.856 25.7292C244.856 28.4805 245.046 29.6395 245.524 29.7951C246.467 30.1023 248.014 30.0653 248.414 29.7258C248.6 29.568 248.752 27.7384 248.752 25.6599C248.752 23.5814 248.904 21.7518 249.089 21.594C249.275 21.4362 249.851 21.307 250.369 21.307C252.321 21.307 252.647 21.6872 252.647 23.9583C252.647 26.403 252.854 26.7481 254.317 26.7481C255.768 26.7481 255.986 26.4013 255.986 24.0914C255.986 21.9948 256.468 21.307 257.934 21.307C259.633 21.307 259.882 22.0222 259.882 26.8954C259.882 31.0177 260.013 31.8174 260.717 32.0078C261.383 32.1879 261.72 32.1879 262.386 32.0078C263.091 31.8172 263.221 31.0128 263.221 26.8513C263.221 22.8411 263.371 21.8548 264.023 21.5684C264.665 21.2867 265.026 21.2564 265.831 21.4171C266.724 21.5951 266.87 21.9848 267.116 24.8437C267.353 27.5933 267.532 28.0977 268.322 28.2598C268.994 28.3976 269.492 28.3844 270.13 28.2117C270.869 28.0121 271.012 27.4932 271.012 25.0177C271.012 23.3922 271.164 21.9331 271.35 21.7753C271.955 21.2615 273.723 21.4387 274.22 22.063C275.121 23.1965 277.742 23.1726 278.446 22.0242C278.862 21.3473 280.355 21.124 281.388 21.5844C281.949 21.8345 282.142 22.6722 282.142 24.8562C282.142 27.2445 282.298 27.834 282.977 28.0177C283.643 28.1978 283.98 28.1978 284.646 28.0177C285.325 27.8343 285.481 27.2494 285.481 24.9003C285.481 22.0218 285.868 21.307 287.429 21.307C288.791 21.307 289.377 21.9536 289.377 23.4566C289.377 25.1263 289.668 25.4785 291.046 25.4785C292.431 25.4785 292.716 25.1265 292.716 23.4125C292.716 21.8234 293.493 21.1567 295.11 21.3589C295.598 21.4199 296.27 21.8004 296.603 22.2046C297.517 23.3103 299.839 23.1877 300.719 21.9872C300.956 21.6629 301.449 21.4884 302.127 21.4884C303.51 21.4884 303.846 21.8303 303.846 23.2383C303.846 24.489 304.496 25.1158 305.794 25.1158C307.091 25.1158 307.741 24.489 307.741 23.2383C307.741 22.5913 307.893 21.9331 308.079 21.7753C308.516 21.4043 310.306 21.4043 310.743 21.7753C310.928 21.9331 311.08 23.3547 311.08 24.9344C311.08 26.5141 311.232 27.9357 311.418 28.0935C311.604 28.2513 312.329 28.3804 313.028 28.3804C313.728 28.3804 314.452 28.2513 314.638 28.0935C314.824 27.9357 314.976 26.5022 314.976 24.9076C314.976 22.0218 315.363 21.307 316.924 21.307C318.67 21.307 318.871 22.0164 318.871 28.1722C318.871 31.5623 319.023 34.465 319.209 34.6228C319.646 34.9938 321.436 34.9938 321.873 34.6228C322.059 34.465 322.21 31.5623 322.21 28.1722C322.21 22.0164 322.412 21.307 324.158 21.307C325.932 21.307 326.106 22.0098 326.106 29.1717C326.106 35.4416 326.215 36.3702 326.98 36.6198C327.462 36.7765 327.945 36.9047 328.054 36.9047C328.163 36.9047 328.646 36.7765 329.127 36.6198C329.892 36.3702 330.002 35.4442 330.002 29.1984C330.002 25.2736 330.153 21.9331 330.339 21.7753C330.616 21.5399 332.462 21.3662 332.904 21.5338C332.969 21.5586 333.157 24.1819 333.321 27.3633C333.595 32.6881 333.699 33.1635 334.626 33.3485C335.431 33.5093 335.792 33.4792 336.434 33.1974C337.09 32.9094 337.236 31.865 337.236 27.4538C337.236 24.4884 337.388 21.9331 337.574 21.7753C337.76 21.6175 338.359 21.4884 338.906 21.4884C339.452 21.4884 340.051 21.6175 340.237 21.7753C340.423 21.9331 340.575 23.6371 340.575 25.5618C340.575 28.5337 340.708 29.0974 341.457 29.3C342.096 29.4726 342.593 29.4859 343.265 29.348C344.065 29.1839 344.235 28.6381 344.499 25.3684C344.668 23.2843 344.856 21.5586 344.916 21.5338C344.978 21.5089 345.501 21.4884 346.081 21.4884C347.563 21.4884 347.81 21.8216 347.81 23.8248C347.81 25.6289 348.218 26.0226 350.088 26.0226C351.448 26.0226 351.705 25.657 351.705 23.7287C351.705 21.9719 352.24 21.307 353.653 21.307C355.248 21.307 355.601 22.0233 355.601 25.2631C355.601 27.9221 355.752 28.5583 356.428 28.7412C356.884 28.8643 357.635 28.9178 358.098 28.8598C358.808 28.7711 358.94 28.2252 358.94 25.3817C358.94 23.4035 359.178 21.8637 359.516 21.6578C360.171 21.2586 361.44 21.1979 362.107 21.5338C362.355 21.6585 362.682 24.3225 362.835 27.454C363.091 32.6954 363.194 33.1635 364.12 33.3485C364.926 33.5093 365.287 33.4792 365.929 33.1974C366.585 32.9094 366.731 31.865 366.731 27.4538C366.731 24.4884 366.883 21.9331 367.069 21.7753C367.581 21.3399 369.446 21.4231 369.786 21.8965C369.946 22.121 370.139 23.5201 370.214 25.0057C370.328 27.2982 370.488 27.7355 371.275 27.8971C371.948 28.0349 372.445 28.0219 373.084 27.849C373.818 27.6504 373.965 27.1462 373.965 24.8363C373.965 23.3106 374.117 21.9331 374.303 21.7753C374.908 21.2615 376.677 21.4387 377.173 22.063C377.754 22.7937 379.108 23.0982 380.319 22.7707C380.803 22.6396 381.2 22.3524 381.2 22.1326C381.2 21.9128 381.826 21.5414 382.591 21.307C384.273 20.7921 384.355 20.3851 382.867 19.9461C382.254 19.7652 381.493 19.3036 381.176 18.9204C380.293 17.8512 377.956 17.9976 377.092 19.176C376.632 19.8044 374.681 19.8666 374.25 19.2666C374.089 19.0421 373.896 17.643 373.822 16.1574C373.708 13.8649 373.547 13.4277 372.76 13.2661C372.088 13.1282 371.59 13.1413 370.951 13.3141C370.217 13.5127 370.07 14.0169 370.07 16.3268C370.07 17.8525 369.918 19.23 369.732 19.3878C369.295 19.7589 367.506 19.7589 367.069 19.3878C366.883 19.23 366.731 16.6747 366.731 13.7093C366.731 9.29808 366.585 8.25376 365.929 7.96575C365.287 7.6839 364.926 7.65379 364.12 7.81467C363.194 7.99966 363.091 8.46778 362.835 13.7091C362.682 16.8407 362.355 19.5048 362.107 19.6294C361.44 19.9653 360.171 19.9045 359.516 19.5053C359.18 19.3009 358.94 17.7966 358.94 15.9001C358.94 13.2287 358.79 12.6053 358.105 12.42C357.439 12.2399 357.102 12.2399 356.436 12.42C355.75 12.6053 355.601 13.2287 355.601 15.9001C355.601 19.1399 355.248 19.8561 353.653 19.8561C352.24 19.8561 351.705 19.1912 351.705 17.4345C351.705 15.5061 351.448 15.1405 350.088 15.1405C348.218 15.1405 347.81 15.5343 347.81 17.3383C347.81 18.3078 347.658 19.23 347.472 19.3878C347.035 19.7589 345.245 19.7589 344.809 19.3878C344.623 19.23 344.471 17.526 344.471 15.6014C344.471 12.6295 344.338 12.0658 343.589 11.8632C342.95 11.6905 342.453 11.6773 341.781 11.8151C340.981 11.9793 340.811 12.525 340.547 15.7947C340.378 17.8788 340.19 19.6045 340.129 19.6294C339.716 19.7988 337.85 19.6225 337.574 19.3878C337.388 19.23 337.236 16.6747 337.236 13.7093C337.236 9.29808 337.09 8.25376 336.434 7.96575C335.792 7.6839 335.431 7.65379 334.626 7.81467C333.699 7.99966 333.595 8.47503 333.321 13.7998C333.157 16.9812 332.969 19.6045 332.904 19.6294C332.462 19.797 330.616 19.6232 330.339 19.3878C330.153 19.23 330.002 15.9193 330.002 12.0304C330.002 4.96192 329.825 4.25839 328.054 4.25839C326.282 4.25839 326.106 4.96174 326.106 12.0572C326.106 19.1527 325.93 19.8561 324.158 19.8561C322.412 19.8561 322.21 19.1468 322.21 12.9909C322.21 9.60079 322.059 6.69816 321.873 6.54037C321.687 6.38258 321.087 6.25345 320.541 6.25345C319.994 6.25345 319.395 6.38258 319.209 6.54037C319.023 6.69816 318.871 9.60079 318.871 12.9909C318.871 19.1468 318.67 19.8561 316.924 19.8561C315.353 19.8561 314.976 19.1408 314.976 16.1629C314.976 13.6852 314.826 13.1224 314.102 12.8863C313.027 12.5362 313.029 12.5362 311.955 12.8863C311.231 13.1222 311.08 13.6827 311.08 16.1362C311.08 17.7667 310.928 19.23 310.743 19.3878C310.229 19.8236 308.365 19.7402 308.032 19.2666C307.875 19.0421 307.682 18.2958 307.604 17.6078C307.499 16.6731 307.229 16.3094 306.536 16.1674C304.724 15.7967 303.846 16.3227 303.846 17.7778C303.846 19.3339 303.537 19.6747 302.127 19.6747C301.449 19.6747 300.956 19.5002 300.719 19.176C299.839 17.9755 297.517 17.8529 296.603 18.9585C296.27 19.3628 295.598 19.7433 295.11 19.8042C293.437 20.0133 292.716 19.3419 292.716 17.5765C292.716 16.3169 292.512 15.8553 291.881 15.6846C291.215 15.5045 290.878 15.5045 290.211 15.6846C289.583 15.8546 289.377 16.312 289.377 17.5324C289.377 19.1977 288.825 19.8561 287.429 19.8561C285.868 19.8561 285.481 19.1413 285.481 16.2628C285.481 13.9137 285.325 13.3288 284.646 13.1455C283.98 12.9654 283.643 12.9654 282.977 13.1455C282.298 13.3292 282.142 13.9186 282.142 16.3069C282.142 18.4909 281.949 19.3287 281.388 19.5788C280.283 20.071 278.957 19.8084 278.254 18.9585C277.341 17.8529 275.019 17.9755 274.139 19.176C273.892 19.512 273.414 19.6747 272.671 19.6747C272.064 19.6747 271.521 19.6542 271.462 19.6294C271.403 19.6045 271.216 18.1237 271.045 16.3386C270.78 13.5784 270.595 13.0649 269.807 12.9031C269.135 12.7655 268.636 12.7787 267.998 12.9514C267.259 13.1513 267.116 13.6723 267.116 16.1721C267.116 19.141 266.738 19.8561 265.169 19.8561C263.47 19.8561 263.221 19.141 263.221 14.2678C263.221 10.1454 263.09 9.34578 262.386 9.15534C261.72 8.97525 261.383 8.97525 260.717 9.15534C260.013 9.34578 259.882 10.1454 259.882 14.2678C259.882 19.141 259.633 19.8561 257.934 19.8561C256.468 19.8561 255.986 19.1683 255.986 17.0717C255.986 14.7618 255.768 14.415 254.317 14.415C252.865 14.415 252.647 14.7618 252.647 17.0717C252.647 19.1683 252.166 19.8561 250.699 19.8561C249.068 19.8561 248.752 19.139 248.752 15.4394C248.752 13.3959 248.6 11.5951 248.414 11.4373C248.228 11.2795 247.503 11.1504 246.804 11.1504C246.104 11.1504 245.38 11.2795 245.194 11.4373C245.008 11.5951 244.856 13.384 244.856 15.4126C244.856 17.4412 244.704 19.23 244.518 19.3878C243.951 19.8695 242.137 19.7317 241.729 19.176C240.853 17.9809 238.528 17.8525 237.622 18.9492C237.178 19.4866 236.736 19.6747 235.917 19.6747C234.082 19.6747 233.606 18.8941 234.03 16.5746C234.442 14.3274 234.014 13.6896 232.097 13.6896C230.573 13.6896 230.387 14.0178 230.387 16.709C230.387 19.1468 229.948 19.8561 228.439 19.8561C226.779 19.8561 226.491 19.1391 226.491 14.9932C226.491 11.5157 226.355 10.7949 225.657 10.6063C224.991 10.4262 224.653 10.4262 223.987 10.6063C223.289 10.7949 223.152 11.5157 223.152 14.9932C223.152 19.1391 222.865 19.8561 221.205 19.8561C219.82 19.8561 219.257 19.2015 219.257 17.589C219.257 15.9764 218.694 15.3219 217.309 15.3219C215.929 15.3219 215.361 15.9746 215.361 17.5621C215.361 19.3345 215.085 19.6747 213.648 19.6747C212.951 19.6747 212.461 19.4866 212.154 19.1001C211.254 17.9688 208.632 17.9902 207.93 19.1346C207.7 19.5086 207.27 19.6747 206.531 19.6747C205.031 19.6747 204.788 19.3457 204.788 17.3169C204.788 15.2381 204.557 14.9591 202.84 14.9591C201.117 14.9591 200.893 15.235 200.884 17.3771C200.874 19.3522 200.525 19.7478 198.878 19.6453C197.961 19.5884 197.789 19.3457 197.482 17.6779C197.29 16.6314 197.102 14.9488 197.065 13.9384C197.013 12.5475 196.794 12.0469 196.162 11.8759C195.496 11.6958 195.159 11.6958 194.492 11.8759C193.803 12.0623 193.658 12.7147 193.658 15.628C193.658 19.1393 193.328 19.8561 191.71 19.8561C189.984 19.8561 189.762 19.1437 189.762 13.5989C189.762 8.05407 189.54 7.34166 187.814 7.34166C186.089 7.34166 185.867 8.05425 185.867 13.572C185.867 16.613 185.715 19.23 185.529 19.3878C185.092 19.7589 183.302 19.7589 182.865 19.3878C182.679 19.23 182.528 15.7272 182.528 11.6038C182.528 7.4804 182.376 3.97763 182.19 3.81984C182.004 3.66205 181.279 3.53292 180.58 3.53292C179.88 3.53292 179.156 3.66205 178.97 3.81984C178.784 3.97763 178.632 7.4804 178.632 11.6038C178.632 15.7272 178.48 19.23 178.294 19.3878C178.108 19.5456 177.509 19.6747 176.962 19.6747C176.416 19.6747 175.817 19.5456 175.631 19.3878C175.445 19.23 175.293 14.951 175.293 9.879C175.293 1.73719 175.191 0.623586 174.419 0.371847C173.937 0.215144 173.454 0.0869141 173.345 0.0869141C173.236 0.0869141 172.753 0.215144 172.272 0.371847Z" fill="white"/>
<path fill-rule="evenodd" clip-rule="evenodd" d="M556.123 0.371847C555.351 0.623586 555.249 1.73719 555.249 9.879C555.249 14.951 555.097 19.23 554.911 19.3878C554.474 19.7589 552.685 19.7589 552.248 19.3878C552.062 19.23 551.91 16.0225 551.91 12.26C551.91 7.18115 551.738 5.36311 551.242 5.20151C550.299 4.89427 548.752 4.93127 548.352 5.27079C548.166 5.42858 548.014 8.61686 548.014 12.3561C548.014 19.1508 547.831 19.8561 546.067 19.8561C544.356 19.8561 544.119 19.1419 544.119 13.9885C544.119 11.147 543.967 8.69322 543.781 8.53543C543.378 8.19336 541.587 8.15528 540.952 8.47521C540.704 8.59999 540.376 11.1493 540.223 14.1406C539.96 19.2808 539.888 19.583 538.899 19.645C538.323 19.6809 537.638 19.6004 537.377 19.4658C537.115 19.3314 536.898 17.6568 536.893 15.7448C536.888 13.8327 536.732 12.1392 536.546 11.9814C536.361 11.8236 535.785 11.6945 535.266 11.6945C533.183 11.6945 532.989 12.0286 532.989 15.6153C532.989 17.5324 532.837 19.23 532.651 19.3878C532.138 19.8234 530.274 19.7402 529.938 19.2666C529.779 19.0421 529.586 18.0919 529.51 17.1548C529.399 15.7951 529.184 15.4126 528.444 15.2609C527.773 15.1233 527.274 15.1365 526.636 15.3092C525.941 15.4971 525.754 15.9246 525.754 17.3244C525.754 18.3014 525.602 19.23 525.416 19.3878C524.849 19.8695 523.034 19.7317 522.627 19.176C521.747 17.9755 519.425 17.8529 518.512 18.9585C518.178 19.3628 517.506 19.7433 517.019 19.8042C515.436 20.0021 514.624 19.3388 514.624 17.8485C514.624 16.8307 514.399 16.3936 513.789 16.2287C512.141 15.7831 511.285 16.3219 511.285 17.8044C511.285 19.2164 510.678 19.8561 509.337 19.8561C507.797 19.8561 507.389 19.1424 507.389 16.4442C507.389 14.2563 507.229 13.6905 506.555 13.5082C505.889 13.3281 505.551 13.3281 504.885 13.5082C504.211 13.6905 504.05 14.2563 504.05 16.4442C504.05 19.1424 503.643 19.8561 502.103 19.8561C500.448 19.8561 500.155 19.1391 500.155 15.0839C500.155 11.5913 500.03 10.9795 499.273 10.775C498.634 10.6021 498.137 10.5891 497.465 10.7269C496.656 10.8929 496.499 11.4721 496.234 15.2506C496.067 17.634 495.879 19.6045 495.816 19.6294C495.754 19.6542 495.202 19.6747 494.59 19.6747C493.978 19.6747 493.423 19.6542 493.358 19.6294C493.292 19.6045 493.104 17.022 492.94 13.8905C492.676 8.84049 492.537 8.17541 491.715 8.00655C491.042 7.86835 490.545 7.88159 489.906 8.05444C489.138 8.26247 489.025 8.99375 489.025 13.7677C489.025 18.0885 488.866 19.3136 488.271 19.5788C487.238 20.0391 485.745 19.8158 485.329 19.139C484.636 18.0099 482.283 18.0099 481.59 19.139C481.175 19.8158 479.682 20.0391 478.649 19.5788C478.131 19.3481 477.895 18.6636 477.895 17.3951C477.895 15.9743 477.702 15.4954 477.06 15.3219C476.394 15.1418 476.056 15.1418 475.39 15.3219C474.751 15.4949 474.556 15.9694 474.556 17.351C474.556 19.1858 474.034 19.8561 472.608 19.8561C471.03 19.8561 470.66 19.1404 470.66 16.0814C470.66 13.5829 470.505 12.9666 469.833 12.7847C469.377 12.6616 468.626 12.6081 468.163 12.6661C467.457 12.7544 467.321 13.2715 467.321 15.8721C467.321 19.0867 466.975 19.6747 465.086 19.6747C463.793 19.6747 463.482 19.3174 463.289 17.6078C463.183 16.6731 462.913 16.3094 462.22 16.1674C460.409 15.7967 459.53 16.3227 459.53 17.7778C459.53 18.5054 459.378 19.23 459.192 19.3878C458.556 19.9279 456.952 19.7046 456.042 18.9492C454.826 17.9405 453.125 17.9448 452.288 18.9585C451.5 19.9121 450.415 20.032 448.366 19.3923L446.73 18.8814L445.094 19.3923C443.146 20.0006 441.84 19.9119 441.365 19.139C440.672 18.0099 438.319 18.0099 437.626 19.139C437.443 19.4384 436.875 19.7355 436.366 19.7991C434.852 19.9885 433.931 19.3539 433.931 18.1206C433.931 17.3182 433.68 16.9308 433.049 16.7601C431.474 16.3343 430.331 16.7784 430.169 17.8797C429.958 19.3123 429.604 19.6747 428.415 19.6747C426.919 19.6747 426.696 19.3419 426.696 17.1087C426.696 15.0973 426.203 14.415 424.748 14.415C423.294 14.415 422.801 15.0973 422.801 17.1087C422.801 18.2045 422.649 19.23 422.463 19.3878C422.026 19.7589 420.236 19.7589 419.799 19.3878C419.613 19.23 419.462 17.5317 419.462 15.6137C419.462 12.8607 419.293 12.0525 418.66 11.7745C418.017 11.4928 417.656 11.4625 416.851 11.6232C415.947 11.8035 415.816 12.2101 415.566 15.6133C415.413 17.6974 415.085 19.5048 414.838 19.6294C414.171 19.9653 412.902 19.9045 412.246 19.5053C411.894 19.2904 411.67 17.4022 411.67 14.6305C411.67 10.8305 411.537 10.0705 410.836 9.88082C410.17 9.70072 409.832 9.70072 409.166 9.88082C408.465 10.0705 408.331 10.8305 408.331 14.6305C408.331 19.1399 408.064 19.8561 406.384 19.8561C404.906 19.8561 404.436 19.1627 404.436 16.981C404.436 14.5665 404.229 14.2337 402.726 14.2337C401.012 14.2337 400.54 14.8344 400.54 17.018C400.54 19.3434 400.326 19.6747 398.822 19.6747C397.656 19.6747 397.289 19.3183 397.068 17.9702C396.784 16.2349 393.306 16.3921 393.306 18.1405C393.306 19.3165 392.922 19.6747 391.661 19.6747C391.047 19.6747 390.371 19.4088 389.818 18.9492C388.545 17.8933 386.104 17.9913 386.059 19.1001C386.052 19.2665 385.557 19.6067 384.958 19.8561C383.576 20.4318 383.576 20.6851 384.958 21.2575C385.57 21.5113 386.071 21.9017 386.071 22.1254C386.071 22.6075 387.404 23.0203 388.513 22.8817C388.944 22.8276 389.593 22.4921 389.954 22.1359C390.4 21.6952 390.948 21.4884 391.669 21.4884C392.853 21.4884 393.217 21.8388 393.439 23.1929C393.723 24.9282 397.201 24.771 397.201 23.0226C397.201 21.8412 397.585 21.4884 398.871 21.4884C400.334 21.4884 400.54 21.8335 400.54 24.2782C400.54 26.5493 400.867 26.9295 402.818 26.9295C404.222 26.9295 404.436 26.5662 404.436 24.1821C404.436 22.0004 404.906 21.307 406.384 21.307C408.064 21.307 408.331 22.0233 408.331 26.5326C408.331 30.3327 408.465 31.0926 409.166 31.2823C409.832 31.4624 410.17 31.4624 410.836 31.2823C411.537 31.0926 411.67 30.3327 411.67 26.5326C411.67 22.0233 411.938 21.307 413.618 21.307C415.237 21.307 415.566 22.024 415.566 25.5424C415.566 27.4861 415.718 29.2053 415.904 29.3631C416.373 29.7614 418.19 29.7224 418.886 29.2992C419.224 29.0927 419.462 27.5318 419.462 25.5054C419.462 23.6115 419.613 21.9331 419.799 21.7753C420.236 21.4043 422.026 21.4043 422.463 21.7753C422.649 21.9331 422.801 22.9466 422.801 24.0276C422.801 26.2938 423.01 26.5667 424.748 26.5667C426.487 26.5667 426.696 26.2938 426.696 24.0276C426.696 21.8365 426.925 21.4884 428.366 21.4884C429.648 21.4884 430.035 21.8412 430.035 23.0103C430.035 24.1576 431.126 24.7643 432.646 24.4623C433.414 24.3098 433.718 23.9572 433.931 22.9745C434.084 22.2663 434.505 21.5905 434.867 21.4728C435.878 21.1442 437.255 21.4193 437.626 22.0242C438.295 23.114 440.876 23.1556 441.272 22.0829C441.541 21.3498 443.07 21.1454 444.655 21.6304C446.294 22.1326 447.155 22.1361 448.753 21.6467C450.428 21.1342 451.55 21.3112 452.288 22.2046C453.125 23.2183 454.826 23.2227 456.042 22.2139C456.618 21.7358 457.263 21.4884 457.934 21.4884C459.155 21.4884 459.476 21.872 459.667 23.5553C459.823 24.9322 460.818 25.4138 462.544 24.9471C463.217 24.765 463.425 24.3575 463.425 23.2256C463.425 21.4413 464.388 20.9211 466.447 21.592C467.174 21.8292 467.321 22.4041 467.321 25.0158C467.321 27.6785 467.457 28.1914 468.216 28.3967C468.977 28.6024 469.228 28.5868 469.885 28.2935C470.473 28.0318 470.66 27.2295 470.66 24.9785C470.66 22.0222 471.04 21.307 472.608 21.307C474.034 21.307 474.556 21.9774 474.556 23.8121C474.556 25.1938 474.751 25.6682 475.39 25.8413C476.056 26.0214 476.394 26.0214 477.06 25.8413C477.699 25.6682 477.895 25.1938 477.895 23.8121C477.895 22.8202 478.154 21.8508 478.471 21.6578C479.416 21.0827 480.649 21.2555 481.79 22.1232C483.224 23.2134 484.479 23.1626 485.347 21.9794C485.82 21.335 487.271 21.1387 488.271 21.5844C488.866 21.8495 489.025 23.0747 489.025 27.3954C489.025 32.1694 489.138 32.9007 489.906 33.1087C490.545 33.2815 491.042 33.2948 491.715 33.1566C492.537 32.9877 492.676 32.3226 492.94 27.2726C493.104 24.1411 493.292 21.5586 493.358 21.5338C493.798 21.366 495.644 21.5399 495.922 21.7753C496.107 21.9331 496.259 23.8819 496.259 26.1059C496.259 29.5742 496.385 30.1836 497.141 30.3882C497.78 30.561 498.277 30.5743 498.949 30.436C499.759 30.2699 499.912 29.6979 500.155 25.9319C500.398 22.166 500.551 21.594 501.36 21.4278C502.031 21.29 502.528 21.3023 503.156 21.4721C503.876 21.6669 504.02 22.1874 504.001 24.5267C503.983 26.8101 504.139 27.3988 504.822 27.6212C505.515 27.847 505.817 27.8544 506.527 27.6626C507.239 27.4698 507.389 26.9315 507.389 24.5717C507.389 22.1858 507.535 21.6749 508.271 21.4757C508.909 21.303 509.408 21.2898 510.08 21.4275C510.804 21.5758 511.042 21.9569 511.167 23.1686C511.34 24.8461 512.135 25.3817 513.789 24.9344C514.408 24.767 514.624 24.321 514.624 23.2114C514.624 22.0666 514.832 21.6582 515.505 21.4757C516.693 21.1545 518.186 21.4663 518.413 22.0829C518.796 23.1202 521.487 23.1858 522.288 22.1774C522.795 21.541 524.441 21.2751 525.262 21.6973C525.523 21.8317 525.741 22.7021 525.746 23.6315C525.754 25.3606 526.296 26.0226 527.702 26.0226C529.099 26.0226 529.65 25.3637 529.65 23.6917C529.65 22.7954 529.802 21.9331 529.987 21.7753C530.424 21.4043 532.214 21.4043 532.651 21.7753C532.837 21.9331 532.989 23.6307 532.989 25.5478C532.989 29.1345 533.183 29.4686 535.266 29.4686C535.785 29.4686 536.361 29.3395 536.546 29.1817C536.732 29.0239 536.884 27.3256 536.884 25.4076C536.884 21.7617 537.272 21.1079 539.285 21.3596C540.071 21.4579 540.196 22.1265 540.339 27.0027C540.51 32.8161 540.7 33.2487 542.882 32.8002C543.749 32.6221 543.854 32.0841 543.988 27.1972C544.087 23.5778 544.339 21.711 544.752 21.549C545.594 21.2185 547.265 21.2441 547.677 21.594C547.862 21.7518 548.014 24.9689 548.014 28.7432C548.014 32.5174 548.166 35.7345 548.352 35.8923C548.752 36.2319 550.299 36.2689 551.242 35.9616C551.738 35.8 551.91 33.982 551.91 28.9031C551.91 25.1406 552.062 21.9331 552.248 21.7753C552.434 21.6175 553.033 21.4884 553.579 21.4884C554.126 21.4884 554.725 21.6175 554.911 21.7753C555.097 21.9331 555.249 26.1704 555.249 31.1916C555.249 36.2128 555.401 40.4501 555.587 40.6079C556.025 40.9799 558.369 40.9799 558.807 40.6079C558.993 40.4501 559.144 36.2128 559.144 31.1916C559.144 26.1704 559.296 21.9331 559.482 21.7753C559.936 21.3901 561.715 21.4101 562.186 21.8058C562.393 21.9803 562.536 25.4985 562.504 29.6239C562.461 35.0608 562.623 37.1942 563.089 37.3774C563.954 37.7173 565.624 37.6979 566.041 37.3433C566.227 37.1855 566.383 33.6557 566.387 29.4991C566.392 25.3427 566.61 21.8317 566.872 21.6973C567.133 21.5628 567.818 21.4822 568.394 21.5183C569.385 21.5804 569.455 21.8965 569.737 27.5666C569.901 30.8572 570.089 33.5699 570.154 33.5948C570.618 33.77 573.003 33.5855 573.276 33.3532C573.462 33.1954 573.614 30.5784 573.614 27.5374C573.614 22.0196 573.836 21.307 575.561 21.307C577.179 21.307 577.509 22.0238 577.509 25.5351C577.509 28.4484 577.654 29.1008 578.344 29.2873C580.278 29.8105 580.657 29.2666 581.02 25.4471C581.294 22.5659 581.544 21.728 582.193 21.5165C582.871 21.2954 583.172 21.2891 583.881 21.4808C584.563 21.6652 584.744 22.1248 584.744 23.6723C584.744 25.8679 584.971 26.204 586.453 26.204C588.14 26.204 588.639 25.6107 588.639 23.6082C588.639 22.2099 588.842 21.6593 589.415 21.5044C590.361 21.2485 591.978 21.6903 591.978 22.2046C591.978 22.3847 592.375 22.6396 592.86 22.7707C594.071 23.0982 595.424 22.7937 596.005 22.063C596.312 21.6765 596.802 21.4884 597.5 21.4884C598.943 21.4884 599.213 21.8281 599.213 23.6434C599.213 25.2614 599.663 25.6599 601.491 25.6599C602.845 25.6599 603.108 25.2941 603.108 23.4142C603.108 22.3557 603.353 21.6625 603.776 21.5247C604.719 21.2174 606.267 21.2544 606.666 21.594C606.852 21.7518 607.004 23.7822 607.004 26.1059C607.004 29.6404 607.14 30.368 607.839 30.5568C608.505 30.7369 608.842 30.7369 609.508 30.5568C610.207 30.3677 610.343 29.6311 610.343 26.0226C610.343 22.3129 610.465 21.681 611.224 21.4757C611.863 21.303 612.361 21.2898 613.033 21.4277C613.815 21.588 613.981 22.0146 614.096 24.1377C614.257 27.1391 614.441 27.4736 615.933 27.4736C617.611 27.4736 617.968 26.9144 618.073 24.1215C618.126 22.725 618.418 21.5045 618.723 21.4052C619.575 21.1275 621.151 21.539 621.473 22.1232C621.836 22.7821 623.29 23.0944 624.487 22.7707C624.972 22.6396 625.369 22.3856 625.369 22.2064C625.369 21.3798 627.585 20.9274 628.37 21.594C628.556 21.7518 628.708 23.6126 628.708 25.7292C628.708 28.4805 628.898 29.6395 629.375 29.7951C630.318 30.1023 631.866 30.0653 632.265 29.7258C632.451 29.568 632.603 27.7384 632.603 25.6599C632.603 23.5814 632.755 21.7518 632.941 21.594C633.127 21.4362 633.703 21.307 634.221 21.307C636.172 21.307 636.499 21.6872 636.499 23.9583C636.499 26.403 636.705 26.7481 638.168 26.7481C639.62 26.7481 639.838 26.4013 639.838 24.0914C639.838 21.9948 640.319 21.307 641.786 21.307C643.484 21.307 643.733 22.0222 643.733 26.8954C643.733 31.0177 643.864 31.8174 644.568 32.0078C645.234 32.1879 645.571 32.1879 646.238 32.0078C646.942 31.8172 647.072 31.0128 647.072 26.8513C647.072 22.8411 647.222 21.8548 647.874 21.5684C648.516 21.2867 648.878 21.2564 649.683 21.4171C650.575 21.5951 650.721 21.9848 650.968 24.8437C651.205 27.5933 651.383 28.0977 652.173 28.2598C652.846 28.3976 653.343 28.3844 653.982 28.2117C654.72 28.0121 654.863 27.4932 654.863 25.0177C654.863 23.3922 655.015 21.9331 655.201 21.7753C655.806 21.2615 657.575 21.4387 658.071 22.063C658.972 23.1965 661.593 23.1726 662.298 22.0242C662.714 21.3473 664.207 21.124 665.24 21.5844C665.8 21.8345 665.994 22.6722 665.994 24.8562C665.994 27.2445 666.149 27.834 666.828 28.0177C667.494 28.1978 667.832 28.1978 668.498 28.0177C669.176 27.8343 669.333 27.2494 669.333 24.9003C669.333 22.0218 669.72 21.307 671.28 21.307C672.642 21.307 673.228 21.9536 673.228 23.4566C673.228 25.1263 673.519 25.4785 674.898 25.4785C676.283 25.4785 676.567 25.1265 676.567 23.4125C676.567 21.8234 677.345 21.1567 678.962 21.3589C679.449 21.4199 680.121 21.8004 680.455 22.2046C681.369 23.3103 683.69 23.1877 684.57 21.9872C684.808 21.6629 685.301 21.4884 685.979 21.4884C687.362 21.4884 687.697 21.8303 687.697 23.2383C687.697 24.489 688.347 25.1158 689.645 25.1158C690.943 25.1158 691.593 24.489 691.593 23.2383C691.593 22.5913 691.745 21.9331 691.931 21.7753C692.367 21.4043 694.157 21.4043 694.594 21.7753C694.78 21.9331 694.932 23.3547 694.932 24.9344C694.932 26.5141 695.084 27.9357 695.27 28.0935C695.456 28.2513 696.18 28.3804 696.88 28.3804C697.579 28.3804 698.304 28.2513 698.49 28.0935C698.675 27.9357 698.827 26.5022 698.827 24.9076C698.827 22.0218 699.214 21.307 700.775 21.307C702.521 21.307 702.723 22.0164 702.723 28.1722C702.723 31.5623 702.875 34.465 703.061 34.6228C703.498 34.9938 705.287 34.9938 705.724 34.6228C705.91 34.465 706.062 31.5623 706.062 28.1722C706.062 22.0164 706.263 21.307 708.01 21.307C709.783 21.307 709.957 22.0098 709.957 29.1717C709.957 35.4416 710.067 36.3702 710.832 36.6198C711.313 36.7765 711.796 36.9047 711.905 36.9047C712.014 36.9047 712.497 36.7765 712.979 36.6198C713.744 36.3702 713.853 35.4442 713.853 29.1984C713.853 25.2736 714.005 21.9331 714.191 21.7753C714.468 21.5399 716.313 21.3662 716.755 21.5338C716.821 21.5586 717.008 24.1819 717.173 27.3633C717.446 32.6881 717.55 33.1635 718.477 33.3485C719.282 33.5093 719.643 33.4792 720.286 33.1974C720.942 32.9094 721.088 31.865 721.088 27.4538C721.088 24.4884 721.24 21.9331 721.425 21.7753C721.611 21.6175 722.211 21.4884 722.757 21.4884C723.304 21.4884 723.903 21.6175 724.089 21.7753C724.275 21.9331 724.427 23.6371 724.427 25.5618C724.427 28.5337 724.56 29.0974 725.308 29.3C725.947 29.4726 726.445 29.4859 727.117 29.348C727.916 29.1839 728.086 28.6381 728.351 25.3684C728.52 23.2843 728.707 21.5586 728.768 21.5338C728.829 21.5089 729.353 21.4884 729.932 21.4884C731.415 21.4884 731.661 21.8216 731.661 23.8248C731.661 25.6289 732.069 26.0226 733.939 26.0226C735.299 26.0226 735.557 25.657 735.557 23.7287C735.557 21.9719 736.092 21.307 737.505 21.307C739.099 21.307 739.452 22.0233 739.452 25.2631C739.452 27.9221 739.604 28.5583 740.28 28.7412C740.735 28.8643 741.486 28.9178 741.949 28.8598C742.659 28.7711 742.791 28.2252 742.791 25.3817C742.791 23.4035 743.03 21.8637 743.367 21.6578C744.023 21.2586 745.292 21.1979 745.958 21.5338C746.206 21.6585 746.534 24.3225 746.687 27.454C746.943 32.6954 747.045 33.1635 747.972 33.3485C748.777 33.5093 749.138 33.4792 749.781 33.1974C750.437 32.9094 750.582 31.865 750.582 27.4538C750.582 24.4884 750.734 21.9331 750.92 21.7753C751.433 21.3399 753.297 21.4231 753.637 21.8965C753.798 22.121 753.99 23.5201 754.065 25.0057C754.179 27.2982 754.34 27.7355 755.127 27.8971C755.799 28.0349 756.297 28.0219 756.935 27.849C757.669 27.6504 757.817 27.1462 757.817 24.8363C757.817 23.3106 757.969 21.9331 758.155 21.7753C758.76 21.2615 760.528 21.4387 761.025 22.063C761.606 22.7937 762.959 23.0982 764.17 22.7707C764.655 22.6396 765.052 22.3524 765.052 22.1326C765.052 21.9128 765.678 21.5414 766.443 21.307C768.125 20.7921 768.207 20.3851 766.719 19.9461C766.105 19.7652 765.344 19.3036 765.028 18.9204C764.144 17.8512 761.808 17.9976 760.944 19.176C760.483 19.8044 758.533 19.8666 758.101 19.2666C757.94 19.0421 757.748 17.643 757.673 16.1574C757.559 13.8649 757.398 13.4277 756.612 13.2661C755.939 13.1282 755.442 13.1413 754.803 13.3141C754.069 13.5127 753.921 14.0169 753.921 16.3268C753.921 17.8525 753.77 19.23 753.584 19.3878C753.147 19.7589 751.357 19.7589 750.92 19.3878C750.734 19.23 750.582 16.6747 750.582 13.7093C750.582 9.29808 750.437 8.25376 749.781 7.96575C749.138 7.6839 748.777 7.65379 747.972 7.81467C747.045 7.99966 746.943 8.46778 746.687 13.7091C746.534 16.8407 746.206 19.5048 745.958 19.6294C745.292 19.9653 744.023 19.9045 743.367 19.5053C743.032 19.3009 742.791 17.7966 742.791 15.9001C742.791 13.2287 742.642 12.6053 741.957 12.42C741.29 12.2399 740.953 12.2399 740.287 12.42C739.602 12.6053 739.452 13.2287 739.452 15.9001C739.452 19.1399 739.099 19.8561 737.505 19.8561C736.092 19.8561 735.557 19.1912 735.557 17.4345C735.557 15.5061 735.299 15.1405 733.939 15.1405C732.069 15.1405 731.661 15.5343 731.661 17.3383C731.661 18.3078 731.509 19.23 731.323 19.3878C730.887 19.7589 729.097 19.7589 728.66 19.3878C728.474 19.23 728.322 17.526 728.322 15.6014C728.322 12.6295 728.189 12.0658 727.441 11.8632C726.802 11.6905 726.304 11.6773 725.632 11.8151C724.832 11.9793 724.663 12.525 724.398 15.7947C724.229 17.8788 724.042 19.6045 723.981 19.6294C723.567 19.7988 721.701 19.6225 721.425 19.3878C721.24 19.23 721.088 16.6747 721.088 13.7093C721.088 9.29808 720.942 8.25376 720.286 7.96575C719.643 7.6839 719.282 7.65379 718.477 7.81467C717.55 7.99966 717.446 8.47503 717.173 13.7998C717.008 16.9812 716.821 19.6045 716.755 19.6294C716.313 19.797 714.468 19.6232 714.191 19.3878C714.005 19.23 713.853 15.9193 713.853 12.0304C713.853 4.96192 713.677 4.25839 711.905 4.25839C710.133 4.25839 709.957 4.96174 709.957 12.0572C709.957 19.1527 709.782 19.8561 708.01 19.8561C706.263 19.8561 706.062 19.1468 706.062 12.9909C706.062 9.60079 705.91 6.69816 705.724 6.54037C705.538 6.38258 704.939 6.25345 704.392 6.25345C703.846 6.25345 703.247 6.38258 703.061 6.54037C702.875 6.69816 702.723 9.60079 702.723 12.9909C702.723 19.1468 702.521 19.8561 700.775 19.8561C699.205 19.8561 698.827 19.1408 698.827 16.1629C698.827 13.6852 698.677 13.1224 697.953 12.8863C696.879 12.5362 696.881 12.5362 695.806 12.8863C695.083 13.1222 694.932 13.6827 694.932 16.1362C694.932 17.7667 694.78 19.23 694.594 19.3878C694.081 19.8236 692.217 19.7402 691.884 19.2666C691.726 19.0421 691.534 18.2958 691.456 17.6078C691.35 16.6731 691.08 16.3094 690.387 16.1674C688.576 15.7967 687.697 16.3227 687.697 17.7778C687.697 19.3339 687.388 19.6747 685.979 19.6747C685.301 19.6747 684.808 19.5002 684.57 19.176C683.69 17.9755 681.369 17.8529 680.455 18.9585C680.121 19.3628 679.449 19.7433 678.962 19.8042C677.289 20.0133 676.567 19.3419 676.567 17.5765C676.567 16.3169 676.363 15.8553 675.732 15.6846C675.066 15.5045 674.729 15.5045 674.063 15.6846C673.435 15.8546 673.228 16.312 673.228 17.5324C673.228 19.1977 672.676 19.8561 671.28 19.8561C669.72 19.8561 669.333 19.1413 669.333 16.2628C669.333 13.9137 669.176 13.3288 668.498 13.1455C667.832 12.9654 667.494 12.9654 666.828 13.1455C666.149 13.3292 665.994 13.9186 665.994 16.3069C665.994 18.4909 665.8 19.3287 665.24 19.5788C664.135 20.071 662.808 19.8084 662.106 18.9585C661.192 17.8529 658.87 17.9755 657.99 19.176C657.744 19.512 657.265 19.6747 656.522 19.6747C655.916 19.6747 655.372 19.6542 655.314 19.6294C655.255 19.6045 655.067 18.1237 654.896 16.3386C654.631 13.5784 654.447 13.0649 653.658 12.9031C652.986 12.7655 652.488 12.7787 651.849 12.9514C651.11 13.1513 650.968 13.6723 650.968 16.1721C650.968 19.141 650.589 19.8561 649.02 19.8561C647.322 19.8561 647.072 19.141 647.072 14.2678C647.072 10.1454 646.942 9.34578 646.238 9.15534C645.571 8.97525 645.234 8.97525 644.568 9.15534C643.864 9.34578 643.733 10.1454 643.733 14.2678C643.733 19.141 643.484 19.8561 641.786 19.8561C640.319 19.8561 639.838 19.1683 639.838 17.0717C639.838 14.7618 639.62 14.415 638.168 14.415C636.717 14.415 636.499 14.7618 636.499 17.0717C636.499 19.1683 636.017 19.8561 634.551 19.8561C632.919 19.8561 632.603 19.139 632.603 15.4394C632.603 13.3959 632.451 11.5951 632.265 11.4373C632.08 11.2795 631.355 11.1504 630.655 11.1504C629.956 11.1504 629.231 11.2795 629.045 11.4373C628.86 11.5951 628.708 13.384 628.708 15.4126C628.708 17.4412 628.556 19.23 628.37 19.3878C627.803 19.8695 625.988 19.7317 625.581 19.176C624.705 17.9809 622.379 17.8525 621.473 18.9492C621.029 19.4866 620.587 19.6747 619.768 19.6747C617.933 19.6747 617.458 18.8941 617.882 16.5746C618.293 14.3274 617.865 13.6896 615.948 13.6896C614.424 13.6896 614.239 14.0178 614.239 16.709C614.239 19.1468 613.799 19.8561 612.291 19.8561C610.63 19.8561 610.343 19.1391 610.343 14.9932C610.343 11.5157 610.206 10.7949 609.508 10.6063C608.842 10.4262 608.505 10.4262 607.839 10.6063C607.141 10.7949 607.004 11.5157 607.004 14.9932C607.004 19.1391 606.717 19.8561 605.056 19.8561C603.671 19.8561 603.108 19.2015 603.108 17.589C603.108 15.9764 602.546 15.3219 601.161 15.3219C599.781 15.3219 599.213 15.9746 599.213 17.5621C599.213 19.3345 598.937 19.6747 597.5 19.6747C596.802 19.6747 596.312 19.4866 596.005 19.1001C595.106 17.9688 592.484 17.9902 591.781 19.1346C591.551 19.5086 591.121 19.6747 590.382 19.6747C588.882 19.6747 588.639 19.3457 588.639 17.3169C588.639 15.2381 588.409 14.9591 586.691 14.9591C584.968 14.9591 584.745 15.235 584.735 17.3771C584.726 19.3522 584.376 19.7478 582.729 19.6453C581.812 19.5884 581.64 19.3457 581.334 17.6779C581.141 16.6314 580.954 14.9488 580.917 13.9384C580.865 12.5475 580.646 12.0469 580.013 11.8759C579.347 11.6958 579.01 11.6958 578.344 11.8759C577.654 12.0623 577.509 12.7147 577.509 15.628C577.509 19.1393 577.179 19.8561 575.561 19.8561C573.836 19.8561 573.614 19.1437 573.614 13.5989C573.614 8.05407 573.392 7.34166 571.666 7.34166C569.941 7.34166 569.718 8.05425 569.718 13.572C569.718 16.613 569.566 19.23 569.38 19.3878C568.943 19.7589 567.154 19.7589 566.717 19.3878C566.531 19.23 566.379 15.7272 566.379 11.6038C566.379 7.4804 566.227 3.97763 566.041 3.81984C565.855 3.66205 565.131 3.53292 564.431 3.53292C563.732 3.53292 563.007 3.66205 562.821 3.81984C562.635 3.97763 562.483 7.4804 562.483 11.6038C562.483 15.7272 562.332 19.23 562.146 19.3878C561.96 19.5456 561.36 19.6747 560.814 19.6747C560.267 19.6747 559.668 19.5456 559.482 19.3878C559.296 19.23 559.144 14.951 559.144 9.879C559.144 1.73719 559.042 0.623586 558.27 0.371847C557.789 0.215144 557.306 0.0869141 557.197 0.0869141C557.088 0.0869141 556.605 0.215144 556.123 0.371847Z" fill="white"/>
<path fill-rule="evenodd" clip-rule="evenodd" d="M923.981 0.371847C923.209 0.623586 923.107 1.73719 923.107 9.879C923.107 14.951 922.955 19.23 922.769 19.3878C922.332 19.7589 920.542 19.7589 920.105 19.3878C919.919 19.23 919.768 16.0225 919.768 12.26C919.768 7.18115 919.596 5.36311 919.1 5.20151C918.157 4.89427 916.609 4.93127 916.21 5.27079C916.024 5.42858 915.872 8.61686 915.872 12.3561C915.872 19.1508 915.689 19.8561 913.924 19.8561C912.214 19.8561 911.977 19.1419 911.977 13.9885C911.977 11.147 911.825 8.69322 911.639 8.53543C911.236 8.19336 909.445 8.15528 908.809 8.47521C908.562 8.59999 908.234 11.1493 908.081 14.1406C907.818 19.2808 907.745 19.583 906.756 19.645C906.181 19.6809 905.496 19.6004 905.234 19.4658C904.973 19.3314 904.755 17.6568 904.75 15.7448C904.746 13.8327 904.59 12.1392 904.404 11.9814C904.218 11.8236 903.642 11.6945 903.124 11.6945C901.041 11.6945 900.846 12.0286 900.846 15.6153C900.846 17.5324 900.694 19.23 900.509 19.3878C899.995 19.8234 898.132 19.7402 897.796 19.2666C897.636 19.0421 897.444 18.0919 897.368 17.1548C897.257 15.7951 897.042 15.4126 896.302 15.2609C895.63 15.1233 895.132 15.1365 894.493 15.3092C893.799 15.4971 893.612 15.9246 893.612 17.3244C893.612 18.3014 893.46 19.23 893.274 19.3878C892.707 19.8695 890.892 19.7317 890.485 19.176C889.605 17.9755 887.283 17.8529 886.369 18.9585C886.036 19.3628 885.364 19.7433 884.876 19.8042C883.294 20.0021 882.482 19.3388 882.482 17.8485C882.482 16.8307 882.256 16.3936 881.647 16.2287C879.999 15.7831 879.143 16.3219 879.143 17.8044C879.143 19.2164 878.535 19.8561 877.195 19.8561C875.654 19.8561 875.247 19.1424 875.247 16.4442C875.247 14.2563 875.086 13.6905 874.412 13.5082C873.746 13.3281 873.409 13.3281 872.743 13.5082C872.069 13.6905 871.908 14.2563 871.908 16.4442C871.908 19.1424 871.501 19.8561 869.96 19.8561C868.305 19.8561 868.013 19.1391 868.013 15.0839C868.013 11.5913 867.887 10.9795 867.131 10.775C866.492 10.6021 865.995 10.5891 865.322 10.7269C864.514 10.8929 864.356 11.4721 864.091 15.2506C863.924 17.634 863.737 19.6045 863.674 19.6294C863.612 19.6542 863.06 19.6747 862.448 19.6747C861.835 19.6747 861.281 19.6542 861.215 19.6294C861.15 19.6045 860.962 17.022 860.798 13.8905C860.534 8.84049 860.395 8.17541 859.573 8.00655C858.9 7.86835 858.403 7.88159 857.764 8.05444C856.995 8.26247 856.882 8.99375 856.882 13.7677C856.882 18.0885 856.723 19.3136 856.128 19.5788C855.096 20.0391 853.602 19.8158 853.187 19.139C852.494 18.0099 850.141 18.0099 849.448 19.139C849.032 19.8158 847.539 20.0391 846.506 19.5788C845.989 19.3481 845.752 18.6636 845.752 17.3951C845.752 15.9743 845.56 15.4954 844.918 15.3219C844.251 15.1418 843.914 15.1418 843.248 15.3219C842.609 15.4949 842.413 15.9694 842.413 17.351C842.413 19.1858 841.892 19.8561 840.465 19.8561C838.887 19.8561 838.518 19.1404 838.518 16.0814C838.518 13.5829 838.363 12.9666 837.69 12.7847C837.235 12.6616 836.484 12.6081 836.021 12.6661C835.315 12.7544 835.179 13.2715 835.179 15.8721C835.179 19.0867 834.833 19.6747 832.944 19.6747C831.65 19.6747 831.34 19.3174 831.146 17.6078C831.041 16.6731 830.771 16.3094 830.078 16.1674C828.266 15.7967 827.388 16.3227 827.388 17.7778C827.388 18.5054 827.236 19.23 827.05 19.3878C826.414 19.9279 824.81 19.7046 823.899 18.9492C822.683 17.9405 820.983 17.9448 820.145 18.9585C819.358 19.9121 818.273 20.032 816.224 19.3923L814.588 18.8814L812.952 19.3923C811.004 20.0006 809.697 19.9119 809.223 19.139C808.53 18.0099 806.177 18.0099 805.484 19.139C805.3 19.4384 804.733 19.7355 804.224 19.7991C802.709 19.9885 801.788 19.3539 801.788 18.1206C801.788 17.3182 801.537 16.9308 800.907 16.7601C799.332 16.3343 798.189 16.7784 798.027 17.8797C797.815 19.3123 797.461 19.6747 796.272 19.6747C794.777 19.6747 794.554 19.3419 794.554 17.1087C794.554 15.0973 794.061 14.415 792.606 14.415C791.151 14.415 790.658 15.0973 790.658 17.1087C790.658 18.2045 790.506 19.23 790.32 19.3878C789.884 19.7589 788.094 19.7589 787.657 19.3878C787.471 19.23 787.319 17.5317 787.319 15.6137C787.319 12.8607 787.151 12.0525 786.517 11.7745C785.875 11.4928 785.514 11.4625 784.709 11.6232C783.804 11.8035 783.674 12.2101 783.424 15.6133C783.271 17.6974 782.943 19.5048 782.695 19.6294C782.029 19.9653 780.76 19.9045 780.104 19.5053C779.751 19.2904 779.528 17.4022 779.528 14.6305C779.528 10.8305 779.395 10.0705 778.693 9.88082C778.027 9.70072 777.69 9.70072 777.024 9.88082C776.323 10.0705 776.189 10.8305 776.189 14.6305C776.189 19.1399 775.922 19.8561 774.241 19.8561C772.763 19.8561 772.294 19.1627 772.294 16.981C772.294 14.5665 772.087 14.2337 770.584 14.2337C768.869 14.2337 768.398 14.8344 768.398 17.018C768.398 19.3434 768.184 19.6747 766.68 19.6747C765.514 19.6747 765.147 19.3183 764.926 17.9702C764.642 16.2349 761.163 16.3921 761.163 18.1405C761.163 19.3165 760.779 19.6747 759.519 19.6747C758.905 19.6747 758.229 19.4088 757.675 18.9492C756.403 17.8933 753.962 17.9913 753.917 19.1001C753.91 19.2665 753.415 19.6067 752.816 19.8561C751.434 20.4318 751.434 20.6851 752.816 21.2575C753.428 21.5113 753.929 21.9017 753.929 22.1254C753.929 22.6075 755.262 23.0203 756.37 22.8817C756.802 22.8276 757.451 22.4921 757.812 22.1359C758.258 21.6952 758.805 21.4884 759.527 21.4884C760.711 21.4884 761.074 21.8388 761.296 23.1929C761.58 24.9282 765.059 24.771 765.059 23.0226C765.059 21.8412 765.443 21.4884 766.728 21.4884C768.192 21.4884 768.398 21.8335 768.398 24.2782C768.398 26.5493 768.725 26.9295 770.676 26.9295C772.08 26.9295 772.294 26.5662 772.294 24.1821C772.294 22.0004 772.763 21.307 774.241 21.307C775.922 21.307 776.189 22.0233 776.189 26.5326C776.189 30.3327 776.323 31.0926 777.024 31.2823C777.69 31.4624 778.027 31.4624 778.693 31.2823C779.395 31.0926 779.528 30.3327 779.528 26.5326C779.528 22.0233 779.795 21.307 781.476 21.307C783.094 21.307 783.424 22.024 783.424 25.5424C783.424 27.4861 783.576 29.2053 783.761 29.3631C784.231 29.7614 786.048 29.7224 786.743 29.2992C787.082 29.0927 787.319 27.5318 787.319 25.5054C787.319 23.6115 787.471 21.9331 787.657 21.7753C788.094 21.4043 789.884 21.4043 790.32 21.7753C790.506 21.9331 790.658 22.9466 790.658 24.0276C790.658 26.2938 790.867 26.5667 792.606 26.5667C794.344 26.5667 794.554 26.2938 794.554 24.0276C794.554 21.8365 794.782 21.4884 796.223 21.4884C797.506 21.4884 797.893 21.8412 797.893 23.0103C797.893 24.1576 798.984 24.7643 800.503 24.4623C801.272 24.3098 801.576 23.9572 801.788 22.9745C801.941 22.2663 802.363 21.5905 802.725 21.4728C803.736 21.1442 805.113 21.4193 805.484 22.0242C806.153 23.114 808.734 23.1556 809.129 22.0829C809.399 21.3498 810.928 21.1454 812.512 21.6304C814.152 22.1326 815.013 22.1361 816.611 21.6467C818.285 21.1342 819.407 21.3112 820.145 22.2046C820.983 23.2183 822.683 23.2227 823.899 22.2139C824.476 21.7358 825.121 21.4884 825.792 21.4884C827.012 21.4884 827.334 21.872 827.524 23.5553C827.68 24.9322 828.676 25.4138 830.402 24.9471C831.074 24.765 831.283 24.3575 831.283 23.2256C831.283 21.4413 832.245 20.9211 834.304 21.592C835.032 21.8292 835.179 22.4041 835.179 25.0158C835.179 27.6785 835.314 28.1914 836.074 28.3967C836.834 28.6024 837.085 28.5868 837.743 28.2935C838.33 28.0318 838.518 27.2295 838.518 24.9785C838.518 22.0222 838.897 21.307 840.465 21.307C841.892 21.307 842.413 21.9774 842.413 23.8121C842.413 25.1938 842.609 25.6682 843.248 25.8413C843.914 26.0214 844.251 26.0214 844.918 25.8413C845.557 25.6682 845.752 25.1938 845.752 23.8121C845.752 22.8202 846.012 21.8508 846.328 21.6578C847.273 21.0827 848.506 21.2555 849.648 22.1232C851.082 23.2134 852.337 23.1626 853.205 21.9794C853.677 21.335 855.129 21.1387 856.128 21.5844C856.723 21.8495 856.882 23.0747 856.882 27.3954C856.882 32.1694 856.995 32.9007 857.764 33.1087C858.403 33.2815 858.9 33.2948 859.573 33.1566C860.395 32.9877 860.534 32.3226 860.798 27.2726C860.962 24.1411 861.15 21.5586 861.215 21.5338C861.656 21.366 863.502 21.5399 863.779 21.7753C863.965 21.9331 864.117 23.8819 864.117 26.1059C864.117 29.5742 864.242 30.1836 864.998 30.3882C865.637 30.561 866.135 30.5743 866.807 30.436C867.616 30.2699 867.769 29.6979 868.013 25.9319C868.256 22.166 868.409 21.594 869.218 21.4278C869.889 21.29 870.385 21.3023 871.013 21.4721C871.733 21.6669 871.877 22.1874 871.859 24.5267C871.841 26.8101 871.997 27.3988 872.679 27.6212C873.372 27.847 873.675 27.8544 874.384 27.6626C875.097 27.4698 875.247 26.9315 875.247 24.5717C875.247 22.1858 875.392 21.6749 876.129 21.4757C876.767 21.303 877.266 21.2898 877.937 21.4275C878.661 21.5758 878.899 21.9569 879.025 23.1686C879.198 24.8461 879.993 25.3817 881.647 24.9344C882.266 24.767 882.482 24.321 882.482 23.2114C882.482 22.0666 882.689 21.6582 883.363 21.4757C884.551 21.1545 886.044 21.4663 886.271 22.0829C886.653 23.1202 889.344 23.1858 890.146 22.1774C890.652 21.541 892.298 21.2751 893.119 21.6973C893.381 21.8317 893.598 22.7021 893.603 23.6315C893.612 25.3606 894.154 26.0226 895.56 26.0226C896.957 26.0226 897.507 25.3637 897.507 23.6917C897.507 22.7954 897.659 21.9331 897.845 21.7753C898.282 21.4043 900.072 21.4043 900.509 21.7753C900.694 21.9331 900.846 23.6307 900.846 25.5478C900.846 29.1345 901.041 29.4686 903.124 29.4686C903.642 29.4686 904.218 29.3395 904.404 29.1817C904.59 29.0239 904.742 27.3256 904.742 25.4076C904.742 21.7617 905.13 21.1079 907.143 21.3596C907.929 21.4579 908.054 22.1265 908.197 27.0027C908.368 32.8161 908.557 33.2487 910.74 32.8002C911.606 32.6221 911.712 32.0841 911.846 27.1972C911.945 23.5778 912.197 21.711 912.61 21.549C913.451 21.2185 915.122 21.2441 915.534 21.594C915.72 21.7518 915.872 24.9689 915.872 28.7432C915.872 32.5174 916.024 35.7345 916.21 35.8923C916.609 36.2319 918.157 36.2689 919.1 35.9616C919.596 35.8 919.768 33.982 919.768 28.9031C919.768 25.1406 919.919 21.9331 920.105 21.7753C920.291 21.6175 920.891 21.4884 921.437 21.4884C921.984 21.4884 922.583 21.6175 922.769 21.7753C922.955 21.9331 923.107 26.1704 923.107 31.1916C923.107 36.2128 923.259 40.4501 923.444 40.6079C923.882 40.9799 926.226 40.9799 926.664 40.6079C926.85 40.4501 927.002 36.2128 927.002 31.1916C927.002 26.1704 927.154 21.9331 927.34 21.7753C927.793 21.3901 929.573 21.4101 930.043 21.8058C930.251 21.9803 930.394 25.4985 930.362 29.6239C930.319 35.0608 930.48 37.1942 930.947 37.3774C931.812 37.7173 933.482 37.6979 933.899 37.3433C934.085 37.1855 934.241 33.6557 934.245 29.4991C934.25 25.3427 934.468 21.8317 934.729 21.6973C934.991 21.5628 935.676 21.4822 936.251 21.5183C937.243 21.5804 937.313 21.8965 937.595 27.5666C937.758 30.8572 937.946 33.5699 938.012 33.5948C938.476 33.77 940.86 33.5855 941.133 33.3532C941.319 33.1954 941.471 30.5784 941.471 27.5374C941.471 22.0196 941.694 21.307 943.419 21.307C945.037 21.307 945.367 22.0238 945.367 25.5351C945.367 28.4484 945.512 29.1008 946.202 29.2873C948.136 29.8105 948.515 29.2666 948.878 25.4471C949.152 22.5659 949.401 21.728 950.051 21.5165C950.729 21.2954 951.03 21.2891 951.739 21.4808C952.421 21.6652 952.601 22.1248 952.601 23.6723C952.601 25.8679 952.828 26.204 954.311 26.204C955.997 26.204 956.497 25.6107 956.497 23.6082C956.497 22.2099 956.7 21.6593 957.273 21.5044C958.219 21.2485 959.836 21.6903 959.836 22.2046C959.836 22.3847 960.233 22.6396 960.717 22.7707C961.928 23.0982 963.282 22.7937 963.863 22.063C964.17 21.6765 964.66 21.4884 965.358 21.4884C966.801 21.4884 967.07 21.8281 967.07 23.6434C967.07 25.2614 967.521 25.6599 969.348 25.6599C970.702 25.6599 970.966 25.2941 970.966 23.4142C970.966 22.3557 971.211 21.6625 971.634 21.5247C972.577 21.2174 974.124 21.2544 974.524 21.594C974.71 21.7518 974.862 23.7822 974.862 26.1059C974.862 29.6404 974.998 30.368 975.696 30.5568C976.362 30.7369 976.7 30.7369 977.366 30.5568C978.065 30.3677 978.201 29.6311 978.201 26.0226C978.201 22.3129 978.323 21.681 979.082 21.4757C979.721 21.303 980.219 21.2898 980.891 21.4277C981.672 21.588 981.839 22.0146 981.953 24.1377C982.115 27.1391 982.299 27.4736 983.79 27.4736C985.469 27.4736 985.825 26.9144 985.931 24.1215C985.984 22.725 986.276 21.5045 986.581 21.4052C987.433 21.1275 989.009 21.539 989.331 22.1232C989.694 22.7821 991.148 23.0944 992.345 22.7707C992.83 22.6396 993.226 22.3856 993.226 22.2064C993.226 21.3798 995.443 20.9274 996.228 21.594C996.413 21.7518 996.565 23.6126 996.565 25.7292C996.565 28.4805 996.756 29.6395 997.233 29.7951C998.176 30.1023 999.723 30.0653 1000.12 29.7258C1000.31 29.568 1000.46 27.7384 1000.46 25.6599C1000.46 23.5814 1000.61 21.7518 1000.8 21.594C1000.98 21.4362 1001.56 21.307 1002.08 21.307C1004.03 21.307 1004.36 21.6872 1004.36 23.9583C1004.36 26.403 1004.56 26.7481 1006.03 26.7481C1007.48 26.7481 1007.7 26.4013 1007.7 24.0914C1007.7 21.9948 1008.18 21.307 1009.64 21.307C1011.34 21.307 1011.59 22.0222 1011.59 26.8954C1011.59 31.0177 1011.72 31.8174 1012.43 32.0078C1013.09 32.1879 1013.43 32.1879 1014.1 32.0078C1014.8 31.8172 1014.93 31.0128 1014.93 26.8513C1014.93 22.8411 1015.08 21.8548 1015.73 21.5684C1016.37 21.2867 1016.74 21.2564 1017.54 21.4171C1018.43 21.5951 1018.58 21.9848 1018.83 24.8437C1019.06 27.5933 1019.24 28.0977 1020.03 28.2598C1020.7 28.3976 1021.2 28.3844 1021.84 28.2117C1022.58 28.0121 1022.72 27.4932 1022.72 25.0177C1022.72 23.3922 1022.87 21.9331 1023.06 21.7753C1023.66 21.2615 1025.43 21.4387 1025.93 22.063C1026.83 23.1965 1029.45 23.1726 1030.16 22.0242C1030.57 21.3473 1032.06 21.124 1033.1 21.5844C1033.66 21.8345 1033.85 22.6722 1033.85 24.8562C1033.85 27.2445 1034.01 27.834 1034.69 28.0177C1035.35 28.1978 1035.69 28.1978 1036.36 28.0177C1037.03 27.8343 1037.19 27.2494 1037.19 24.9003C1037.19 22.0218 1037.58 21.307 1039.14 21.307C1040.5 21.307 1041.09 21.9536 1041.09 23.4566C1041.09 25.1263 1041.38 25.4785 1042.76 25.4785C1044.14 25.4785 1044.42 25.1265 1044.42 23.4125C1044.42 21.8234 1045.2 21.1567 1046.82 21.3589C1047.31 21.4199 1047.98 21.8004 1048.31 22.2046C1049.23 23.3103 1051.55 23.1877 1052.43 21.9872C1052.67 21.6629 1053.16 21.4884 1053.84 21.4884C1055.22 21.4884 1055.55 21.8303 1055.55 23.2383C1055.55 24.489 1056.2 25.1158 1057.5 25.1158C1058.8 25.1158 1059.45 24.489 1059.45 23.2383C1059.45 22.5913 1059.6 21.9331 1059.79 21.7753C1060.23 21.4043 1062.01 21.4043 1062.45 21.7753C1062.64 21.9331 1062.79 23.3547 1062.79 24.9344C1062.79 26.5141 1062.94 27.9357 1063.13 28.0935C1063.31 28.2513 1064.04 28.3804 1064.74 28.3804C1065.44 28.3804 1066.16 28.2513 1066.35 28.0935C1066.53 27.9357 1066.69 26.5022 1066.69 24.9076C1066.69 22.0218 1067.07 21.307 1068.63 21.307C1070.38 21.307 1070.58 22.0164 1070.58 28.1722C1070.58 31.5623 1070.73 34.465 1070.92 34.6228C1071.36 34.9938 1073.15 34.9938 1073.58 34.6228C1073.77 34.465 1073.92 31.5623 1073.92 28.1722C1073.92 22.0164 1074.12 21.307 1075.87 21.307C1077.64 21.307 1077.82 22.0098 1077.82 29.1717C1077.82 35.4416 1077.92 36.3702 1078.69 36.6198C1079.17 36.7765 1079.65 36.9047 1079.76 36.9047C1079.87 36.9047 1080.36 36.7765 1080.84 36.6198C1081.6 36.3702 1081.71 35.4442 1081.71 29.1984C1081.71 25.2736 1081.86 21.9331 1082.05 21.7753C1082.33 21.5399 1084.17 21.3662 1084.61 21.5338C1084.68 21.5586 1084.87 24.1819 1085.03 27.3633C1085.3 32.6881 1085.41 33.1635 1086.33 33.3485C1087.14 33.5093 1087.5 33.4792 1088.14 33.1974C1088.8 32.9094 1088.95 31.865 1088.95 27.4538C1088.95 24.4884 1089.1 21.9331 1089.28 21.7753C1089.47 21.6175 1090.07 21.4884 1090.61 21.4884C1091.16 21.4884 1091.76 21.6175 1091.95 21.7753C1092.13 21.9331 1092.28 23.6371 1092.28 25.5618C1092.28 28.5337 1092.42 29.0974 1093.17 29.3C1093.8 29.4726 1094.3 29.4859 1094.97 29.348C1095.77 29.1839 1095.94 28.6381 1096.21 25.3684C1096.38 23.2843 1096.56 21.5586 1096.63 21.5338C1096.69 21.5089 1097.21 21.4884 1097.79 21.4884C1099.27 21.4884 1099.52 21.8216 1099.52 23.8248C1099.52 25.6289 1099.93 26.0226 1101.8 26.0226C1103.16 26.0226 1103.41 25.657 1103.41 23.7287C1103.41 21.9719 1103.95 21.307 1105.36 21.307C1106.96 21.307 1107.31 22.0233 1107.31 25.2631C1107.31 27.9221 1107.46 28.5583 1108.14 28.7412C1108.59 28.8643 1109.34 28.9178 1109.81 28.8598C1110.52 28.7711 1110.65 28.2252 1110.65 25.3817C1110.65 23.4035 1110.89 21.8637 1111.22 21.6578C1111.88 21.2586 1113.15 21.1979 1113.82 21.5338C1114.06 21.6585 1114.39 24.3225 1114.54 27.454C1114.8 32.6954 1114.9 33.1635 1115.83 33.3485C1116.63 33.5093 1117 33.4792 1117.64 33.1974C1118.29 32.9094 1118.44 31.865 1118.44 27.4538C1118.44 24.4884 1118.59 21.9331 1118.78 21.7753C1119.29 21.3399 1121.15 21.4231 1121.49 21.8965C1121.66 22.121 1121.85 23.5201 1121.92 25.0057C1122.04 27.2982 1122.2 27.7355 1122.98 27.8971C1123.66 28.0349 1124.15 28.0219 1124.79 27.849C1125.53 27.6504 1125.67 27.1462 1125.67 24.8363C1125.67 23.3106 1125.83 21.9331 1126.01 21.7753C1126.62 21.2615 1128.39 21.4387 1128.88 22.063C1129.46 22.7937 1130.82 23.0982 1132.03 22.7707C1132.51 22.6396 1132.91 22.3524 1132.91 22.1326C1132.91 21.9128 1133.54 21.5414 1134.3 21.307C1135.98 20.7921 1136.06 20.3851 1134.58 19.9461C1133.96 19.7652 1133.2 19.3036 1132.89 18.9204C1132 17.8512 1129.67 17.9976 1128.8 19.176C1128.34 19.8044 1126.39 19.8666 1125.96 19.2666C1125.8 19.0421 1125.61 17.643 1125.53 16.1574C1125.42 13.8649 1125.26 13.4277 1124.47 13.2661C1123.8 13.1282 1123.3 13.1413 1122.66 13.3141C1121.93 13.5127 1121.78 14.0169 1121.78 16.3268C1121.78 17.8525 1121.63 19.23 1121.44 19.3878C1121 19.7589 1119.21 19.7589 1118.78 19.3878C1118.59 19.23 1118.44 16.6747 1118.44 13.7093C1118.44 9.29808 1118.29 8.25376 1117.64 7.96575C1117 7.6839 1116.63 7.65379 1115.83 7.81467C1114.9 7.99966 1114.8 8.46778 1114.54 13.7091C1114.39 16.8407 1114.06 19.5048 1113.82 19.6294C1113.15 19.9653 1111.88 19.9045 1111.22 19.5053C1110.89 19.3009 1110.65 17.7966 1110.65 15.9001C1110.65 13.2287 1110.5 12.6053 1109.81 12.42C1109.15 12.2399 1108.81 12.2399 1108.14 12.42C1107.46 12.6053 1107.31 13.2287 1107.31 15.9001C1107.31 19.1399 1106.96 19.8561 1105.36 19.8561C1103.95 19.8561 1103.41 19.1912 1103.41 17.4345C1103.41 15.5061 1103.16 15.1405 1101.8 15.1405C1099.93 15.1405 1099.52 15.5343 1099.52 17.3383C1099.52 18.3078 1099.37 19.23 1099.18 19.3878C1098.74 19.7589 1096.95 19.7589 1096.52 19.3878C1096.33 19.23 1096.18 17.526 1096.18 15.6014C1096.18 12.6295 1096.05 12.0658 1095.3 11.8632C1094.66 11.6905 1094.16 11.6773 1093.49 11.8151C1092.69 11.9793 1092.52 12.525 1092.26 15.7947C1092.09 17.8788 1091.9 19.6045 1091.84 19.6294C1091.43 19.7988 1089.56 19.6225 1089.28 19.3878C1089.1 19.23 1088.95 16.6747 1088.95 13.7093C1088.95 9.29808 1088.8 8.25376 1088.14 7.96575C1087.5 7.6839 1087.14 7.65379 1086.33 7.81467C1085.41 7.99966 1085.3 8.47503 1085.03 13.7998C1084.87 16.9812 1084.68 19.6045 1084.61 19.6294C1084.17 19.797 1082.33 19.6232 1082.05 19.3878C1081.86 19.23 1081.71 15.9193 1081.71 12.0304C1081.71 4.96192 1081.53 4.25839 1079.76 4.25839C1077.99 4.25839 1077.82 4.96174 1077.82 12.0572C1077.82 19.1527 1077.64 19.8561 1075.87 19.8561C1074.12 19.8561 1073.92 19.1468 1073.92 12.9909C1073.92 9.60079 1073.77 6.69816 1073.58 6.54037C1073.4 6.38258 1072.8 6.25345 1072.25 6.25345C1071.7 6.25345 1071.1 6.38258 1070.92 6.54037C1070.73 6.69816 1070.58 9.60079 1070.58 12.9909C1070.58 19.1468 1070.38 19.8561 1068.63 19.8561C1067.06 19.8561 1066.69 19.1408 1066.69 16.1629C1066.69 13.6852 1066.53 13.1224 1065.81 12.8863C1064.74 12.5362 1064.74 12.5362 1063.66 12.8863C1062.94 13.1222 1062.79 13.6827 1062.79 16.1362C1062.79 17.7667 1062.64 19.23 1062.45 19.3878C1061.94 19.8236 1060.07 19.7402 1059.74 19.2666C1059.58 19.0421 1059.39 18.2958 1059.31 17.6078C1059.21 16.6731 1058.94 16.3094 1058.25 16.1674C1056.43 15.7967 1055.55 16.3227 1055.55 17.7778C1055.55 19.3339 1055.25 19.6747 1053.84 19.6747C1053.16 19.6747 1052.67 19.5002 1052.43 19.176C1051.55 17.9755 1049.23 17.8529 1048.31 18.9585C1047.98 19.3628 1047.31 19.7433 1046.82 19.8042C1045.15 20.0133 1044.42 19.3419 1044.42 17.5765C1044.42 16.3169 1044.22 15.8553 1043.59 15.6846C1042.92 15.5045 1042.59 15.5045 1041.92 15.6846C1041.29 15.8546 1041.09 16.312 1041.09 17.5324C1041.09 19.1977 1040.53 19.8561 1039.14 19.8561C1037.58 19.8561 1037.19 19.1413 1037.19 16.2628C1037.19 13.9137 1037.03 13.3288 1036.36 13.1455C1035.69 12.9654 1035.35 12.9654 1034.69 13.1455C1034.01 13.3292 1033.85 13.9186 1033.85 16.3069C1033.85 18.4909 1033.66 19.3287 1033.1 19.5788C1031.99 20.071 1030.67 19.8084 1029.96 18.9585C1029.05 17.8529 1026.73 17.9755 1025.85 19.176C1025.6 19.512 1025.12 19.6747 1024.38 19.6747C1023.77 19.6747 1023.23 19.6542 1023.17 19.6294C1023.11 19.6045 1022.92 18.1237 1022.75 16.3386C1022.49 13.5784 1022.3 13.0649 1021.52 12.9031C1020.84 12.7655 1020.35 12.7787 1019.71 12.9514C1018.97 13.1513 1018.83 13.6723 1018.83 16.1721C1018.83 19.141 1018.45 19.8561 1016.88 19.8561C1015.18 19.8561 1014.93 19.141 1014.93 14.2678C1014.93 10.1454 1014.8 9.34578 1014.1 9.15534C1013.43 8.97525 1013.09 8.97525 1012.43 9.15534C1011.72 9.34578 1011.59 10.1454 1011.59 14.2678C1011.59 19.141 1011.34 19.8561 1009.64 19.8561C1008.18 19.8561 1007.7 19.1683 1007.7 17.0717C1007.7 14.7618 1007.48 14.415 1006.03 14.415C1004.57 14.415 1004.36 14.7618 1004.36 17.0717C1004.36 19.1683 1003.88 19.8561 1002.41 19.8561C1000.78 19.8561 1000.46 19.139 1000.46 15.4394C1000.46 13.3959 1000.31 11.5951 1000.12 11.4373C999.937 11.2795 999.213 11.1504 998.513 11.1504C997.814 11.1504 997.089 11.2795 996.903 11.4373C996.717 11.5951 996.565 13.384 996.565 15.4126C996.565 17.4412 996.413 19.23 996.228 19.3878C995.661 19.8695 993.846 19.7317 993.438 19.176C992.562 17.9809 990.237 17.8525 989.331 18.9492C988.887 19.4866 988.445 19.6747 987.626 19.6747C985.791 19.6747 985.316 18.8941 985.74 16.5746C986.151 14.3274 985.723 13.6896 983.806 13.6896C982.282 13.6896 982.096 14.0178 982.096 16.709C982.096 19.1468 981.657 19.8561 980.148 19.8561C978.488 19.8561 978.201 19.1391 978.201 14.9932C978.201 11.5157 978.064 10.7949 977.366 10.6063C976.7 10.4262 976.362 10.4262 975.696 10.6063C974.999 10.7949 974.862 11.5157 974.862 14.9932C974.862 19.1391 974.574 19.8561 972.914 19.8561C971.529 19.8561 970.966 19.2015 970.966 17.589C970.966 15.9764 970.403 15.3219 969.018 15.3219C967.638 15.3219 967.07 15.9746 967.07 17.5621C967.07 19.3345 966.794 19.6747 965.358 19.6747C964.66 19.6747 964.17 19.4866 963.863 19.1001C962.964 17.9688 960.341 17.9902 959.639 19.1346C959.409 19.5086 958.979 19.6747 958.24 19.6747C956.74 19.6747 956.497 19.3457 956.497 17.3169C956.497 15.2381 956.267 14.9591 954.549 14.9591C952.826 14.9591 952.602 15.235 952.593 17.3771C952.584 19.3522 952.234 19.7478 950.587 19.6453C949.67 19.5884 949.498 19.3457 949.192 17.6779C948.999 16.6314 948.812 14.9488 948.774 13.9384C948.723 12.5475 948.503 12.0469 947.871 11.8759C947.205 11.6958 946.868 11.6958 946.202 11.8759C945.512 12.0623 945.367 12.7147 945.367 15.628C945.367 19.1393 945.037 19.8561 943.419 19.8561C941.693 19.8561 941.471 19.1437 941.471 13.5989C941.471 8.05407 941.249 7.34166 939.523 7.34166C937.798 7.34166 937.576 8.05425 937.576 13.572C937.576 16.613 937.424 19.23 937.238 19.3878C936.801 19.7589 935.011 19.7589 934.574 19.3878C934.389 19.23 934.237 15.7272 934.237 11.6038C934.237 7.4804 934.085 3.97763 933.899 3.81984C933.713 3.66205 932.988 3.53292 932.289 3.53292C931.589 3.53292 930.865 3.66205 930.679 3.81984C930.493 3.97763 930.341 7.4804 930.341 11.6038C930.341 15.7272 930.189 19.23 930.003 19.3878C929.818 19.5456 929.218 19.6747 928.672 19.6747C928.125 19.6747 927.526 19.5456 927.34 19.3878C927.154 19.23 927.002 14.951 927.002 9.879C927.002 1.73719 926.9 0.623586 926.128 0.371847C925.646 0.215144 925.163 0.0869141 925.054 0.0869141C924.945 0.0869141 924.462 0.215144 923.981 0.371847Z" fill="white"/>
<path fill-rule="evenodd" clip-rule="evenodd" d="M1307.83 0.371847C1307.06 0.623586 1306.96 1.73719 1306.96 9.879C1306.96 14.951 1306.81 19.23 1306.62 19.3878C1306.18 19.7589 1304.39 19.7589 1303.96 19.3878C1303.77 19.23 1303.62 16.0225 1303.62 12.26C1303.62 7.18115 1303.45 5.36311 1302.95 5.20151C1302.01 4.89427 1300.46 4.93127 1300.06 5.27079C1299.88 5.42858 1299.72 8.61686 1299.72 12.3561C1299.72 19.1508 1299.54 19.8561 1297.78 19.8561C1296.07 19.8561 1295.83 19.1419 1295.83 13.9885C1295.83 11.147 1295.68 8.69322 1295.49 8.53543C1295.09 8.19336 1293.3 8.15528 1292.66 8.47521C1292.41 8.59999 1292.09 11.1493 1291.93 14.1406C1291.67 19.2808 1291.6 19.583 1290.61 19.645C1290.03 19.6809 1289.35 19.6004 1289.09 19.4658C1288.82 19.3314 1288.61 17.6568 1288.6 15.7448C1288.6 13.8327 1288.44 12.1392 1288.26 11.9814C1288.07 11.8236 1287.49 11.6945 1286.98 11.6945C1284.89 11.6945 1284.7 12.0286 1284.7 15.6153C1284.7 17.5324 1284.55 19.23 1284.36 19.3878C1283.85 19.8234 1281.98 19.7402 1281.65 19.2666C1281.49 19.0421 1281.3 18.0919 1281.22 17.1548C1281.11 15.7951 1280.89 15.4126 1280.15 15.2609C1279.48 15.1233 1278.98 15.1365 1278.34 15.3092C1277.65 15.4971 1277.46 15.9246 1277.46 17.3244C1277.46 18.3014 1277.31 19.23 1277.13 19.3878C1276.56 19.8695 1274.74 19.7317 1274.34 19.176C1273.46 17.9755 1271.13 17.8529 1270.22 18.9585C1269.89 19.3628 1269.22 19.7433 1268.73 19.8042C1267.15 20.0021 1266.33 19.3388 1266.33 17.8485C1266.33 16.8307 1266.11 16.3936 1265.5 16.2287C1263.85 15.7831 1262.99 16.3219 1262.99 17.8044C1262.99 19.2164 1262.39 19.8561 1261.05 19.8561C1259.51 19.8561 1259.1 19.1424 1259.1 16.4442C1259.1 14.2563 1258.94 13.6905 1258.26 13.5082C1257.6 13.3281 1257.26 13.3281 1256.59 13.5082C1255.92 13.6905 1255.76 14.2563 1255.76 16.4442C1255.76 19.1424 1255.35 19.8561 1253.81 19.8561C1252.16 19.8561 1251.86 19.1391 1251.86 15.0839C1251.86 11.5913 1251.74 10.9795 1250.98 10.775C1250.34 10.6021 1249.85 10.5891 1249.17 10.7269C1248.37 10.8929 1248.21 11.4721 1247.94 15.2506C1247.78 17.634 1247.59 19.6045 1247.53 19.6294C1247.46 19.6542 1246.91 19.6747 1246.3 19.6747C1245.69 19.6747 1245.13 19.6542 1245.07 19.6294C1245 19.6045 1244.81 17.022 1244.65 13.8905C1244.39 8.84049 1244.25 8.17541 1243.42 8.00655C1242.75 7.86835 1242.25 7.88159 1241.62 8.05444C1240.85 8.26247 1240.73 8.99375 1240.73 13.7677C1240.73 18.0885 1240.57 19.3136 1239.98 19.5788C1238.95 20.0391 1237.45 19.8158 1237.04 19.139C1236.35 18.0099 1233.99 18.0099 1233.3 19.139C1232.88 19.8158 1231.39 20.0391 1230.36 19.5788C1229.84 19.3481 1229.6 18.6636 1229.6 17.3951C1229.6 15.9743 1229.41 15.4954 1228.77 15.3219C1228.1 15.1418 1227.77 15.1418 1227.1 15.3219C1226.46 15.4949 1226.26 15.9694 1226.26 17.351C1226.26 19.1858 1225.74 19.8561 1224.32 19.8561C1222.74 19.8561 1222.37 19.1404 1222.37 16.0814C1222.37 13.5829 1222.21 12.9666 1221.54 12.7847C1221.09 12.6616 1220.34 12.6081 1219.87 12.6661C1219.17 12.7544 1219.03 13.2715 1219.03 15.8721C1219.03 19.0867 1218.68 19.6747 1216.8 19.6747C1215.5 19.6747 1215.19 19.3174 1215 17.6078C1214.89 16.6731 1214.62 16.3094 1213.93 16.1674C1212.12 15.7967 1211.24 16.3227 1211.24 17.7778C1211.24 18.5054 1211.09 19.23 1210.9 19.3878C1210.27 19.9279 1208.66 19.7046 1207.75 18.9492C1206.53 17.9405 1204.83 17.9448 1204 18.9585C1203.21 19.9121 1202.12 20.032 1200.08 19.3923L1198.44 18.8814L1196.8 19.3923C1194.86 20.0006 1193.55 19.9119 1193.07 19.139C1192.38 18.0099 1190.03 18.0099 1189.34 19.139C1189.15 19.4384 1188.58 19.7355 1188.08 19.7991C1186.56 19.9885 1185.64 19.3539 1185.64 18.1206C1185.64 17.3182 1185.39 16.9308 1184.76 16.7601C1183.18 16.3343 1182.04 16.7784 1181.88 17.8797C1181.67 19.3123 1181.31 19.6747 1180.12 19.6747C1178.63 19.6747 1178.41 19.3419 1178.41 17.1087C1178.41 15.0973 1177.91 14.415 1176.46 14.415C1175 14.415 1174.51 15.0973 1174.51 17.1087C1174.51 18.2045 1174.36 19.23 1174.17 19.3878C1173.74 19.7589 1171.95 19.7589 1171.51 19.3878C1171.32 19.23 1171.17 17.5317 1171.17 15.6137C1171.17 12.8607 1171 12.0525 1170.37 11.7745C1169.73 11.4928 1169.37 11.4625 1168.56 11.6232C1167.66 11.8035 1167.53 12.2101 1167.28 15.6133C1167.12 17.6974 1166.79 19.5048 1166.55 19.6294C1165.88 19.9653 1164.61 19.9045 1163.96 19.5053C1163.6 19.2904 1163.38 17.4022 1163.38 14.6305C1163.38 10.8305 1163.25 10.0705 1162.54 9.88082C1161.88 9.70072 1161.54 9.70072 1160.88 9.88082C1160.17 10.0705 1160.04 10.8305 1160.04 14.6305C1160.04 19.1399 1159.77 19.8561 1158.09 19.8561C1156.61 19.8561 1156.15 19.1627 1156.15 16.981C1156.15 14.5665 1155.94 14.2337 1154.44 14.2337C1152.72 14.2337 1152.25 14.8344 1152.25 17.018C1152.25 19.3434 1152.04 19.6747 1150.53 19.6747C1149.37 19.6747 1149 19.3183 1148.78 17.9702C1148.49 16.2349 1145.01 16.3921 1145.01 18.1405C1145.01 19.3165 1144.63 19.6747 1143.37 19.6747C1142.76 19.6747 1142.08 19.4088 1141.53 18.9492C1140.25 17.8933 1137.81 17.9913 1137.77 19.1001C1137.76 19.2665 1137.27 19.6067 1136.67 19.8561C1135.29 20.4318 1135.29 20.6851 1136.67 21.2575C1137.28 21.5113 1137.78 21.9017 1137.78 22.1254C1137.78 22.6075 1139.11 23.0203 1140.22 22.8817C1140.65 22.8276 1141.3 22.4921 1141.66 22.1359C1142.11 21.6952 1142.66 21.4884 1143.38 21.4884C1144.56 21.4884 1144.93 21.8388 1145.15 23.1929C1145.43 24.9282 1148.91 24.771 1148.91 23.0226C1148.91 21.8412 1149.29 21.4884 1150.58 21.4884C1152.04 21.4884 1152.25 21.8335 1152.25 24.2782C1152.25 26.5493 1152.58 26.9295 1154.53 26.9295C1155.93 26.9295 1156.15 26.5662 1156.15 24.1821C1156.15 22.0004 1156.61 21.307 1158.09 21.307C1159.77 21.307 1160.04 22.0233 1160.04 26.5326C1160.04 30.3327 1160.17 31.0926 1160.88 31.2823C1161.54 31.4624 1161.88 31.4624 1162.54 31.2823C1163.25 31.0926 1163.38 30.3327 1163.38 26.5326C1163.38 22.0233 1163.65 21.307 1165.33 21.307C1166.95 21.307 1167.28 22.024 1167.28 25.5424C1167.28 27.4861 1167.43 29.2053 1167.61 29.3631C1168.08 29.7614 1169.9 29.7224 1170.59 29.2992C1170.93 29.0927 1171.17 27.5318 1171.17 25.5054C1171.17 23.6115 1171.32 21.9331 1171.51 21.7753C1171.95 21.4043 1173.74 21.4043 1174.17 21.7753C1174.36 21.9331 1174.51 22.9466 1174.51 24.0276C1174.51 26.2938 1174.72 26.5667 1176.46 26.5667C1178.2 26.5667 1178.41 26.2938 1178.41 24.0276C1178.41 21.8365 1178.63 21.4884 1180.07 21.4884C1181.36 21.4884 1181.74 21.8412 1181.74 23.0103C1181.74 24.1576 1182.84 24.7643 1184.35 24.4623C1185.12 24.3098 1185.43 23.9572 1185.64 22.9745C1185.79 22.2663 1186.21 21.5905 1186.58 21.4728C1187.59 21.1442 1188.96 21.4193 1189.34 22.0242C1190 23.114 1192.59 23.1556 1192.98 22.0829C1193.25 21.3498 1194.78 21.1454 1196.36 21.6304C1198 22.1326 1198.86 22.1361 1200.46 21.6467C1202.14 21.1342 1203.26 21.3112 1204 22.2046C1204.83 23.2183 1206.53 23.2227 1207.75 22.2139C1208.33 21.7358 1208.97 21.4884 1209.64 21.4884C1210.86 21.4884 1211.19 21.872 1211.38 23.5553C1211.53 24.9322 1212.53 25.4138 1214.25 24.9471C1214.93 24.765 1215.13 24.3575 1215.13 23.2256C1215.13 21.4413 1216.1 20.9211 1218.16 21.592C1218.88 21.8292 1219.03 22.4041 1219.03 25.0158C1219.03 27.6785 1219.17 28.1914 1219.93 28.3967C1220.69 28.6024 1220.94 28.5868 1221.59 28.2935C1222.18 28.0318 1222.37 27.2295 1222.37 24.9785C1222.37 22.0222 1222.75 21.307 1224.32 21.307C1225.74 21.307 1226.26 21.9774 1226.26 23.8121C1226.26 25.1938 1226.46 25.6682 1227.1 25.8413C1227.77 26.0214 1228.1 26.0214 1228.77 25.8413C1229.41 25.6682 1229.6 25.1938 1229.6 23.8121C1229.6 22.8202 1229.86 21.8508 1230.18 21.6578C1231.12 21.0827 1232.36 21.2555 1233.5 22.1232C1234.93 23.2134 1236.19 23.1626 1237.06 21.9794C1237.53 21.335 1238.98 21.1387 1239.98 21.5844C1240.57 21.8495 1240.73 23.0747 1240.73 27.3954C1240.73 32.1694 1240.85 32.9007 1241.62 33.1087C1242.25 33.2815 1242.75 33.2948 1243.42 33.1566C1244.25 32.9877 1244.39 32.3226 1244.65 27.2726C1244.81 24.1411 1245 21.5586 1245.07 21.5338C1245.51 21.366 1247.35 21.5399 1247.63 21.7753C1247.82 21.9331 1247.97 23.8819 1247.97 26.1059C1247.97 29.5742 1248.09 30.1836 1248.85 30.3882C1249.49 30.561 1249.99 30.5743 1250.66 30.436C1251.47 30.2699 1251.62 29.6979 1251.86 25.9319C1252.11 22.166 1252.26 21.594 1253.07 21.4278C1253.74 21.29 1254.24 21.3023 1254.86 21.4721C1255.58 21.6669 1255.73 22.1874 1255.71 24.5267C1255.69 26.8101 1255.85 27.3988 1256.53 27.6212C1257.22 27.847 1257.53 27.8544 1258.24 27.6626C1258.95 27.4698 1259.1 26.9315 1259.1 24.5717C1259.1 22.1858 1259.24 21.6749 1259.98 21.4757C1260.62 21.303 1261.12 21.2898 1261.79 21.4275C1262.51 21.5758 1262.75 21.9569 1262.88 23.1686C1263.05 24.8461 1263.84 25.3817 1265.5 24.9344C1266.12 24.767 1266.33 24.321 1266.33 23.2114C1266.33 22.0666 1266.54 21.6582 1267.21 21.4757C1268.4 21.1545 1269.9 21.4663 1270.12 22.0829C1270.5 23.1202 1273.2 23.1858 1274 22.1774C1274.5 21.541 1276.15 21.2751 1276.97 21.6973C1277.23 21.8317 1277.45 22.7021 1277.45 23.6315C1277.46 25.3606 1278.01 26.0226 1279.41 26.0226C1280.81 26.0226 1281.36 25.3637 1281.36 23.6917C1281.36 22.7954 1281.51 21.9331 1281.7 21.7753C1282.13 21.4043 1283.92 21.4043 1284.36 21.7753C1284.55 21.9331 1284.7 23.6307 1284.7 25.5478C1284.7 29.1345 1284.89 29.4686 1286.98 29.4686C1287.49 29.4686 1288.07 29.3395 1288.26 29.1817C1288.44 29.0239 1288.59 27.3256 1288.59 25.4076C1288.59 21.7617 1288.98 21.1079 1290.99 21.3596C1291.78 21.4579 1291.91 22.1265 1292.05 27.0027C1292.22 32.8161 1292.41 33.2487 1294.59 32.8002C1295.46 32.6221 1295.56 32.0841 1295.7 27.1972C1295.8 23.5778 1296.05 21.711 1296.46 21.549C1297.3 21.2185 1298.97 21.2441 1299.39 21.594C1299.57 21.7518 1299.72 24.9689 1299.72 28.7432C1299.72 32.5174 1299.88 35.7345 1300.06 35.8923C1300.46 36.2319 1302.01 36.2689 1302.95 35.9616C1303.45 35.8 1303.62 33.982 1303.62 28.9031C1303.62 25.1406 1303.77 21.9331 1303.96 21.7753C1304.14 21.6175 1304.74 21.4884 1305.29 21.4884C1305.84 21.4884 1306.43 21.6175 1306.62 21.7753C1306.81 21.9331 1306.96 26.1704 1306.96 31.1916C1306.96 36.2128 1307.11 40.4501 1307.3 40.6079C1307.73 40.9799 1310.08 40.9799 1310.52 40.6079C1310.7 40.4501 1310.85 36.2128 1310.85 31.1916C1310.85 26.1704 1311.01 21.9331 1311.19 21.7753C1311.65 21.3901 1313.42 21.4101 1313.89 21.8058C1314.1 21.9803 1314.25 25.4985 1314.21 29.6239C1314.17 35.0608 1314.33 37.1942 1314.8 37.3774C1315.66 37.7173 1317.33 37.6979 1317.75 37.3433C1317.94 37.1855 1318.09 33.6557 1318.1 29.4991C1318.1 25.3427 1318.32 21.8317 1318.58 21.6973C1318.84 21.5628 1319.53 21.4822 1320.1 21.5183C1321.09 21.5804 1321.16 21.8965 1321.45 27.5666C1321.61 30.8572 1321.8 33.5699 1321.86 33.5948C1322.33 33.77 1324.71 33.5855 1324.98 33.3532C1325.17 33.1954 1325.32 30.5784 1325.32 27.5374C1325.32 22.0196 1325.55 21.307 1327.27 21.307C1328.89 21.307 1329.22 22.0238 1329.22 25.5351C1329.22 28.4484 1329.36 29.1008 1330.05 29.2873C1331.99 29.8105 1332.37 29.2666 1332.73 25.4471C1333 22.5659 1333.25 21.728 1333.9 21.5165C1334.58 21.2954 1334.88 21.2891 1335.59 21.4808C1336.27 21.6652 1336.45 22.1248 1336.45 23.6723C1336.45 25.8679 1336.68 26.204 1338.16 26.204C1339.85 26.204 1340.35 25.6107 1340.35 23.6082C1340.35 22.2099 1340.55 21.6593 1341.12 21.5044C1342.07 21.2485 1343.69 21.6903 1343.69 22.2046C1343.69 22.3847 1344.08 22.6396 1344.57 22.7707C1345.78 23.0982 1347.13 22.7937 1347.71 22.063C1348.02 21.6765 1348.51 21.4884 1349.21 21.4884C1350.65 21.4884 1350.92 21.8281 1350.92 23.6434C1350.92 25.2614 1351.37 25.6599 1353.2 25.6599C1354.55 25.6599 1354.82 25.2941 1354.82 23.4142C1354.82 22.3557 1355.06 21.6625 1355.49 21.5247C1356.43 21.2174 1357.98 21.2544 1358.38 21.594C1358.56 21.7518 1358.71 23.7822 1358.71 26.1059C1358.71 29.6404 1358.85 30.368 1359.55 30.5568C1360.21 30.7369 1360.55 30.7369 1361.22 30.5568C1361.92 30.3677 1362.05 29.6311 1362.05 26.0226C1362.05 22.3129 1362.17 21.681 1362.93 21.4757C1363.57 21.303 1364.07 21.2898 1364.74 21.4277C1365.52 21.588 1365.69 22.0146 1365.8 24.1377C1365.97 27.1391 1366.15 27.4736 1367.64 27.4736C1369.32 27.4736 1369.68 26.9144 1369.78 24.1215C1369.84 22.725 1370.13 21.5045 1370.43 21.4052C1371.28 21.1275 1372.86 21.539 1373.18 22.1232C1373.55 22.7821 1375 23.0944 1376.2 22.7707C1376.68 22.6396 1377.08 22.3856 1377.08 22.2064C1377.08 21.3798 1379.29 20.9274 1380.08 21.594C1380.26 21.7518 1380.42 23.6126 1380.42 25.7292C1380.42 28.4805 1380.61 29.6395 1381.08 29.7951C1382.03 30.1023 1383.57 30.0653 1383.97 29.7258C1384.16 29.568 1384.31 27.7384 1384.31 25.6599C1384.31 23.5814 1384.46 21.7518 1384.65 21.594C1384.84 21.4362 1385.41 21.307 1385.93 21.307C1387.88 21.307 1388.21 21.6872 1388.21 23.9583C1388.21 26.403 1388.41 26.7481 1389.88 26.7481C1391.33 26.7481 1391.55 26.4013 1391.55 24.0914C1391.55 21.9948 1392.03 21.307 1393.49 21.307C1395.19 21.307 1395.44 22.0222 1395.44 26.8954C1395.44 31.0177 1395.57 31.8174 1396.28 32.0078C1396.94 32.1879 1397.28 32.1879 1397.95 32.0078C1398.65 31.8172 1398.78 31.0128 1398.78 26.8513C1398.78 22.8411 1398.93 21.8548 1399.58 21.5684C1400.23 21.2867 1400.59 21.2564 1401.39 21.4171C1402.28 21.5951 1402.43 21.9848 1402.68 24.8437C1402.91 27.5933 1403.09 28.0977 1403.88 28.2598C1404.55 28.3976 1405.05 28.3844 1405.69 28.2117C1406.43 28.0121 1406.57 27.4932 1406.57 25.0177C1406.57 23.3922 1406.72 21.9331 1406.91 21.7753C1407.52 21.2615 1409.28 21.4387 1409.78 22.063C1410.68 23.1965 1413.3 23.1726 1414.01 22.0242C1414.42 21.3473 1415.92 21.124 1416.95 21.5844C1417.51 21.8345 1417.7 22.6722 1417.7 24.8562C1417.7 27.2445 1417.86 27.834 1418.54 28.0177C1419.2 28.1978 1419.54 28.1978 1420.21 28.0177C1420.89 27.8343 1421.04 27.2494 1421.04 24.9003C1421.04 22.0218 1421.43 21.307 1422.99 21.307C1424.35 21.307 1424.94 21.9536 1424.94 23.4566C1424.94 25.1263 1425.23 25.4785 1426.61 25.4785C1427.99 25.4785 1428.28 25.1265 1428.28 23.4125C1428.28 21.8234 1429.05 21.1567 1430.67 21.3589C1431.16 21.4199 1431.83 21.8004 1432.16 22.2046C1433.08 23.3103 1435.4 23.1877 1436.28 21.9872C1436.52 21.6629 1437.01 21.4884 1437.69 21.4884C1439.07 21.4884 1439.41 21.8303 1439.41 23.2383C1439.41 24.489 1440.06 25.1158 1441.35 25.1158C1442.65 25.1158 1443.3 24.489 1443.3 23.2383C1443.3 22.5913 1443.45 21.9331 1443.64 21.7753C1444.08 21.4043 1445.87 21.4043 1446.3 21.7753C1446.49 21.9331 1446.64 23.3547 1446.64 24.9344C1446.64 26.5141 1446.79 27.9357 1446.98 28.0935C1447.16 28.2513 1447.89 28.3804 1448.59 28.3804C1449.29 28.3804 1450.01 28.2513 1450.2 28.0935C1450.38 27.9357 1450.54 26.5022 1450.54 24.9076C1450.54 22.0218 1450.92 21.307 1452.48 21.307C1454.23 21.307 1454.43 22.0164 1454.43 28.1722C1454.43 31.5623 1454.58 34.465 1454.77 34.6228C1455.21 34.9938 1457 34.9938 1457.43 34.6228C1457.62 34.465 1457.77 31.5623 1457.77 28.1722C1457.77 22.0164 1457.97 21.307 1459.72 21.307C1461.49 21.307 1461.67 22.0098 1461.67 29.1717C1461.67 35.4416 1461.78 36.3702 1462.54 36.6198C1463.02 36.7765 1463.51 36.9047 1463.61 36.9047C1463.72 36.9047 1464.21 36.7765 1464.69 36.6198C1465.45 36.3702 1465.56 35.4442 1465.56 29.1984C1465.56 25.2736 1465.71 21.9331 1465.9 21.7753C1466.18 21.5399 1468.02 21.3662 1468.46 21.5338C1468.53 21.5586 1468.72 24.1819 1468.88 27.3633C1469.16 32.6881 1469.26 33.1635 1470.19 33.3485C1470.99 33.5093 1471.35 33.4792 1471.99 33.1974C1472.65 32.9094 1472.8 31.865 1472.8 27.4538C1472.8 24.4884 1472.95 21.9331 1473.13 21.7753C1473.32 21.6175 1473.92 21.4884 1474.47 21.4884C1475.01 21.4884 1475.61 21.6175 1475.8 21.7753C1475.98 21.9331 1476.14 23.6371 1476.14 25.5618C1476.14 28.5337 1476.27 29.0974 1477.02 29.3C1477.66 29.4726 1478.15 29.4859 1478.83 29.348C1479.63 29.1839 1479.8 28.6381 1480.06 25.3684C1480.23 23.2843 1480.42 21.5586 1480.48 21.5338C1480.54 21.5089 1481.06 21.4884 1481.64 21.4884C1483.12 21.4884 1483.37 21.8216 1483.37 23.8248C1483.37 25.6289 1483.78 26.0226 1485.65 26.0226C1487.01 26.0226 1487.27 25.657 1487.27 23.7287C1487.27 21.9719 1487.8 21.307 1489.21 21.307C1490.81 21.307 1491.16 22.0233 1491.16 25.2631C1491.16 27.9221 1491.31 28.5583 1491.99 28.7412C1492.44 28.8643 1493.2 28.9178 1493.66 28.8598C1494.37 28.7711 1494.5 28.2252 1494.5 25.3817C1494.5 23.4035 1494.74 21.8637 1495.08 21.6578C1495.73 21.2586 1497 21.1979 1497.67 21.5338C1497.92 21.6585 1498.24 24.3225 1498.4 27.454C1498.65 32.6954 1498.75 33.1635 1499.68 33.3485C1500.49 33.5093 1500.85 33.4792 1501.49 33.1974C1502.15 32.9094 1502.29 31.865 1502.29 27.4538C1502.29 24.4884 1502.44 21.9331 1502.63 21.7753C1503.14 21.3399 1505.01 21.4231 1505.35 21.8965C1505.51 22.121 1505.7 23.5201 1505.77 25.0057C1505.89 27.2982 1506.05 27.7355 1506.84 27.8971C1507.51 28.0349 1508.01 28.0219 1508.64 27.849C1509.38 27.6504 1509.53 27.1462 1509.53 24.8363C1509.53 23.3106 1509.68 21.9331 1509.86 21.7753C1510.47 21.2615 1512.24 21.4387 1512.73 22.063C1513.31 22.7937 1514.67 23.0982 1515.88 22.7707C1516.36 22.6396 1516.76 22.3524 1516.76 22.1326C1516.76 21.9128 1517.39 21.5414 1518.15 21.307C1519.83 20.7921 1519.92 20.3851 1518.43 19.9461C1517.81 19.7652 1517.05 19.3036 1516.74 18.9204C1515.85 17.8512 1513.52 17.9976 1512.65 19.176C1512.19 19.8044 1510.24 19.8666 1509.81 19.2666C1509.65 19.0421 1509.46 17.643 1509.38 16.1574C1509.27 13.8649 1509.11 13.4277 1508.32 13.2661C1507.65 13.1282 1507.15 13.1413 1506.51 13.3141C1505.78 13.5127 1505.63 14.0169 1505.63 16.3268C1505.63 17.8525 1505.48 19.23 1505.29 19.3878C1504.86 19.7589 1503.07 19.7589 1502.63 19.3878C1502.44 19.23 1502.29 16.6747 1502.29 13.7093C1502.29 9.29808 1502.15 8.25376 1501.49 7.96575C1500.85 7.6839 1500.49 7.65379 1499.68 7.81467C1498.75 7.99966 1498.65 8.46778 1498.4 13.7091C1498.24 16.8407 1497.92 19.5048 1497.67 19.6294C1497 19.9653 1495.73 19.9045 1495.08 19.5053C1494.74 19.3009 1494.5 17.7966 1494.5 15.9001C1494.5 13.2287 1494.35 12.6053 1493.67 12.42C1493 12.2399 1492.66 12.2399 1492 12.42C1491.31 12.6053 1491.16 13.2287 1491.16 15.9001C1491.16 19.1399 1490.81 19.8561 1489.21 19.8561C1487.8 19.8561 1487.27 19.1912 1487.27 17.4345C1487.27 15.5061 1487.01 15.1405 1485.65 15.1405C1483.78 15.1405 1483.37 15.5343 1483.37 17.3383C1483.37 18.3078 1483.22 19.23 1483.03 19.3878C1482.6 19.7589 1480.81 19.7589 1480.37 19.3878C1480.18 19.23 1480.03 17.526 1480.03 15.6014C1480.03 12.6295 1479.9 12.0658 1479.15 11.8632C1478.51 11.6905 1478.01 11.6773 1477.34 11.8151C1476.54 11.9793 1476.37 12.525 1476.11 15.7947C1475.94 17.8788 1475.75 19.6045 1475.69 19.6294C1475.28 19.7988 1473.41 19.6225 1473.13 19.3878C1472.95 19.23 1472.8 16.6747 1472.8 13.7093C1472.8 9.29808 1472.65 8.25376 1471.99 7.96575C1471.35 7.6839 1470.99 7.65379 1470.19 7.81467C1469.26 7.99966 1469.16 8.47503 1468.88 13.7998C1468.72 16.9812 1468.53 19.6045 1468.46 19.6294C1468.02 19.797 1466.18 19.6232 1465.9 19.3878C1465.71 19.23 1465.56 15.9193 1465.56 12.0304C1465.56 4.96192 1465.39 4.25839 1463.61 4.25839C1461.84 4.25839 1461.67 4.96174 1461.67 12.0572C1461.67 19.1527 1461.49 19.8561 1459.72 19.8561C1457.97 19.8561 1457.77 19.1468 1457.77 12.9909C1457.77 9.60079 1457.62 6.69816 1457.43 6.54037C1457.25 6.38258 1456.65 6.25345 1456.1 6.25345C1455.56 6.25345 1454.96 6.38258 1454.77 6.54037C1454.58 6.69816 1454.43 9.60079 1454.43 12.9909C1454.43 19.1468 1454.23 19.8561 1452.48 19.8561C1450.91 19.8561 1450.54 19.1408 1450.54 16.1629C1450.54 13.6852 1450.39 13.1224 1449.66 12.8863C1448.59 12.5362 1448.59 12.5362 1447.52 12.8863C1446.79 13.1222 1446.64 13.6827 1446.64 16.1362C1446.64 17.7667 1446.49 19.23 1446.3 19.3878C1445.79 19.8236 1443.93 19.7402 1443.59 19.2666C1443.44 19.0421 1443.24 18.2958 1443.17 17.6078C1443.06 16.6731 1442.79 16.3094 1442.1 16.1674C1440.29 15.7967 1439.41 16.3227 1439.41 17.7778C1439.41 19.3339 1439.1 19.6747 1437.69 19.6747C1437.01 19.6747 1436.52 19.5002 1436.28 19.176C1435.4 17.9755 1433.08 17.8529 1432.16 18.9585C1431.83 19.3628 1431.16 19.7433 1430.67 19.8042C1429 20.0133 1428.28 19.3419 1428.28 17.5765C1428.28 16.3169 1428.07 15.8553 1427.44 15.6846C1426.78 15.5045 1426.44 15.5045 1425.77 15.6846C1425.14 15.8546 1424.94 16.312 1424.94 17.5324C1424.94 19.1977 1424.39 19.8561 1422.99 19.8561C1421.43 19.8561 1421.04 19.1413 1421.04 16.2628C1421.04 13.9137 1420.89 13.3288 1420.21 13.1455C1419.54 12.9654 1419.2 12.9654 1418.54 13.1455C1417.86 13.3292 1417.7 13.9186 1417.7 16.3069C1417.7 18.4909 1417.51 19.3287 1416.95 19.5788C1415.84 20.071 1414.52 19.8084 1413.81 18.9585C1412.9 17.8529 1410.58 17.9755 1409.7 19.176C1409.45 19.512 1408.97 19.6747 1408.23 19.6747C1407.62 19.6747 1407.08 19.6542 1407.02 19.6294C1406.96 19.6045 1406.78 18.1237 1406.61 16.3386C1406.34 13.5784 1406.16 13.0649 1405.37 12.9031C1404.7 12.7655 1404.2 12.7787 1403.56 12.9514C1402.82 13.1513 1402.68 13.6723 1402.68 16.1721C1402.68 19.141 1402.3 19.8561 1400.73 19.8561C1399.03 19.8561 1398.78 19.141 1398.78 14.2678C1398.78 10.1454 1398.65 9.34578 1397.95 9.15534C1397.28 8.97525 1396.94 8.97525 1396.28 9.15534C1395.57 9.34578 1395.44 10.1454 1395.44 14.2678C1395.44 19.141 1395.19 19.8561 1393.49 19.8561C1392.03 19.8561 1391.55 19.1683 1391.55 17.0717C1391.55 14.7618 1391.33 14.415 1389.88 14.415C1388.43 14.415 1388.21 14.7618 1388.21 17.0717C1388.21 19.1683 1387.73 19.8561 1386.26 19.8561C1384.63 19.8561 1384.31 19.139 1384.31 15.4394C1384.31 13.3959 1384.16 11.5951 1383.97 11.4373C1383.79 11.2795 1383.06 11.1504 1382.36 11.1504C1381.67 11.1504 1380.94 11.2795 1380.75 11.4373C1380.57 11.5951 1380.42 13.384 1380.42 15.4126C1380.42 17.4412 1380.26 19.23 1380.08 19.3878C1379.51 19.8695 1377.7 19.7317 1377.29 19.176C1376.41 17.9809 1374.09 17.8525 1373.18 18.9492C1372.74 19.4866 1372.3 19.6747 1371.48 19.6747C1369.64 19.6747 1369.17 18.8941 1369.59 16.5746C1370 14.3274 1369.57 13.6896 1367.66 13.6896C1366.13 13.6896 1365.95 14.0178 1365.95 16.709C1365.95 19.1468 1365.51 19.8561 1364 19.8561C1362.34 19.8561 1362.05 19.1391 1362.05 14.9932C1362.05 11.5157 1361.92 10.7949 1361.22 10.6063C1360.55 10.4262 1360.21 10.4262 1359.55 10.6063C1358.85 10.7949 1358.71 11.5157 1358.71 14.9932C1358.71 19.1391 1358.43 19.8561 1356.77 19.8561C1355.38 19.8561 1354.82 19.2015 1354.82 17.589C1354.82 15.9764 1354.26 15.3219 1352.87 15.3219C1351.49 15.3219 1350.92 15.9746 1350.92 17.5621C1350.92 19.3345 1350.65 19.6747 1349.21 19.6747C1348.51 19.6747 1348.02 19.4866 1347.71 19.1001C1346.82 17.9688 1344.19 17.9902 1343.49 19.1346C1343.26 19.5086 1342.83 19.6747 1342.09 19.6747C1340.59 19.6747 1340.35 19.3457 1340.35 17.3169C1340.35 15.2381 1340.12 14.9591 1338.4 14.9591C1336.68 14.9591 1336.45 15.235 1336.44 17.3771C1336.44 19.3522 1336.09 19.7478 1334.44 19.6453C1333.52 19.5884 1333.35 19.3457 1333.04 17.6779C1332.85 16.6314 1332.66 14.9488 1332.63 13.9384C1332.57 12.5475 1332.35 12.0469 1331.72 11.8759C1331.06 11.6958 1330.72 11.6958 1330.05 11.8759C1329.36 12.0623 1329.22 12.7147 1329.22 15.628C1329.22 19.1393 1328.89 19.8561 1327.27 19.8561C1325.54 19.8561 1325.32 19.1437 1325.32 13.5989C1325.32 8.05407 1325.1 7.34166 1323.37 7.34166C1321.65 7.34166 1321.43 8.05425 1321.43 13.572C1321.43 16.613 1321.28 19.23 1321.09 19.3878C1320.65 19.7589 1318.86 19.7589 1318.43 19.3878C1318.24 19.23 1318.09 15.7272 1318.09 11.6038C1318.09 7.4804 1317.94 3.97763 1317.75 3.81984C1317.56 3.66205 1316.84 3.53292 1316.14 3.53292C1315.44 3.53292 1314.72 3.66205 1314.53 3.81984C1314.34 3.97763 1314.19 7.4804 1314.19 11.6038C1314.19 15.7272 1314.04 19.23 1313.85 19.3878C1313.67 19.5456 1313.07 19.6747 1312.52 19.6747C1311.98 19.6747 1311.38 19.5456 1311.19 19.3878C1311.01 19.23 1310.85 14.951 1310.85 9.879C1310.85 1.73719 1310.75 0.623586 1309.98 0.371847C1309.5 0.215144 1309.01 0.0869141 1308.91 0.0869141C1308.8 0.0869141 1308.31 0.215144 1307.83 0.371847Z" fill="white"/>
</svg>
