<svg width="16" height="16" viewBox="0 0 16 16" fill="none" xmlns="http://www.w3.org/2000/svg">
<path d="M7.08283 8.17168C7.33427 7.97866 7.39174 7.72844 7.3199 7.41388C7.17622 6.81335 7.06846 6.21282 6.93915 5.61229C6.89605 5.40497 6.93915 5.26198 7.10438 5.119C7.57852 4.70435 8.04547 4.28255 8.50524 3.86075C8.72794 3.66058 8.81415 3.41751 8.72076 3.12439C8.62737 2.84557 8.4334 2.70259 8.14605 2.67399C7.53542 2.60965 6.9176 2.53101 6.30697 2.46667C6.0699 2.44522 5.89749 2.37373 5.79692 2.12351C5.56703 1.55873 5.29404 1.00824 5.04979 0.443463C4.92766 0.164646 4.71933 0.000214935 4.42479 0.000214935C4.11588 -0.00693421 3.89318 0.164645 3.77106 0.45776C3.59146 0.87241 3.36157 1.25846 3.22508 1.68741C3.0383 2.24505 2.74376 2.57391 2.11158 2.50956C1.95353 2.49527 1.78112 2.52386 1.61589 2.55961C1.04118 2.68829 0.344339 2.49527 -0.000488281 3.19588C-0.000488281 3.28882 -0.000488281 3.38891 -0.000488281 3.48185C0.164741 3.64628 0.2725 3.84645 0.459281 4.00373C0.904683 4.38264 1.32135 4.79014 1.75957 5.16904C1.88888 5.28343 1.9248 5.38352 1.88169 5.56225C1.73801 6.18422 1.62307 6.81335 1.49376 7.43532C1.42911 7.74274 1.48658 8.00011 1.75238 8.18598C2.01819 8.37186 2.27681 8.33611 2.54979 8.17883C3.0814 7.87142 3.62738 7.57831 4.1518 7.26374C4.3314 7.15651 4.47508 7.14221 4.66186 7.25659C5.20065 7.57831 5.75381 7.87857 6.2926 8.19313C6.55841 8.34326 6.82421 8.36471 7.08283 8.17168Z" fill="#F5B060"/>
<path d="M10.616 11.7967C10.3287 11.7681 10.0485 11.718 9.76114 11.718C9.25827 11.718 8.92781 11.5322 8.78413 11.0246C8.70511 10.7457 8.54706 10.4884 8.43212 10.2167C8.33873 9.98794 8.18069 9.84496 7.92207 9.84496C7.67781 9.84496 7.53414 9.99509 7.44074 10.2024C7.26115 10.6028 7.08155 10.996 6.90914 11.3963C6.8373 11.5607 6.74391 11.6465 6.54276 11.6537C6.09017 11.6751 5.64477 11.7395 5.19219 11.7967C4.97667 11.8253 4.81144 11.9325 4.73242 12.1398C4.65339 12.3543 4.73242 12.533 4.89046 12.6832C5.17063 12.9405 5.43644 13.2122 5.73816 13.4481C6.01115 13.6626 6.11891 13.8842 5.99678 14.2345C5.89621 14.5348 5.87466 14.8637 5.79563 15.1711C5.70224 15.5071 5.75253 15.793 6.05425 16.0004C6.17638 16.0004 6.29132 16.0004 6.41345 16.0004C6.85885 15.8717 7.23241 15.5929 7.63471 15.3712C7.84304 15.2569 8.01546 15.2569 8.22379 15.3784C8.63327 15.6072 9.00683 15.9003 9.48097 16.0004C9.57436 16.0004 9.67494 16.0004 9.76833 16.0004C10.0629 15.8145 10.1491 15.5571 10.0629 15.2211C9.96229 14.8208 9.89764 14.4133 9.79706 14.0129C9.76114 13.8556 9.78988 13.7484 9.912 13.6411C10.2568 13.348 10.5801 13.0335 10.9177 12.7332C11.0973 12.5759 11.1836 12.3901 11.1117 12.1684C11.0614 11.9111 10.8603 11.8181 10.616 11.7967Z" fill="#F5B060"/>
<path d="M15.624 5.67703C15.3869 5.64844 15.1498 5.59839 14.9199 5.60554C14.4171 5.61984 14.0722 5.44111 13.9357 4.91922C13.8783 4.70475 13.7562 4.51173 13.6699 4.3044C13.5909 4.11852 13.4688 3.97554 13.2533 3.96839C13.0162 3.96124 12.8941 4.11852 12.8007 4.31155C12.6498 4.64756 12.4918 4.97642 12.3553 5.31243C12.2906 5.45541 12.2188 5.5269 12.0464 5.5412C11.6656 5.5698 11.2921 5.63414 10.9113 5.66988C10.7174 5.69133 10.5665 5.75568 10.4947 5.94155C10.4156 6.14173 10.4803 6.30616 10.6383 6.44914C10.9041 6.68507 11.1556 6.94243 11.4286 7.16406C11.6082 7.31419 11.6585 7.44287 11.5866 7.67879C11.486 8.00051 11.4501 8.35081 11.3711 8.67968C11.328 8.87985 11.3424 9.05858 11.522 9.18726C11.6944 9.3088 11.874 9.28735 12.0536 9.18012C12.3768 8.98709 12.7145 8.81551 13.0378 8.61533C13.1743 8.53669 13.282 8.52954 13.4185 8.61533C13.749 8.82266 14.0938 9.00139 14.4386 9.19441C14.6039 9.28735 14.7834 9.30165 14.9343 9.18012C15.0852 9.05858 15.1355 8.9013 15.0852 8.70827C14.999 8.36511 14.9487 8.0148 14.8625 7.67165C14.8122 7.47147 14.8409 7.31419 15.0133 7.17835C15.2863 6.95673 15.5449 6.70651 15.8107 6.46344C15.9185 6.36335 16.0119 6.25611 15.9975 6.09883C15.9975 5.85576 15.8754 5.71278 15.624 5.67703Z" fill="#F5B060"/>
</svg>
