<svg width="24" height="23" viewBox="0 0 24 23" fill="none" xmlns="http://www.w3.org/2000/svg">
<path d="M17 1H7C4.23858 1 2 3.23858 2 6V16C2 18.7614 4.23858 21 7 21H17C19.7614 21 22 18.7614 22 16V6C22 3.23858 19.7614 1 17 1Z" stroke="white" stroke-width="1.5" stroke-linecap="round" stroke-linejoin="round"/>
<path d="M8.62075 14.84C8.05675 14.84 7.56175 14.744 7.13575 14.552C6.70975 14.354 6.35575 14.093 6.07375 13.769C5.79175 13.439 5.57875 13.07 5.43475 12.662C5.29075 12.254 5.21875 11.837 5.21875 11.411C5.21875 10.985 5.29075 10.571 5.43475 10.169C5.57875 9.761 5.79175 9.395 6.07375 9.071C6.35575 8.747 6.70975 8.489 7.13575 8.297C7.56175 8.099 8.05675 8 8.62075 8C9.10075 8 9.51175 8.06 9.85375 8.18C10.1958 8.3 10.4808 8.456 10.7088 8.648C10.9368 8.834 11.1168 9.035 11.2488 9.251C11.3868 9.461 11.4888 9.662 11.5548 9.854C11.6268 10.04 11.6718 10.193 11.6898 10.313C11.7138 10.433 11.7257 10.493 11.7257 10.493H10.0158C10.0158 10.493 10.0008 10.445 9.97075 10.349C9.94075 10.253 9.88075 10.142 9.79075 10.016C9.70075 9.884 9.56275 9.77 9.37675 9.674C9.19075 9.578 8.94475 9.53 8.63875 9.53C8.27875 9.53 7.97575 9.623 7.72975 9.809C7.48975 9.989 7.30975 10.223 7.18975 10.511C7.06975 10.799 7.00975 11.099 7.00975 11.411C7.00975 11.723 7.06975 12.023 7.18975 12.311C7.30975 12.599 7.48975 12.836 7.72975 13.022C7.97575 13.208 8.27875 13.301 8.63875 13.301C8.94475 13.301 9.19075 13.253 9.37675 13.157C9.56275 13.061 9.70075 12.95 9.79075 12.824C9.88075 12.698 9.94075 12.587 9.97075 12.491C10.0008 12.395 10.0158 12.347 10.0158 12.347H11.7257C11.7257 12.347 11.7138 12.407 11.6898 12.527C11.6718 12.647 11.6268 12.803 11.5548 12.995C11.4888 13.181 11.3868 13.382 11.2488 13.598C11.1168 13.808 10.9368 14.009 10.7088 14.201C10.4808 14.387 10.1958 14.54 9.85375 14.66C9.51175 14.78 9.10075 14.84 8.62075 14.84Z" fill="white"/>
<path d="M15.6696 14.84C15.1056 14.84 14.6106 14.744 14.1846 14.552C13.7586 14.354 13.4046 14.093 13.1226 13.769C12.8406 13.439 12.6276 13.07 12.4836 12.662C12.3396 12.254 12.2676 11.837 12.2676 11.411C12.2676 10.985 12.3396 10.571 12.4836 10.169C12.6276 9.761 12.8406 9.395 13.1226 9.071C13.4046 8.747 13.7586 8.489 14.1846 8.297C14.6106 8.099 15.1056 8 15.6696 8C16.1496 8 16.5606 8.06 16.9026 8.18C17.2446 8.3 17.5296 8.456 17.7576 8.648C17.9856 8.834 18.1656 9.035 18.2976 9.251C18.4356 9.461 18.5376 9.662 18.6036 9.854C18.6756 10.04 18.7206 10.193 18.7386 10.313C18.7626 10.433 18.7746 10.493 18.7746 10.493H17.0646C17.0646 10.493 17.0496 10.445 17.0196 10.349C16.9896 10.253 16.9296 10.142 16.8396 10.016C16.7496 9.884 16.6116 9.77 16.4256 9.674C16.2396 9.578 15.9936 9.53 15.6876 9.53C15.3276 9.53 15.0246 9.623 14.7786 9.809C14.5386 9.989 14.3586 10.223 14.2386 10.511C14.1186 10.799 14.0586 11.099 14.0586 11.411C14.0586 11.723 14.1186 12.023 14.2386 12.311C14.3586 12.599 14.5386 12.836 14.7786 13.022C15.0246 13.208 15.3276 13.301 15.6876 13.301C15.9936 13.301 16.2396 13.253 16.4256 13.157C16.6116 13.061 16.7496 12.95 16.8396 12.824C16.9296 12.698 16.9896 12.587 17.0196 12.491C17.0496 12.395 17.0646 12.347 17.0646 12.347H18.7746C18.7746 12.347 18.7626 12.407 18.7386 12.527C18.7206 12.647 18.6756 12.803 18.6036 12.995C18.5376 13.181 18.4356 13.382 18.2976 13.598C18.1656 13.808 17.9856 14.009 17.7576 14.201C17.5296 14.387 17.2446 14.54 16.9026 14.66C16.5606 14.78 16.1496 14.84 15.6696 14.84Z" fill="white"/>
</svg>
