<svg width="16" height="16" viewBox="0 0 16 16" fill="none" xmlns="http://www.w3.org/2000/svg">
<path d="M10.36 6.34025C10.516 6.34011 10.672 6.33993 10.8281 6.33975C11.8185 6.33862 12.8114 6.33749 13.8036 6.34655C14.2874 6.35041 14.7325 6.51798 15.0344 6.81997C15.3452 7.13076 15.4901 7.57689 15.3441 8.04388L15.3436 8.0455C14.9359 9.3309 14.5191 10.6156 14.0561 11.896M10.36 6.34025L14.9384 7.91703C14.5312 9.20119 14.1164 10.4793 13.6564 11.7514C13.302 12.7341 12.1858 13.3973 10.9038 13.4154M10.36 6.34025C10.6696 5.91537 10.9154 5.47525 11.1025 5.00564L11.1026 5.00565L11.1041 5.00157C11.4056 4.22181 11.363 3.43299 10.8841 2.68902L10.8841 2.68901L10.882 2.68576C10.635 2.3096 10.2236 2.10062 9.71437 2.15259C9.47 2.17753 9.24974 2.25829 9.07067 2.40405C8.8916 2.54981 8.78032 2.73893 8.71841 2.93689C8.68128 3.05563 8.63962 3.18286 8.59684 3.3135C8.52637 3.52871 8.45287 3.75317 8.39162 3.96411L8.39131 3.96518C8.26928 4.38955 8.01281 4.75626 7.58458 5.08289M10.36 6.34025L7.58458 5.08289M14.0561 11.896L13.6565 11.7515L14.0562 11.8956C14.0562 11.8957 14.0561 11.8958 14.0561 11.896ZM14.0561 11.896C13.6244 13.0923 12.3123 13.8204 10.9103 13.8404M10.9103 13.8404C10.9104 13.8404 10.9106 13.8404 10.9107 13.8404L10.9038 13.4154M10.9103 13.8404C10.9101 13.8404 10.91 13.8404 10.9098 13.8404L10.9038 13.4154M10.9103 13.8404C9.63306 13.8611 8.36124 13.8552 7.09064 13.8493C6.87796 13.8483 6.6653 13.8473 6.45266 13.8464L6.44873 13.8464L6.44873 13.8464C6.16424 13.8426 5.87928 13.7744 5.656 13.5986C5.4192 13.4121 5.29813 13.1403 5.29787 12.8376M10.9038 13.4154C9.63125 13.4361 8.36423 13.4302 7.09326 13.4243C6.88043 13.4233 6.66748 13.4223 6.45439 13.4214L5.72287 12.8366M5.29787 12.8376C5.29787 12.8373 5.29787 12.837 5.29787 12.8366H5.72287M5.29787 12.8376C5.29787 12.8379 5.29788 12.8381 5.29788 12.8384L5.72287 12.8366M5.29787 12.8376C5.29033 11.0103 5.29033 9.18304 5.29033 7.35686V7.35634C5.29033 6.95708 5.51939 6.69637 5.74946 6.51973M5.72287 12.8366C5.71533 11.0099 5.71533 9.1831 5.71533 7.35634C5.71533 7.14533 5.82845 6.9946 6.00945 6.85594M5.74946 6.51973C5.74901 6.52008 5.74857 6.52043 5.74812 6.52078L6.00945 6.85594M5.74946 6.51973C5.97314 6.34532 6.19879 6.16689 6.42588 5.98733C6.80882 5.68453 7.19587 5.37848 7.58458 5.08289M5.74946 6.51973C5.74996 6.51934 5.75047 6.51896 5.75098 6.51857L6.00945 6.85594M6.00945 6.85594L7.58458 5.08289M7.58458 5.08289C7.58448 5.08296 7.58439 5.08303 7.5843 5.0831L7.842 5.42105L7.58475 5.08276C7.58469 5.0828 7.58463 5.08284 7.58458 5.08289Z" stroke="white" stroke-width="0.85"/>
<path d="M3.9321 6.34052V6.3405H3.92785H3.92365H3.91945H3.91526H3.91106H3.90686H3.90266H3.89846H3.89427H3.89007H3.88587H3.88167H3.87747H3.87328H3.86908H3.86488H3.86068H3.85649H3.85229H3.84809H3.84389H3.83969H3.8355H3.8313H3.8271H3.8229H3.8187H3.81451H3.81031H3.80611H3.80191H3.79772H3.79352H3.78932H3.78512H3.78092H3.77673H3.77253H3.76833H3.76413H3.75993H3.75574H3.75154H3.74734H3.74314H3.73895H3.73475H3.73055H3.72635H3.72215H3.71796H3.71376H3.70956H3.70536H3.70116H3.69697H3.69277H3.68857H3.68437H3.68018H3.67598H3.67178H3.66758H3.66338H3.65919H3.65499H3.65079H3.64659H3.6424H3.6382H3.634H3.6298H3.6256H3.62141H3.61721H3.61301H3.60881H3.60461H3.60042H3.59622H3.59202H3.58782H3.58363H3.57943H3.57523H3.57103H3.56683H3.56264H3.55844H3.55424H3.55004H3.54584H3.54165H3.53745H3.53325H3.52905H3.52486H3.52066H3.51646H3.51226H3.50806H3.50387H3.49967H3.49547H3.49127H3.48708H3.48288H3.47868H3.47448H3.47028H3.46609H3.46189H3.45769H3.45349H3.44929H3.4451H3.4409H3.4367H3.4325H3.42831H3.42411H3.41991H3.41571H3.41151H3.40732H3.40312H3.39892H3.39472H3.39052H3.38633H3.38213H3.37793H3.37373H3.36954H3.36534H3.36114H3.35694H3.35274H3.34855H3.34435H3.34015H3.33595H3.33175H3.32756H3.32336H3.31916H3.31496H3.31077H3.30657H3.30237H3.29817H3.29397H3.28978H3.28558H3.28138H3.27718H3.27298H3.26879H3.26459H3.26039H3.25619H3.252H3.2478H3.2436H3.2394H3.2352H3.23101H3.22681H3.22261H3.21841H3.21422H3.21002H3.20582H3.20162H3.19742H3.19323H3.18903H3.18483H3.18063H3.17643H3.17224H3.16804H3.16384H3.15964H3.15545H3.15125H3.14705H3.14285H3.13865H3.13446H3.13026H3.12606H3.12186H3.11766H3.11347H3.10927H3.10507H3.10087H3.09668H3.09248H3.08828H3.08408H3.07988H3.07569H3.07149H3.06729H3.06309H3.0589H3.0547H3.0505H3.0463H3.0421H3.03791H3.03371H3.02951H3.02531H3.02111H3.01692H3.01272H3.00852H3.00432H3.00013H2.99593H2.99173H2.98753H2.98333H2.97914H2.97494H2.97074H2.96654H2.96234H2.95815H2.95395H2.94975H2.94555H2.94136H2.93716H2.93296H2.92876H2.92456H2.92037H2.91617H2.91197H2.90777H2.90357H2.89938H2.89518H2.89098H2.88678H2.88259H2.87839H2.87419H2.86999H2.86579H2.8616H2.8574H2.8532H2.849H2.84481H2.84061H2.83641H2.83221H2.82801H2.82382H2.81962H2.81542H2.81122H2.80702H2.80283H2.79863H2.79443H2.79023H2.78604H2.78184H2.77764H2.77344H2.76924H2.76505H2.76085H2.75665H2.75245H2.74825H2.74406H2.73986H2.73566H2.73146H2.72727H2.72307H2.71887H2.71467H2.71047H2.70628H2.70208H2.69788H2.69368H2.68948H2.68529H2.68109H2.67689H2.67269H2.6685H2.6643H2.6601H2.6559H2.6517H2.64751H2.64331H2.63911H2.63491H2.63072H2.62652H2.62232H2.61812H2.61392H2.60973H2.60553H2.60133H2.59713H2.59293H2.58874H2.58454H2.58034H2.57614H2.57195H2.56775H2.56355H2.55935H2.55515H2.55096H2.54676H2.54256H2.53836H2.53416H2.52997H2.52577H2.52157H2.51737H2.51318H2.50898H2.50478H2.50058H2.49638H2.49219H2.48799H2.48379H2.47959H2.47539H2.4712H2.467H2.4628H2.4586H2.45441H2.45021H2.44601H2.44181H2.43761H2.43342H2.42922H2.42502H2.42082H2.41663H2.41243H2.40823H2.40403H2.39983H2.39564H2.39144H2.38724H2.38304H2.37884H2.37465H2.37045H2.36625H2.36205H2.35786H2.35366H2.34946H2.34526H2.34106H2.33687H2.33267H2.32847H2.32427H2.32007H2.31588H2.31168H2.30748H2.30328H2.29909H2.29489H2.29069H2.28649H2.28229H2.2781H2.2739H2.2697H2.2655H2.2613H2.25711H2.25291H2.24871H2.24451H2.24032H2.23612H2.23192H2.22772H2.22352H2.21933H2.21513H2.21093H2.20673H2.20254H2.19834H2.19414H2.18994H2.18574H2.18155H2.17735H2.17315H2.16895H2.16475H2.16056H2.15636H2.15216H2.14796H2.14377H2.13957H2.13537H2.13117H2.12697H2.12278H2.11858H2.11438H2.11018H2.10598H2.10179H2.09759H2.09339H2.08919H2.085H2.0808H2.0766H2.0724H2.0682H2.06401H2.05981H2.05561H2.05141H2.04721H2.04302H2.03882H2.03462H2.03042H2.02623H2.02203H2.01783H2.01363H2.00943H2.00524H2.00104H1.99684H1.99264H1.98845H1.98425H1.98005H1.97585H1.97165H1.96746H1.96326H1.95906H1.95486H1.95066H1.94647H1.94227H1.93807H1.93387H1.92968H1.92548H1.92128H1.91708H1.91288H1.90869H1.90449H1.90029H1.89609H1.89189H1.8877H1.8835H1.8793H1.8751H1.87091H1.86671H1.86251H1.85831H1.85411H1.84992H1.84572H1.84152H1.83732H1.83312H1.82893H1.82473H1.82053H1.81633H1.81214H1.80794H1.80374H1.79954H1.79534H1.79115H1.78695H1.78275H1.77855C1.48131 6.3405 1.15596 6.37458 0.914794 6.57515C0.648803 6.79637 0.599414 7.11659 0.599414 7.38648V7.39701V7.40754V7.41806V7.42859V7.43912V7.44965V7.46017V7.4707V7.48123V7.49175V7.50228V7.51281V7.52333V7.53386V7.54439V7.55492V7.56544V7.57597V7.5865V7.59702V7.60755V7.61808V7.62861V7.63913V7.64966V7.66019V7.67071V7.68124V7.69177V7.7023V7.71282V7.72335V7.73388V7.7444V7.75493V7.76546V7.77598V7.78651V7.79704V7.80757V7.81809V7.82862V7.83915V7.84967V7.8602V7.87073V7.88126V7.89178V7.90231V7.91284V7.92336V7.93389V7.94442V7.95494V7.96547V7.976V7.98653V7.99705V8.00758V8.01811V8.02863V8.03916V8.04969V8.06022V8.07074V8.08127V8.0918V8.10232V8.11285V8.12338V8.13391V8.14443V8.15496V8.16549V8.17601V8.18654V8.19707V8.20759V8.21812V8.22865V8.23918V8.2497V8.26023V8.27076V8.28128V8.29181V8.30234V8.31287V8.32339V8.33392V8.34445V8.35497V8.3655V8.37603V8.38655V8.39708V8.40761V8.41814V8.42866V8.43919V8.44972V8.46024V8.47077V8.4813V8.49183V8.50235V8.51288V8.52341V8.53393V8.54446V8.55499V8.56552V8.57604V8.58657V8.5971V8.60762V8.61815V8.62868V8.6392V8.64973V8.66026V8.67079V8.68131V8.69184V8.70237V8.71289V8.72342V8.73395V8.74448V8.755V8.76553V8.77606V8.78658V8.79711V8.80764V8.81816V8.82869V8.83922V8.84975V8.86027V8.8708V8.88133V8.89185V8.90238V8.91291V8.92344V8.93396V8.94449V8.95502V8.96554V8.97607V8.9866V8.99713V9.00765V9.01818V9.02871V9.03923V9.04976V9.06029V9.07081V9.08134V9.09187V9.1024V9.11292V9.12345V9.13398V9.1445V9.15503V9.16556V9.17609V9.18661V9.19714V9.20767V9.21819V9.22872V9.23925V9.24977V9.2603V9.27083V9.28136V9.29188V9.30241V9.31294V9.32346V9.33399V9.34452V9.35505V9.36557V9.3761V9.38663V9.39715V9.40768V9.41821V9.42874V9.43926V9.44979V9.46032V9.47084V9.48137V9.4919V9.50242V9.51295V9.52348V9.53401V9.54453V9.55506V9.56559V9.57611V9.58664V9.59717V9.6077V9.61822V9.62875V9.63928V9.6498V9.66033V9.67086V9.68139V9.69191V9.70244V9.71297V9.72349V9.73402V9.74455V9.75507V9.7656V9.77613V9.78666V9.79718V9.80771V9.81824V9.82876V9.83929V9.84982V9.86035V9.87087V9.8814V9.89193V9.90245V9.91298V9.92351V9.93403V9.94456V9.95509V9.96562V9.97614V9.98667V9.9972V10.0077V10.0183V10.0288V10.0393V10.0498V10.0604V10.0709V10.0814V10.0919V10.1025V10.113V10.1235V10.134V10.1446V10.1551V10.1656V10.1762V10.1867V10.1972V10.2077V10.2183V10.2288V10.2393V10.2498V10.2604V10.2709V10.2814V10.292V10.3025V10.313V10.3235V10.3341V10.3446V10.3551V10.3656V10.3762V10.3867V10.3972V10.4078V10.4183V10.4288V10.4393V10.4499V10.4604V10.4709V10.4814V10.492V10.5025V10.513V10.5236V10.5341V10.5446V10.5551V10.5657V10.5762V10.5867V10.5972V10.6078V10.6183V10.6288V10.6393V10.6499V10.6604V10.6709V10.6815V10.692V10.7025V10.713V10.7236V10.7341V10.7446V10.7551V10.7657V10.7762V10.7867V10.7973V10.8078V10.8183V10.8288V10.8394V10.8499V10.8604V10.8709V10.8815V10.892V10.9025V10.9131V10.9236V10.9341V10.9446V10.9552V10.9657V10.9762V10.9867V10.9973V11.0078V11.0183V11.0289V11.0394V11.0499V11.0604V11.071V11.0815V11.092V11.1025V11.1131V11.1236V11.1341V11.1446V11.1552V11.1657V11.1762V11.1868V11.1973V11.2078V11.2183V11.2289V11.2394V11.2499V11.2604V11.271V11.2815V11.292V11.3026V11.3131V11.3236V11.3341V11.3447V11.3552V11.3657V11.3762V11.3868V11.3973V11.4078V11.4184V11.4289V11.4394V11.4499V11.4605V11.471V11.4815V11.492V11.5026V11.5131V11.5236V11.5342V11.5447V11.5552V11.5657V11.5763V11.5868V11.5973V11.6078V11.6184V11.6289V11.6394V11.6499V11.6605V11.671V11.6815V11.6921V11.7026V11.7131V11.7236V11.7342V11.7447V11.7552V11.7657V11.7763V11.7868V11.7973V11.8079V11.8184V11.8289V11.8394V11.85V11.8605V11.871V11.8815V11.8921V11.9026V11.9131V11.9237V11.9342V11.9447V11.9552V11.9658V11.9763V11.9868V11.9973V12.0079V12.0184V12.0289V12.0395V12.05V12.0605V12.071V12.0816V12.0921V12.1026V12.1131V12.1237V12.1342V12.1447V12.1552V12.1658V12.1763V12.1868V12.1974V12.2079V12.2184V12.2289V12.2395V12.25V12.2605V12.271V12.2816V12.2921V12.3026V12.3132V12.3237V12.3342V12.3447V12.3553V12.3658V12.3763V12.3868V12.3974V12.4079V12.4184V12.429V12.4395V12.45V12.4605V12.4711V12.4816V12.4921V12.5026V12.5132V12.5237V12.5342V12.5447V12.5553V12.5658V12.5763V12.5869V12.5974V12.6079V12.6184V12.629V12.6395V12.65V12.6605V12.6711V12.6816V12.6921V12.7027V12.7132V12.7237V12.7342V12.7448V12.7553V12.7658V12.7763C0.599414 13.0598 0.667266 13.3687 0.933128 13.5828C1.1726 13.7758 1.4896 13.8191 1.78904 13.8223L1.79006 13.8223C2.50828 13.8284 3.2265 13.8284 3.94472 13.8223C4.24923 13.8222 4.56874 13.7795 4.81003 13.5851C5.07707 13.37 5.14469 13.0594 5.14469 12.7763V12.771V12.7657V12.7604V12.7551V12.7499V12.7446V12.7393V12.734V12.7287V12.7234V12.7181V12.7128V12.7075V12.7022V12.6969V12.6916V12.6863V12.681V12.6757V12.6704V12.6651V12.6598V12.6545V12.6492V12.6439V12.6386V12.6333V12.628V12.6227V12.6174V12.6121V12.6068V12.6015V12.5962V12.5909V12.5856V12.5803V12.575V12.5697V12.5644V12.5591V12.5538V12.5485V12.5432V12.5379V12.5326V12.5273V12.522V12.5167V12.5114V12.5061V12.5008V12.4955V12.4902V12.4849V12.4796V12.4743V12.469V12.4637V12.4584V12.4531V12.4478V12.4425V12.4372V12.4319V12.4266V12.4213V12.416V12.4107V12.4054V12.4001V12.3948V12.3895V12.3842V12.3789V12.3737V12.3684V12.3631V12.3578V12.3525V12.3472V12.3419V12.3366V12.3313V12.326V12.3207V12.3154V12.3101V12.3048V12.2995V12.2942V12.2889V12.2836V12.2783V12.273V12.2677V12.2624V12.2571V12.2518V12.2465V12.2412V12.2359V12.2306V12.2253V12.22V12.2147V12.2094V12.2041V12.1988V12.1935V12.1882V12.1829V12.1776V12.1723V12.167V12.1617V12.1565V12.1512V12.1459V12.1406V12.1353V12.13V12.1247V12.1194V12.1141V12.1088V12.1035V12.0982V12.0929V12.0876V12.0823V12.077V12.0717V12.0664V12.0611V12.0558V12.0505V12.0452V12.0399V12.0346V12.0293V12.024V12.0187V12.0134V12.0081V12.0029V11.9976V11.9923V11.987V11.9817V11.9764V11.9711V11.9658V11.9605V11.9552V11.9499V11.9446V11.9393V11.934V11.9287V11.9234V11.9181V11.9128V11.9075V11.9022V11.8969V11.8916V11.8863V11.8811V11.8758V11.8705V11.8652V11.8599V11.8546V11.8493V11.844V11.8387V11.8334V11.8281V11.8228V11.8175V11.8122V11.8069V11.8016V11.7963V11.791V11.7858V11.7805V11.7752V11.7699V11.7646V11.7593V11.754V11.7487V11.7434V11.7381V11.7328V11.7275V11.7222V11.7169V11.7116V11.7063V11.7011V11.6958V11.6905V11.6852V11.6799V11.6746V11.6693V11.664V11.6587V11.6534V11.6481V11.6428V11.6375V11.6322V11.627V11.6217V11.6164V11.6111V11.6058V11.6005V11.5952V11.5899V11.5846V11.5793V11.574V11.5687V11.5634V11.5582V11.5529V11.5476V11.5423V11.537V11.5317V11.5264V11.5211V11.5158V11.5105V11.5052V11.4999V11.4947V11.4894V11.4841V11.4788V11.4735V11.4682V11.4629V11.4576V11.4523V11.447V11.4418V11.4365V11.4312V11.4259V11.4206V11.4153V11.41V11.4047V11.3994V11.3941V11.3889V11.3836V11.3783V11.373V11.3677V11.3624V11.3571V11.3518V11.3465V11.3412V11.336V11.3307V11.3254V11.3201V11.3148V11.3095V11.3042V11.2989V11.2936V11.2884V11.2831V11.2778V11.2725V11.2672V11.2619V11.2566V11.2513V11.2461V11.2408V11.2355V11.2302V11.2249V11.2196V11.2143V11.209V11.2038V11.1985V11.1932V11.1879V11.1826V11.1773V11.172V11.1668V11.1615V11.1562V11.1509V11.1456V11.1403V11.135V11.1297V11.1245V11.1192V11.1139V11.1086V11.1033V11.098V11.0928V11.0875V11.0822V11.0769V11.0716V11.0663V11.061V11.0558V11.0505V11.0452V11.0399V11.0346V11.0293V11.0241V11.0188V11.0135V11.0082V11.0029V10.9976V10.9923V10.9871V10.9818V10.9765V10.9712V10.9659V10.9606V10.9554V10.9501V10.9448V10.9395V10.9342V10.929V10.9237V10.9184V10.9131V10.9078V10.9025V10.8973V10.892V10.8867V10.8814V10.8761V10.8709V10.8656V10.8603V10.855V10.8497V10.8444V10.8392V10.8339V10.8286V10.8233V10.818V10.8128V10.8075V10.8022V10.7969V10.7916V10.7864V10.7811V10.7758V10.7705V10.7652V10.76V10.7547V10.7494V10.7441V10.7388V10.7336V10.7283V10.723V10.7177V10.7125V10.7072V10.7019V10.6966V10.6913V10.6861V10.6808V10.6755V10.6702V10.665V10.6597V10.6544V10.6491V10.6438V10.6386V10.6333V10.628V10.6227V10.6175V10.6122V10.6069V10.6016V10.5964V10.5911V10.5858V10.5805V10.5753V10.57V10.5647V10.5594V10.5542V10.5489V10.5436V10.5383V10.5331V10.5278V10.5225V10.5172V10.512V10.5067V10.5014V10.4961V10.4909V10.4856V10.4803V10.475V10.4698V10.4645V10.4592V10.4539V10.4487V10.4434V10.4381V10.4329V10.4276V10.4223V10.417V10.4118V10.4065V10.4012V10.3959V10.3907V10.3854V10.3801V10.3749V10.3696V10.3643V10.3591V10.3538V10.3485V10.3432V10.338V10.3327V10.3274V10.3222V10.3169V10.3116V10.3064V10.3011V10.2958V10.2905V10.2853V10.28V10.2747V10.2695V10.2642V10.2589V10.2537V10.2484V10.2431V10.2379V10.2326V10.2273V10.2221V10.2168V10.2115V10.2063V10.201V10.1957V10.1905V10.1852V10.1799V10.1747V10.1694V10.1641V10.1589V10.1536V10.1483V10.1431V10.1378V10.1325V10.1273V10.122V10.1167V10.1115V10.1062V10.1009V10.0957V10.0904V10.0851V10.0799V10.0746V10.0694V10.0641V10.0589V10.0537V10.0484V10.0432V10.038V10.0328V10.0275V10.0223V10.0171V10.0118V10.0066V10.0014V9.99616V9.99093V9.9857V9.98048V9.97525V9.97002V9.96479V9.95956V9.95434V9.94911V9.94388V9.93865V9.93342V9.92819V9.92297V9.91774V9.91251V9.90728V9.90205V9.89683V9.8916V9.88637V9.88114V9.87591V9.87068V9.86546V9.86023V9.855V9.84977V9.84454V9.83931V9.83409V9.82886V9.82363V9.8184V9.81317V9.80795V9.80272V9.79749V9.79226V9.78703V9.7818V9.77658V9.77135V9.76612V9.76089V9.75566V9.75044V9.74521V9.73998V9.73475V9.72952V9.72429V9.71907V9.71384V9.70861V9.70338V9.69815V9.69292V9.6877V9.68247V9.67724V9.67201V9.66678V9.66156V9.65633V9.6511V9.64587V9.64064V9.63541V9.63019V9.62496V9.61973V9.6145V9.60927V9.60405V9.59882V9.59359V9.58836V9.58313V9.5779V9.57268V9.56745V9.56222V9.55699V9.55176V9.54653V9.54131V9.53608V9.53085V9.52562V9.52039V9.51517V9.50994V9.50471V9.49948V9.49425V9.48902V9.4838V9.47857V9.47334V9.46811V9.46288V9.45766V9.45243V9.4472V9.44197V9.43674V9.43151V9.42629V9.42106V9.41583V9.4106V9.40537V9.40014V9.39492V9.38969V9.38446V9.37923V9.374V9.36878V9.36355V9.35832V9.35309V9.34786V9.34263V9.33741V9.33218V9.32695V9.32172V9.31649V9.31127V9.30604V9.30081V9.29558V9.29035V9.28512V9.2799V9.27467V9.26944V9.26421V9.25898V9.25375V9.24853V9.2433V9.23807V9.23284V9.22761V9.22239V9.21716V9.21193V9.2067V9.20147V9.19624V9.19102V9.18579V9.18056V9.17533V9.1701V9.16488V9.15965V9.15442V9.14919V9.14396V9.13873V9.13351V9.12828V9.12305V9.11782V9.11259V9.10736V9.10214V9.09691V9.09168V9.08645V9.08122V9.076V9.07077V9.06554V9.06031V9.05508V9.04985V9.04463V9.0394V9.03417V9.02894V9.02371V9.01849V9.01326V9.00803V9.0028V8.99757V8.99234V8.98712V8.98189V8.97666V8.97143V8.9662V8.96098V8.95575V8.95052V8.94529V8.94006V8.93483V8.92961V8.92438V8.91915V8.91392V8.90869V8.90346V8.89824V8.89301V8.88778V8.88255V8.87732V8.8721V8.86687V8.86164V8.85641V8.85118V8.84595V8.84073V8.8355V8.83027V8.82504V8.81981V8.81459V8.80936V8.80413V8.7989V8.79367V8.78844V8.78322V8.77799V8.77276V8.76753V8.7623V8.75707V8.75185V8.74662V8.74139V8.73616V8.73093V8.72571V8.72048V8.71525V8.71002V8.70479V8.69956V8.69434V8.68911V8.68388V8.67865V8.67342V8.6682V8.66297V8.65774V8.65251V8.64728V8.64205V8.63683V8.6316V8.62637V8.62114V8.61591V8.61068V8.60546V8.60023V8.595V8.58977V8.58454V8.57932V8.57409V8.56886V8.56363V8.5584V8.55317V8.54795V8.54272V8.53749V8.53226V8.52703V8.52181V8.51658V8.51135V8.50612V8.50089V8.49566V8.49044V8.48521V8.47998V8.47475V8.46952V8.46429V8.45907V8.45384V8.44861V8.44338V8.43815V8.43293V8.4277V8.42247V8.41724V8.41201V8.40678V8.40156V8.39633V8.3911V8.38587V8.38064V8.37542V8.37019V8.36496V8.35973V8.3545V8.34927V8.34405V8.33882V8.33359V8.32836V8.32313V8.31791V8.31268V8.30745V8.30222V8.29699V8.29176V8.28654V8.28131V8.27608V8.27085V8.26562V8.26039V8.25517V8.24994V8.24471V8.23948V8.23425V8.22903V8.2238V8.21857V8.21334V8.20811V8.20288V8.19766V8.19243V8.1872V8.18197V8.17674V8.17152V8.16629V8.16106V8.15583V8.1506V8.14537V8.14015V8.13492V8.12969V8.12446V8.11923V8.114V8.10878V8.10355V8.09832V8.09309V8.08786V8.08264V8.07741V8.07218V8.06695V8.06172V8.05649V8.05127V8.04604V8.04081V8.03558V8.03035V8.02513V8.0199V8.01467V8.00944V8.00421V7.99898V7.99376V7.98853V7.9833V7.97807V7.97284V7.96761V7.96239V7.95716V7.95193V7.9467V7.94147V7.93625V7.93102V7.92579V7.92056V7.91533V7.9101V7.90488V7.89965V7.89442V7.88919V7.88396V7.87874V7.87351V7.86828V7.86305V7.85782V7.85259V7.84737V7.84214V7.83691V7.83168V7.82645V7.82122V7.816V7.81077V7.80554V7.80031V7.79508V7.78986V7.78463V7.7794V7.77417V7.76894V7.76371V7.75849V7.75326V7.74803V7.7428V7.73757V7.73235V7.72712V7.72189V7.71666V7.71143V7.7062V7.70098V7.69575V7.69052V7.68529V7.68006V7.67484V7.66961V7.66438V7.65915V7.65392V7.64869V7.64347V7.63824V7.63301V7.62778V7.62255V7.61732V7.6121V7.60687V7.60164V7.59641V7.59118V7.58596V7.58073V7.5755V7.57027V7.56504V7.55981V7.55459V7.54936V7.54413V7.5389V7.53367V7.52845V7.52322V7.51799V7.51276V7.50753V7.5023V7.49708V7.49185V7.48662V7.48139V7.47616V7.47093V7.46571V7.46048V7.45525V7.45002V7.44479V7.43957V7.43434V7.42911V7.42388V7.41865V7.41342V7.4082V7.40297V7.39774V7.39251C5.14469 7.1149 5.09255 6.78885 4.81288 6.56871C4.56768 6.3757 4.23655 6.34357 3.9321 6.34052Z" stroke="white" stroke-width="0.85"/>
</svg>
