<svg width="20" height="20" viewBox="0 0 20 20" fill="none" xmlns="http://www.w3.org/2000/svg">
<rect x="0.000488281" width="20" height="20" rx="5" fill="#161616"/>
<path fill-rule="evenodd" clip-rule="evenodd" d="M8.75768 8.15997V7.62778C8.57298 7.60162 8.38671 7.58805 8.20018 7.58716C5.91893 7.58716 4.06299 9.44341 4.06299 11.7247C4.06299 13.124 4.76236 14.3628 5.82924 15.1118C5.11487 14.3479 4.71773 13.3409 4.7183 12.295C4.7183 10.0462 6.52143 8.21247 8.75768 8.15997Z" fill="#00D1FF"/>
<path fill-rule="evenodd" clip-rule="evenodd" d="M8.8548 14.1842C9.87262 14.1842 10.7029 13.3745 10.7407 12.3655L10.7442 3.35767H12.3898C12.3547 3.16959 12.3369 2.97868 12.3367 2.78735H10.0892L10.0854 11.7955C10.0479 12.8042 9.2173 13.6136 8.1998 13.6136C7.89432 13.6137 7.59343 13.5393 7.32324 13.3967C7.4977 13.6401 7.7276 13.8385 7.99392 13.9754C8.26024 14.1124 8.55534 14.1839 8.8548 14.1842ZM15.4639 6.41517V5.91454C14.8591 5.9151 14.2673 5.73916 13.7611 5.40829C14.2049 5.91932 14.8022 6.27262 15.4639 6.41517Z" fill="#00D1FF"/>
<path fill-rule="evenodd" clip-rule="evenodd" d="M13.7612 5.40767C13.265 4.84 12.9918 4.11158 12.9921 3.35767H12.3899C12.4679 3.77437 12.6296 4.17091 12.8653 4.52328C13.101 4.87565 13.4058 5.17652 13.7612 5.40767ZM8.19992 9.83454C7.69901 9.83512 7.21877 10.0344 6.86457 10.3886C6.51037 10.7428 6.31113 11.223 6.31055 11.7239C6.31088 12.0685 6.40538 12.4064 6.58383 12.7012C6.76228 12.996 7.01789 13.2364 7.32305 13.3964C7.0907 13.076 6.96557 12.6903 6.96555 12.2945C6.96604 11.7936 7.16525 11.3133 7.51946 10.959C7.87367 10.6047 8.35395 10.4054 8.85492 10.4049C9.04961 10.4049 9.23617 10.437 9.41242 10.4924V8.19767C9.22772 8.17151 9.04146 8.15793 8.85492 8.15704C8.82211 8.15704 8.78992 8.15892 8.75742 8.15954V9.92204C8.57713 9.86465 8.38913 9.83514 8.19992 9.83454Z" fill="#EA4335"/>
<path fill-rule="evenodd" clip-rule="evenodd" d="M15.4641 6.41462V8.16149C14.2985 8.16149 13.2188 7.78868 12.3369 7.15587V11.7237C12.3369 14.0049 10.4813 15.8609 8.20004 15.8609C7.31848 15.8609 6.50098 15.5827 5.8291 15.1109C6.21538 15.5274 6.68354 15.8597 7.20423 16.0869C7.72493 16.3141 8.28694 16.4313 8.85504 16.4312C11.1363 16.4312 12.9922 14.5752 12.9922 12.2943V7.72649C13.9033 8.38159 14.9973 8.73341 16.1194 8.73212V6.48399C15.8944 6.48399 15.6757 6.45993 15.4641 6.41462Z" fill="#EA4335"/>
<path fill-rule="evenodd" clip-rule="evenodd" d="M12.336 11.7239V7.1561C13.247 7.81128 14.3411 8.16311 15.4632 8.16173V6.41485C14.8016 6.27216 14.2041 5.91875 13.7604 5.40767C13.405 5.17652 13.1003 4.87565 12.8646 4.52328C12.6289 4.17091 12.4671 3.77437 12.3892 3.35767H10.7435L10.7401 12.3655C10.7023 13.3742 9.87197 14.1839 8.85416 14.1839C8.5547 14.1836 8.25961 14.112 7.9933 13.9751C7.72698 13.8382 7.49708 13.6398 7.3226 13.3964C7.01738 13.2364 6.7617 12.996 6.5832 12.7013C6.40469 12.4065 6.31015 12.0685 6.30979 11.7239C6.31036 11.223 6.50961 10.7428 6.86381 10.3886C7.21801 10.0344 7.69824 9.83512 8.19916 9.83454C8.39354 9.83454 8.5801 9.86642 8.75666 9.92204V8.15954C6.52041 8.21204 4.71729 10.0458 4.71729 12.2945C4.71729 13.382 5.13979 14.372 5.82822 15.1114C6.52224 15.6 7.35042 15.8619 8.19916 15.8611C10.4804 15.8611 12.336 14.0052 12.336 11.7239Z" fill="white"/>
</svg>
