<svg width="57" height="49" viewBox="0 0 57 49" fill="none" xmlns="http://www.w3.org/2000/svg">
<path fill-rule="evenodd" clip-rule="evenodd" d="M5.31173 19.3157L6.31652 17.5754C5.76192 17.1411 5.17844 16.745 4.57011 16.3899C-2.88995 12.0829 -12.4638 14.649 -16.7709 22.1091C-19.4129 26.6853 -19.4647 32.0566 -17.3901 36.5205C-18.2838 32.6735 -17.6813 28.6306 -15.7047 25.2114C-11.459 17.8576 -2.10028 15.2653 5.31173 19.3157Z" fill="white"/>
<path fill-rule="evenodd" clip-rule="evenodd" d="M-5.74362 39.2005C-2.41521 41.1221 1.82876 40.042 3.85756 36.8136L20.8758 7.36305L26.2573 10.47C26.4975 9.78866 26.7997 9.13079 27.1603 8.50472L19.8106 4.26138L2.79075 33.7123C0.763576 36.9403 -3.48083 38.0188 -6.80822 36.0978C-7.80742 35.5214 -8.65084 34.7098 -9.26525 33.7336C-9.15428 34.8589 -8.77701 35.9417 -8.16464 36.8923C-7.55226 37.8429 -6.72238 38.6341 -5.74362 39.2005ZM30.5373 26.2725L31.4825 24.6353C29.5037 23.4953 27.9006 21.8027 26.8698 19.7649C27.3564 22.274 28.6426 24.557 30.5373 26.2725Z" fill="white"/>
<path fill-rule="evenodd" clip-rule="evenodd" d="M10.2872 37.7297L18.9114 22.7923C20.6535 26.6547 23.567 29.871 27.2391 31.985L30.5373 26.2725C28.6426 24.557 27.3564 22.274 26.8698 19.7649C26.1441 18.338 25.7161 16.7777 25.6106 15.1804C25.5051 13.5831 25.7255 11.9799 26.2573 10.47L20.8758 7.36305L3.85756 36.8136C1.82876 40.042 -2.41521 41.1221 -5.74362 39.2005C-6.72238 38.6341 -7.55226 37.8429 -8.16464 36.8923C-8.77701 35.9417 -9.15428 34.8589 -9.26525 33.7336C-9.96127 32.6341 -10.3435 31.3653 -10.3707 30.0643C-10.3979 28.7633 -10.069 27.4796 -9.41958 26.352C-8.47194 24.715 -6.91369 23.5208 -5.08665 23.0312C-3.25962 22.5417 -1.313 22.7968 0.326172 23.7406C0.961809 24.1076 1.51172 24.5641 1.98408 25.0794L5.31173 19.3157C-2.10028 15.2653 -11.459 17.8576 -15.7047 25.2114C-17.7579 28.7677 -18.2454 32.8028 -17.3901 36.5205C-16.0429 39.4285 -13.8291 41.8485 -11.0521 43.4485C-3.59209 47.7555 5.98016 45.1898 10.2872 37.7297Z" fill="white"/>
<rect x="-8.24777" y="-25.3871" width="73.1611" height="73.1611" rx="17.7003" transform="rotate(30 -8.24777 -25.3871)" stroke="white" stroke-width="2.36004"/>
</svg>
