<svg width="16" height="16" viewBox="0 0 16 16" fill="none" xmlns="http://www.w3.org/2000/svg">
<path d="M10.4571 2.06033H9.25585V13.6276C9.25585 13.8911 9.36505 14.0853 9.58346 14.2101C9.80187 14.3211 10.2532 14.3766 10.9376 14.3766L11.2215 15.5C9.47426 15.4584 8.20749 15.4376 7.42122 15.4376C6.63494 15.4376 5.68123 15.4584 4.56006 15.5L4.29797 14.3766C5.0988 14.3627 5.62298 14.2933 5.87051 14.1685C6.11804 14.0437 6.24181 13.8634 6.24181 13.6276V2.06033H5.52106C4.19605 2.06033 3.35881 2.21983 3.00936 2.53884C2.70359 2.77462 2.4415 3.47503 2.22309 4.64008L1.21841 4.66089C1.0728 3.98128 1 3.27393 1 2.53884C1 1.80375 1.08736 1.12413 1.26209 0.5C1.82995 0.610957 2.47062 0.666436 3.18409 0.666436H12.663C13.6386 0.666436 14.3739 0.610957 14.869 0.5C14.9563 1.457 15 2.21983 15 2.78849C15 3.34327 14.9199 3.98821 14.7597 4.7233L13.7332 4.57767C13.5731 3.4681 13.311 2.78849 12.947 2.53884C12.481 2.21983 11.6511 2.06033 10.4571 2.06033Z" fill="white"/>
</svg>
