<svg width="30" height="31" viewBox="0 0 30 31" fill="none" xmlns="http://www.w3.org/2000/svg">
<path d="M22.7812 3.88494L24.7361 6.0412L28.3238 2.08398" stroke="#F5B060" stroke-width="1.875" stroke-linecap="round" stroke-linejoin="round"/>
<path d="M16.25 21.75C16.25 18.5891 13.1687 16.0327 9.375 16.0327C5.58134 16.0327 2.5 18.5891 2.5 21.75M13.3768 9.58379C13.3768 11.8392 11.5852 13.6676 9.37507 13.6676C7.16497 13.6676 5.37333 11.8392 5.37333 9.58379C5.37333 7.32838 7.16497 5.5 9.37507 5.5C11.5852 5.5 13.3768 7.32838 13.3768 9.58379Z" stroke="#F5B060" stroke-width="1.6875" stroke-linecap="round" stroke-linejoin="round"/>
<path d="M28.75 26.75C28.75 24.4586 26.509 22.6053 23.75 22.6053C20.991 22.6053 18.75 24.4586 18.75 26.75M26.6604 17.2105C26.6604 18.8456 25.3574 20.1711 23.7501 20.1711C22.1427 20.1711 20.8397 18.8456 20.8397 17.2105C20.8397 15.5755 22.1427 14.25 23.7501 14.25C25.3574 14.25 26.6604 15.5755 26.6604 17.2105Z" stroke="#F5B060" stroke-width="1.6875" stroke-linecap="round" stroke-linejoin="round"/>
</svg>
