<svg width="30" height="30" viewBox="0 0 30 30" fill="none" xmlns="http://www.w3.org/2000/svg">
<path d="M16.25 21.25C16.25 18.0891 13.1687 15.5327 9.375 15.5327C5.58134 15.5327 2.5 18.0891 2.5 21.25M13.3768 9.08379C13.3768 11.3392 11.5852 13.1676 9.37507 13.1676C7.16497 13.1676 5.37333 11.3392 5.37333 9.08379C5.37333 6.82838 7.16497 5 9.37507 5C11.5852 5 13.3768 6.82838 13.3768 9.08379Z" stroke="#262626" stroke-width="1.6875" stroke-linecap="round" stroke-linejoin="round"/>
<path d="M28.75 26.25C28.75 23.9586 26.509 22.1053 23.75 22.1053C20.991 22.1053 18.75 23.9586 18.75 26.25M26.6604 16.7105C26.6604 18.3456 25.3574 19.6711 23.7501 19.6711C22.1427 19.6711 20.8397 18.3456 20.8397 16.7105C20.8397 15.0755 22.1427 13.75 23.7501 13.75C25.3574 13.75 26.6604 15.0755 26.6604 16.7105Z" stroke="#262626" stroke-width="1.6875" stroke-linecap="round" stroke-linejoin="round"/>
<path d="M22.7812 3.38494L24.7361 5.5412L28.3238 1.58398" stroke="#262626" stroke-width="1.875" stroke-linecap="round" stroke-linejoin="round"/>
</svg>
