<svg width="33" height="32" viewBox="0 0 33 32" fill="none" xmlns="http://www.w3.org/2000/svg">
<path d="M16.7998 7.05C22.3293 7.05 26.9131 11.413 28.9737 15.8754C28.9909 15.9147 28.9998 15.9571 28.9998 16C28.9998 16.0429 28.9909 16.0853 28.9737 16.1246C26.9131 20.587 22.3293 24.95 16.7998 24.95C11.2703 24.95 6.68649 20.587 4.62591 16.1246C4.6087 16.0853 4.5998 16.0429 4.5998 16C4.5998 15.9571 4.6087 15.9147 4.62591 15.8754C6.68649 11.413 11.2703 7.05 16.7998 7.05Z" stroke="#BBBABD" stroke-width="1.6"/>
<path d="M16.7998 20.0062C16.0076 20.0062 15.2331 19.7713 14.5745 19.3311C13.9157 18.891 13.4023 18.2653 13.0991 17.5334C12.7959 16.8014 12.7165 15.996 12.8711 15.2189C13.0257 14.4419 13.4072 13.7281 13.9674 13.1679C14.5276 12.6076 15.2414 12.2261 16.0185 12.0716C16.7955 11.917 17.601 11.9963 18.3329 12.2995C19.0649 12.6027 19.6905 13.1161 20.1307 13.7749C20.5708 14.4336 20.8058 15.208 20.8058 16.0002C20.8043 17.0622 20.3818 18.0803 19.6308 18.8313C18.8799 19.5822 17.8618 20.0048 16.7998 20.0062Z" stroke="#BBBABD" stroke-width="1.6"/>
</svg>
