<svg width="16" height="16" viewBox="0 0 16 16" fill="none" xmlns="http://www.w3.org/2000/svg">
<path d="M3.0376 14C2.77093 14 2.5376 13.9 2.3376 13.7C2.1376 13.5 2.0376 13.2667 2.0376 13V3C2.0376 2.73333 2.1376 2.5 2.3376 2.3C2.5376 2.1 2.77093 2 3.0376 2H7.1876C7.32926 2 7.44801 2.04819 7.54385 2.14458C7.63968 2.24098 7.6876 2.36043 7.6876 2.50292C7.6876 2.64542 7.63968 2.76389 7.54385 2.85833C7.44801 2.95278 7.32926 3 7.1876 3H3.0376V13H13.0376V8.85C13.0376 8.70833 13.0858 8.58958 13.1822 8.49375C13.2786 8.39792 13.398 8.35 13.5405 8.35C13.683 8.35 13.8015 8.39792 13.8959 8.49375C13.9904 8.58958 14.0376 8.70833 14.0376 8.85V13C14.0376 13.2667 13.9376 13.5 13.7376 13.7C13.5376 13.9 13.3043 14 13.0376 14H3.0376ZM6.05643 9.97682C5.9661 9.88116 5.91815 9.76667 5.9126 9.63333C5.90704 9.5 5.95426 9.38333 6.05426 9.28333L12.3376 3H9.1876C9.04593 3 8.92718 2.95181 8.83135 2.85542C8.73551 2.75902 8.6876 2.63957 8.6876 2.49708C8.6876 2.35458 8.73551 2.23611 8.83135 2.14167C8.92718 2.04722 9.04593 2 9.1876 2H13.5376C13.6793 2 13.798 2.04792 13.8938 2.14375C13.9897 2.23958 14.0376 2.35833 14.0376 2.5V6.85C14.0376 6.99167 13.9894 7.11042 13.893 7.20625C13.7966 7.30208 13.6772 7.35 13.5347 7.35C13.3922 7.35 13.2737 7.30208 13.1793 7.20625C13.0848 7.11042 13.0376 6.99167 13.0376 6.85V3.71667L6.75426 10C6.66046 10.0889 6.54535 10.1333 6.40891 10.1333C6.27248 10.1333 6.15499 10.0812 6.05643 9.97682Z" fill="#3B82F6"/>
</svg>
