<svg width="32" height="32" viewBox="0 0 32 32" fill="none" xmlns="http://www.w3.org/2000/svg">
<path d="M28.9023 15.5449C26.7681 10.9191 21.9582 6.25 15.9999 6.25C10.0416 6.25 5.23165 10.9191 3.0975 15.5449C3.03323 15.688 3 15.8431 3 15.9999C3 16.1568 3.03323 16.3118 3.0975 16.4549C5.23165 21.0807 10.0416 25.7498 15.9999 25.7498C21.9582 25.7498 26.7681 21.0807 28.9023 16.4549C28.9665 16.3118 28.9998 16.1568 28.9998 15.9999C28.9998 15.8431 28.9665 15.688 28.9023 15.5449ZM15.9999 21.4165C14.9286 21.4165 13.8813 21.0988 12.9906 20.5037C12.0998 19.9085 11.4055 19.0625 10.9956 18.0728C10.5856 17.083 10.4783 15.9939 10.6873 14.9432C10.8963 13.8925 11.4122 12.9273 12.1698 12.1698C12.9273 11.4123 13.8924 10.8964 14.9431 10.6874C15.9939 10.4784 17.083 10.5856 18.0727 10.9956C19.0625 11.4056 19.9084 12.0998 20.5036 12.9906C21.0988 13.8814 21.4165 14.9286 21.4165 15.9999C21.4148 17.436 20.8435 18.8127 19.8281 19.8281C18.8127 20.8436 17.4359 21.4148 15.9999 21.4165Z" fill="white"/>
<path d="M16 19.2499C17.7949 19.2499 19.2499 17.7949 19.2499 16C19.2499 14.2051 17.7949 12.75 16 12.75C14.2051 12.75 12.75 14.2051 12.75 16C12.75 17.7949 14.2051 19.2499 16 19.2499Z" fill="white"/>
</svg>
