<svg width="21" height="16" viewBox="0 0 21 16" fill="none" xmlns="http://www.w3.org/2000/svg">
<path d="M10.4998 12.2577C9.53059 12.2577 8.75175 13.0452 8.75175 14.0058C8.75175 14.975 9.53925 15.7539 10.4998 15.7539C11.4604 15.7539 12.2479 14.9663 12.2479 14.0058C12.2479 13.0365 11.4691 12.2577 10.4998 12.2577ZM14.7748 10.1375C13.7191 8.96923 12.196 8.24231 10.4998 8.24231C8.80367 8.24231 7.28059 8.97788 6.22482 10.1375L6.23347 10.1461C6.01713 10.3711 5.87866 10.6827 5.87866 11.0202C5.87866 11.7125 6.44116 12.275 7.12482 12.275C7.54886 12.275 7.92097 12.0673 8.14597 11.7471C8.73444 11.124 9.57386 10.7346 10.4998 10.7346C11.4258 10.7346 12.2566 11.124 12.8537 11.7384C13.0787 12.0586 13.4508 12.275 13.8748 12.275C14.5671 12.275 15.121 11.7125 15.121 11.0202C15.1296 10.6827 14.9912 10.3712 14.7748 10.1375ZM20.3393 4.55576C17.8729 1.89902 14.3768 0.24614 10.4998 0.24614C6.6229 0.24614 3.12674 1.89902 0.651731 4.55576L0.660385 4.5644C0.435385 4.7894 0.288269 5.1096 0.288269 5.45576C0.288269 6.14807 0.85077 6.71057 1.53443 6.71057C1.88058 6.71057 2.19212 6.5721 2.42577 6.33845C4.45078 4.13171 7.31521 2.75576 10.4998 2.75576C13.6844 2.75576 16.5575 4.14036 18.5652 6.34709L18.5739 6.33845C18.7989 6.5721 19.1191 6.71057 19.4652 6.71057C20.1575 6.71057 20.7114 6.14807 20.7114 5.45576C20.72 5.10095 20.5729 4.78941 20.3393 4.55576ZM17.4489 7.31633C15.7095 5.42113 13.2431 4.23557 10.4998 4.23557C7.76521 4.23557 5.2902 5.42113 3.55943 7.31633C3.27385 7.53268 3.09212 7.87884 3.09212 8.26826C3.09212 8.93461 3.62866 9.47114 4.28635 9.47114C4.63251 9.47114 4.94405 9.32403 5.16039 9.09038L5.16905 9.09902C6.49309 7.65383 8.38828 6.74519 10.4998 6.74519C12.6114 6.74519 14.5066 7.65383 15.8306 9.09902L15.8393 9.09038C16.0556 9.32403 16.3671 9.47114 16.7133 9.47114C17.371 9.47114 17.9075 8.93461 17.9075 8.26826C17.9075 7.87884 17.7258 7.53268 17.4489 7.31633Z" fill="#161616"/>
</svg>
