<svg width="49" height="49" viewBox="0 0 49 49" fill="none" xmlns="http://www.w3.org/2000/svg">
<g clip-path="url(#clip0_2818_10822)">
<path d="M9.6633 50.5966L-14.441 36.6798C-21.6722 32.5048 -23.7098 24.9005 -19.5348 17.6692L-11.1849 3.20652C-7.00999 -4.02482 0.594168 -6.06234 7.82545 -1.8873L31.9297 12.0295C39.161 16.2045 41.1985 23.8088 37.0236 31.0401L28.6737 45.5028C24.4987 52.7341 16.8946 54.7716 9.6633 50.5966Z" stroke="white" stroke-width="2.0875" stroke-miterlimit="10" stroke-linecap="round" stroke-linejoin="round"/>
<path d="M10.8244 16.4174L15.286 24.4542C16.7975 27.5113 15.3788 29.9688 11.9755 30.1883L2.78468 30.3428C-0.891642 30.4047 -2.2878 27.7783 -0.553734 24.7747L4.17554 16.5833C6.22489 13.0336 9.03984 13.2026 10.8244 16.4174Z" fill="white" stroke="white" stroke-width="1.83014" stroke-miterlimit="10" stroke-linecap="round" stroke-linejoin="round"/>
</g>
<defs>
<clipPath id="clip0_2818_10822">
<rect width="58.5645" height="58.5645" fill="white" transform="matrix(0.866022 0.500005 -0.499995 0.866028 -2.1582 -15.7539)"/>
</clipPath>
</defs>
</svg>
