<svg width="59" height="61" viewBox="0 0 59 61" fill="none" xmlns="http://www.w3.org/2000/svg">
<path d="M40.5622 21.7757V16.0844C40.5622 13.529 38.6136 11.4551 36.2127 11.4551H15.4569C13.056 11.4551 11.1074 13.529 11.1074 16.0844V45.6011C11.1074 48.1565 13.056 50.2305 15.4569 50.2305H36.2127C38.6136 50.2305 40.5622 48.1565 40.5622 45.6011V34.7123" stroke="#916BFF" stroke-width="2" stroke-miterlimit="10" stroke-linecap="round" stroke-linejoin="round"/>
<path d="M25.2285 38.752H15.9316" stroke="#916BFF" stroke-width="2" stroke-linecap="round" stroke-linejoin="round"/>
<path d="M35.7559 44.6309H15.9316" stroke="#916BFF" stroke-width="2" stroke-linecap="round" stroke-linejoin="round"/>
<path d="M25.414 32.8174H17.3398C16.2353 32.8174 15.3398 31.922 15.3398 30.8174V17.8066C15.3398 16.7021 16.2353 15.8066 17.3398 15.8066H34.3301C35.4347 15.8066 36.3301 16.7021 36.3301 17.8066V20.4938" stroke="#916BFF" stroke-width="2"/>
<path d="M46.7804 19.2364L46.7791 19.2349C46.3617 18.778 45.8258 18.4486 45.2555 18.3281C44.6842 18.2075 43.9915 18.2905 43.4716 18.8025L43.4687 18.8053L29.2483 32.9212C29.0836 33.0847 28.9809 33.3004 28.9578 33.5314L28.7081 36.0273C28.679 36.3183 28.7788 36.6076 28.9812 36.8187C29.1836 37.0299 29.4683 37.1419 29.7603 37.1252L32.1638 36.9874C32.4076 36.9734 32.6378 36.8708 32.8111 36.6987L47.0315 22.5829C47.5408 22.0774 47.6416 21.3928 47.5595 20.8296C47.4761 20.2577 47.1976 19.6949 46.7804 19.2364Z" stroke="#916BFF" stroke-width="2" stroke-miterlimit="10" stroke-linecap="round" stroke-linejoin="round"/>
</svg>
